<svg width="365" height="50" viewBox="0 0 365 50" fill="none" xmlns="http://www.w3.org/2000/svg">
<path fill-rule="evenodd" clip-rule="evenodd" d="M314.405 23.0128C319.019 23.0128 320.799 25.8334 321.047 28.2902C321.064 28.4465 320.939 28.5827 320.781 28.5827H308.106C307.943 28.5827 307.817 28.4402 307.841 28.2802C308.184 25.8809 310.312 23.0128 314.405 23.0128ZM321.355 38.6267C321.183 38.6267 321.022 38.7079 320.923 38.8467C319.78 40.4535 317.92 41.446 315.14 41.446C311.313 41.446 307.99 38.9329 307.632 35.3736C307.616 35.2167 307.739 35.0805 307.897 35.0805H319.44H330.67C330.736 34.8811 330.87 33.3561 330.87 31.963C330.87 21.3537 324.538 15.0538 314.274 15.0538C305.676 15.0538 297.745 21.8174 297.745 32.4274C297.745 43.5016 305.876 50.0003 315.007 50.0003C323.262 50.0003 328.49 45.3879 330.185 39.8148C330.196 39.7785 330.251 39.5717 330.315 39.2679C330.384 38.9373 330.132 38.6267 329.793 38.6267H321.355ZM341.492 32.2597L330.694 16.8842C330.446 16.533 330.7 16.0498 331.131 16.0498H341.75C341.929 16.0498 342.098 16.1405 342.196 16.2905L347.744 24.7254C347.851 24.8866 348.088 24.8854 348.192 24.7229L353.612 16.2948C353.709 16.1423 353.879 16.0498 354.061 16.0498H364.069C364.502 16.0498 364.754 16.5361 364.504 16.8873L353.852 31.8591C353.722 32.0416 353.721 32.2853 353.85 32.4691C357.337 37.4278 361.324 43.1577 364.9 48.1702C365.152 48.5221 364.899 49.0071 364.465 49.0071H353.923C353.744 49.0071 353.576 48.9171 353.477 48.7677L347.724 40.0571C347.619 39.8984 347.386 39.8971 347.28 40.0546C345.557 42.614 343.305 46.1771 341.596 48.7683C341.497 48.9177 341.331 49.0071 341.151 49.0071H331.323C330.893 49.0071 330.64 48.5271 330.884 48.1758L341.495 32.8653C341.621 32.6828 341.62 32.4416 341.492 32.2597ZM284.278 48.4751V1.52672C284.278 1.23359 284.517 0.996096 284.812 0.996096H293.876C294.171 0.996096 294.409 1.23359 294.409 1.52672V48.4751C294.409 48.7682 294.171 49.0057 293.876 49.0057H284.812C284.517 49.0057 284.278 48.7682 284.278 48.4751ZM269.351 48.4751V1.52672C269.351 1.23359 269.59 0.996096 269.884 0.996096H278.949C279.244 0.996096 279.482 1.23359 279.482 1.52672V48.4751C279.482 48.7682 279.244 49.0057 278.949 49.0057H269.884C269.59 49.0057 269.351 48.7682 269.351 48.4751ZM246.935 41.2491C251 41.2491 254.467 38.066 254.467 32.4955C254.467 26.793 251.068 23.8087 246.935 23.8087C242.603 23.8087 239.337 26.793 239.337 32.4955C239.337 37.9329 242.737 41.2491 246.935 41.2491ZM254.53 44.7616C253.064 47.9447 249.731 49.9335 245.599 49.9335C235.868 49.9335 229.136 42.5735 229.136 32.4274C229.136 22.6131 235.468 15.0538 245.265 15.0538C251.197 15.0538 253.797 18.3031 254.463 19.8281V16.5794C254.463 16.2862 254.702 16.0481 254.996 16.0481H263.727C264.022 16.0481 264.261 16.2862 264.261 16.5794V48.4747C264.261 48.7678 264.022 49.0053 263.727 49.0053H255.004C254.707 49.0053 254.467 48.7635 254.471 48.4678C254.489 47.2691 254.53 44.501 254.53 44.7616ZM207.521 16.4148L213.593 34.7859C213.674 35.0341 214.031 35.0272 214.102 34.7747L219.288 16.4373C219.352 16.208 219.562 16.0498 219.801 16.0498H228.605C228.964 16.0498 229.221 16.3967 229.115 16.738L219.181 48.6333C219.112 48.8558 218.906 49.0071 218.672 49.0071H209.383C209.154 49.0071 208.951 48.8614 208.878 48.6458L202.058 28.4754C201.976 28.2341 201.631 28.2347 201.551 28.4766L194.858 48.6433C194.786 48.8602 194.582 49.0071 194.352 49.0071H184.865C184.631 49.0071 184.426 48.8571 184.355 48.6352L174.293 16.7392C174.185 16.398 174.442 16.0498 174.802 16.0498H184.203C184.441 16.0498 184.651 16.208 184.716 16.4367L189.903 34.7166C189.975 34.9672 190.329 34.9759 190.412 34.7278L196.548 16.413C196.621 16.1961 196.825 16.0498 197.054 16.0498H207.014C207.244 16.0498 207.449 16.1973 207.521 16.4148ZM171.541 25.3459C171.541 25.6746 171.243 25.9259 170.918 25.8684C170.014 25.709 169.156 25.6646 168.341 25.6646C164.276 25.6646 160.61 28.0521 160.61 34.6164V48.4757C160.61 48.7688 160.371 49.0063 160.077 49.0063H151.013C150.718 49.0063 150.479 48.7688 150.479 48.4757V16.5803C150.479 16.2872 150.718 16.0491 151.013 16.0491H159.743C160.038 16.0491 160.276 16.2872 160.276 16.5803V20.4922C162.009 16.7791 166.209 15.7178 168.874 15.7178C169.684 15.7178 170.493 15.8047 171.125 15.9434C171.369 15.9966 171.541 16.2128 171.541 16.4616V25.3459ZM135.352 48.4764V16.5811C135.352 16.288 135.591 16.0498 135.885 16.0498H144.95C145.244 16.0498 145.483 16.288 145.483 16.5811V48.4764C145.483 48.7696 145.244 49.0071 144.95 49.0071H135.885C135.591 49.0071 135.352 48.7696 135.352 48.4764ZM140.348 0.0683594C143.681 0.0683594 146.347 2.72084 146.347 5.96956C146.347 9.21891 143.681 11.8714 140.348 11.8714C137.149 11.8714 134.483 9.21891 134.483 5.96956C134.483 2.72084 137.149 0.0683594 140.348 0.0683594ZM103.07 29.91H113.781C113.965 29.91 114.093 29.73 114.033 29.5581L108.74 14.3776C108.657 14.1407 108.322 14.1395 108.237 14.3757L102.818 29.5562C102.757 29.7287 102.886 29.91 103.07 29.91ZM117.112 39.4581H99.6036C99.3773 39.4581 99.1761 39.5994 99.1011 39.8113L95.953 48.653C95.878 48.8649 95.6767 49.0068 95.4505 49.0068H85.5343C85.1612 49.0068 84.9037 48.6362 85.0349 48.2893L102.429 2.33531C102.507 2.12844 102.706 1.99219 102.928 1.99219H114.386C114.608 1.99219 114.808 2.12969 114.885 2.33719L132.084 48.2912C132.214 48.6381 131.956 49.0068 131.585 49.0068H121.265C121.039 49.0068 120.838 48.8649 120.762 48.653L117.615 39.8113C117.539 39.5994 117.338 39.4581 117.112 39.4581Z" fill="white"/>
<path fill-rule="evenodd" clip-rule="evenodd" d="M62.2992 17.6628C65.7436 16.2584 69.5342 17.0109 72.1948 19.6278C74.8541 22.2446 75.6991 26.0515 74.3991 29.5639L69.5048 42.8469C68.2192 46.3363 65.2917 49.0331 61.6717 49.7381C60.9999 49.8688 60.3274 49.9325 59.6636 49.9325C56.648 49.9325 53.8006 48.6113 51.8012 46.2175L22.4514 11.0878C22.1321 10.706 21.5233 10.8122 21.3496 11.2803L11.7959 37.0839C11.5984 37.617 12.1234 38.1332 12.6459 37.9201L24.3652 33.1389C27.1289 32.012 30.2889 33.4589 31.2389 36.3614C32.1057 39.012 30.6489 41.8763 28.087 42.9213L12.7772 49.1675C9.9428 50.3238 6.68595 50.1181 4.13472 48.4181C0.494128 45.9932 -0.892735 41.4313 0.579128 37.457L11.8628 6.9835C13.2003 3.3704 16.2459 0.820424 20.0096 0.16168C23.7733 -0.494565 27.4908 0.871049 29.9545 3.81915L46.8025 23.9852L62.2992 17.6628ZM60.0822 38.3675L63.256 29.757C63.4522 29.2238 62.9272 28.7082 62.4047 28.9213L53.8429 32.4144L58.9791 38.5619C59.2991 38.9444 59.9097 38.8375 60.0822 38.3675Z" fill="url(#paint0_linear_46_29320)"/>
<defs>
<linearGradient id="paint0_linear_46_29320" x1="0" y1="49.9325" x2="74.9996" y2="49.9325" gradientUnits="userSpaceOnUse">
<stop stop-color="#FF4F42"/>
<stop offset="1" stop-color="#FF8E3C"/>
</linearGradient>
</defs>
</svg>
