<svg width="848" height="272" viewBox="0 0 848 272" fill="none" xmlns="http://www.w3.org/2000/svg">
<rect x="326" y="99" width="196" height="108" fill="#04A591"/>
<path d="M391.702 145.004H393.934L397.318 154.616L396.994 154.49L399.55 147.92L400.432 150.53L396.904 158.612L391.702 145.004ZM398.038 145.004H399.946L403.654 154.454L403.276 154.382L406.444 145.004H408.496L403.384 158.576L398.038 145.004ZM412.491 158.18C411.615 158.18 410.865 158.012 410.241 157.676C409.617 157.328 409.137 156.854 408.801 156.254C408.465 155.642 408.297 154.946 408.297 154.166C408.297 153.422 408.483 152.75 408.855 152.15C409.239 151.538 409.749 151.052 410.385 150.692C411.033 150.332 411.747 150.152 412.527 150.152C413.535 150.152 414.369 150.446 415.029 151.034C415.701 151.622 416.151 152.444 416.379 153.5L410.241 155.624L409.809 154.544L414.723 152.78L414.345 153.014C414.201 152.642 413.973 152.318 413.661 152.042C413.349 151.754 412.923 151.61 412.383 151.61C411.951 151.61 411.561 151.718 411.213 151.934C410.877 152.138 410.607 152.426 410.403 152.798C410.211 153.158 410.115 153.584 410.115 154.076C410.115 154.58 410.217 155.024 410.421 155.408C410.637 155.78 410.925 156.074 411.285 156.29C411.657 156.506 412.071 156.614 412.527 156.614C412.851 156.614 413.157 156.554 413.445 156.434C413.745 156.314 414.027 156.164 414.291 155.984L415.137 157.352C414.741 157.604 414.309 157.808 413.841 157.964C413.385 158.108 412.935 158.18 412.491 158.18ZM423.118 158.18C422.434 158.18 421.834 158.042 421.318 157.766C420.814 157.478 420.406 157.118 420.094 156.686L420.292 156.164V158H418.438V144.014H420.274V152.096L420.238 151.43C420.526 151.046 420.946 150.734 421.498 150.494C422.05 150.254 422.668 150.134 423.352 150.134C424.024 150.134 424.636 150.296 425.188 150.62C425.752 150.944 426.196 151.406 426.52 152.006C426.856 152.594 427.024 153.296 427.024 154.112C427.024 154.952 426.844 155.678 426.484 156.29C426.124 156.902 425.644 157.37 425.044 157.694C424.456 158.018 423.814 158.18 423.118 158.18ZM422.722 156.614C423.178 156.614 423.586 156.506 423.946 156.29C424.318 156.074 424.612 155.774 424.828 155.39C425.044 155.006 425.152 154.574 425.152 154.094C425.152 153.626 425.044 153.206 424.828 152.834C424.612 152.462 424.318 152.168 423.946 151.952C423.586 151.724 423.178 151.61 422.722 151.61C422.326 151.61 421.96 151.682 421.624 151.826C421.288 151.97 421.006 152.168 420.778 152.42C420.55 152.672 420.388 152.966 420.292 153.302V154.904C420.388 155.24 420.55 155.54 420.778 155.804C421.006 156.056 421.282 156.254 421.606 156.398C421.942 156.542 422.314 156.614 422.722 156.614ZM431.409 158.162C430.857 158.162 430.323 158.066 429.807 157.874C429.291 157.67 428.865 157.376 428.529 156.992L429.321 155.948C429.645 156.248 429.969 156.476 430.293 156.632C430.629 156.776 430.947 156.848 431.247 156.848C431.487 156.848 431.703 156.824 431.895 156.776C432.087 156.716 432.243 156.62 432.363 156.488C432.483 156.356 432.543 156.182 432.543 155.966C432.543 155.714 432.459 155.516 432.291 155.372C432.123 155.228 431.907 155.108 431.643 155.012C431.379 154.916 431.097 154.826 430.797 154.742C430.161 154.538 429.681 154.25 429.357 153.878C429.033 153.494 428.871 153.044 428.871 152.528C428.871 152.132 428.967 151.76 429.159 151.412C429.363 151.052 429.669 150.758 430.077 150.53C430.485 150.302 430.989 150.188 431.589 150.188C432.141 150.188 432.627 150.254 433.047 150.386C433.467 150.506 433.857 150.716 434.217 151.016L433.497 152.132C433.281 151.916 433.023 151.754 432.723 151.646C432.435 151.526 432.171 151.46 431.931 151.448C431.715 151.448 431.517 151.484 431.337 151.556C431.157 151.616 431.013 151.712 430.905 151.844C430.797 151.964 430.743 152.108 430.743 152.276C430.731 152.516 430.809 152.714 430.977 152.87C431.157 153.014 431.385 153.134 431.661 153.23C431.937 153.314 432.207 153.404 432.471 153.5C432.843 153.608 433.173 153.758 433.461 153.95C433.749 154.13 433.977 154.352 434.145 154.616C434.313 154.88 434.397 155.216 434.397 155.624C434.397 156.068 434.289 156.488 434.073 156.884C433.857 157.268 433.527 157.58 433.083 157.82C432.639 158.048 432.081 158.162 431.409 158.162ZM436.684 150.458H438.538V158H436.684V150.458ZM436.576 147.758C436.576 147.47 436.69 147.23 436.918 147.038C437.146 146.846 437.392 146.75 437.656 146.75C437.932 146.75 438.178 146.846 438.394 147.038C438.61 147.23 438.718 147.47 438.718 147.758C438.718 148.046 438.61 148.286 438.394 148.478C438.178 148.658 437.932 148.748 437.656 148.748C437.392 148.748 437.146 148.658 436.918 148.478C436.69 148.286 436.576 148.046 436.576 147.758ZM442.08 147.146H443.934V150.476H445.95V151.934H443.934V158H442.08V151.934H440.748V150.476H442.08V147.146ZM451.497 158.18C450.621 158.18 449.871 158.012 449.247 157.676C448.623 157.328 448.143 156.854 447.807 156.254C447.471 155.642 447.303 154.946 447.303 154.166C447.303 153.422 447.489 152.75 447.861 152.15C448.245 151.538 448.755 151.052 449.391 150.692C450.039 150.332 450.753 150.152 451.533 150.152C452.541 150.152 453.375 150.446 454.035 151.034C454.707 151.622 455.157 152.444 455.385 153.5L449.247 155.624L448.815 154.544L453.729 152.78L453.351 153.014C453.207 152.642 452.979 152.318 452.667 152.042C452.355 151.754 451.929 151.61 451.389 151.61C450.957 151.61 450.567 151.718 450.219 151.934C449.883 152.138 449.613 152.426 449.409 152.798C449.217 153.158 449.121 153.584 449.121 154.076C449.121 154.58 449.223 155.024 449.427 155.408C449.643 155.78 449.931 156.074 450.291 156.29C450.663 156.506 451.077 156.614 451.533 156.614C451.857 156.614 452.163 156.554 452.451 156.434C452.751 156.314 453.033 156.164 453.297 155.984L454.143 157.352C453.747 157.604 453.315 157.808 452.847 157.964C452.391 158.108 451.941 158.18 451.497 158.18Z" fill="white"/>
<rect width="190" height="74" transform="translate(0 75)" fill="#C6F5F0"/>
<path d="M38.436 103.932C39.408 103.932 40.236 104.1 40.92 104.436C41.616 104.76 42.144 105.228 42.504 105.84C42.876 106.452 43.062 107.196 43.062 108.072C43.062 108.588 42.984 109.098 42.828 109.602C42.672 110.106 42.42 110.568 42.072 110.988C41.736 111.396 41.286 111.726 40.722 111.978C40.158 112.218 39.474 112.338 38.67 112.338H36.762V117H34.836V103.932H38.436ZM38.67 110.484C39.15 110.484 39.552 110.406 39.876 110.25C40.2 110.082 40.452 109.872 40.632 109.62C40.824 109.368 40.956 109.11 41.028 108.846C41.112 108.57 41.154 108.324 41.154 108.108C41.154 107.868 41.112 107.616 41.028 107.352C40.956 107.076 40.83 106.824 40.65 106.596C40.47 106.356 40.224 106.164 39.912 106.02C39.6 105.864 39.21 105.786 38.742 105.786H36.762V110.484H38.67ZM44.6197 113.148C44.6197 112.392 44.7997 111.714 45.1597 111.114C45.5197 110.502 46.0177 110.022 46.6537 109.674C47.2897 109.326 48.0157 109.152 48.8317 109.152C49.6597 109.152 50.3857 109.326 51.0097 109.674C51.6337 110.022 52.1137 110.502 52.4497 111.114C52.7977 111.714 52.9717 112.392 52.9717 113.148C52.9717 113.904 52.7977 114.588 52.4497 115.2C52.1137 115.812 51.6337 116.298 51.0097 116.658C50.3857 117.006 49.6537 117.18 48.8137 117.18C48.0097 117.18 47.2897 117.018 46.6537 116.694C46.0297 116.37 45.5317 115.908 45.1597 115.308C44.7997 114.696 44.6197 113.976 44.6197 113.148ZM46.4917 113.166C46.4917 113.634 46.5937 114.06 46.7977 114.444C47.0017 114.816 47.2777 115.116 47.6257 115.344C47.9737 115.56 48.3637 115.668 48.7957 115.668C49.2397 115.668 49.6357 115.56 49.9837 115.344C50.3317 115.116 50.6017 114.816 50.7937 114.444C50.9977 114.06 51.0997 113.634 51.0997 113.166C51.0997 112.698 50.9977 112.278 50.7937 111.906C50.6017 111.534 50.3317 111.234 49.9837 111.006C49.6357 110.778 49.2397 110.664 48.7957 110.664C48.3517 110.664 47.9557 110.778 47.6077 111.006C47.2597 111.234 46.9837 111.54 46.7797 111.924C46.5877 112.296 46.4917 112.71 46.4917 113.166ZM55.8842 106.146H57.7382V109.476H59.7542V110.934H57.7382V117H55.8842V110.934H54.5522V109.476H55.8842V106.146ZM65.302 117.18C64.426 117.18 63.676 117.012 63.052 116.676C62.428 116.328 61.948 115.854 61.612 115.254C61.276 114.642 61.108 113.946 61.108 113.166C61.108 112.422 61.294 111.75 61.666 111.15C62.05 110.538 62.56 110.052 63.196 109.692C63.844 109.332 64.558 109.152 65.338 109.152C66.346 109.152 67.18 109.446 67.84 110.034C68.512 110.622 68.962 111.444 69.19 112.5L63.052 114.624L62.62 113.544L67.534 111.78L67.156 112.014C67.012 111.642 66.784 111.318 66.472 111.042C66.16 110.754 65.734 110.61 65.194 110.61C64.762 110.61 64.372 110.718 64.024 110.934C63.688 111.138 63.418 111.426 63.214 111.798C63.022 112.158 62.926 112.584 62.926 113.076C62.926 113.58 63.028 114.024 63.232 114.408C63.448 114.78 63.736 115.074 64.096 115.29C64.468 115.506 64.882 115.614 65.338 115.614C65.662 115.614 65.968 115.554 66.256 115.434C66.556 115.314 66.838 115.164 67.102 114.984L67.948 116.352C67.552 116.604 67.12 116.808 66.652 116.964C66.196 117.108 65.746 117.18 65.302 117.18ZM72.9042 109.458L73.0662 111.186L72.9942 110.952C73.2462 110.412 73.6362 109.98 74.1642 109.656C74.6922 109.32 75.3162 109.152 76.0362 109.152C76.7442 109.152 77.3262 109.362 77.7822 109.782C78.2502 110.202 78.4902 110.748 78.5022 111.42V117H76.6482V112.068C76.6362 111.684 76.5222 111.372 76.3062 111.132C76.0902 110.88 75.7542 110.748 75.2982 110.736C74.8902 110.736 74.5182 110.862 74.1822 111.114C73.8462 111.354 73.5822 111.684 73.3902 112.104C73.1982 112.524 73.1022 113.01 73.1022 113.562V117H71.2482V109.458H72.9042ZM82.058 106.146H83.912V109.476H85.928V110.934H83.912V117H82.058V110.934H80.726V109.476H82.058V106.146ZM87.9298 109.458H89.7838V117H87.9298V109.458ZM87.8218 106.758C87.8218 106.47 87.9358 106.23 88.1638 106.038C88.3918 105.846 88.6378 105.75 88.9018 105.75C89.1778 105.75 89.4238 105.846 89.6398 106.038C89.8558 106.23 89.9638 106.47 89.9638 106.758C89.9638 107.046 89.8558 107.286 89.6398 107.478C89.4238 107.658 89.1778 107.748 88.9018 107.748C88.6378 107.748 88.3918 107.658 88.1638 107.478C87.9358 107.286 87.8218 107.046 87.8218 106.758ZM95.7556 117.18C95.0476 117.18 94.4056 117.036 93.8296 116.748C93.2536 116.448 92.7976 116.004 92.4616 115.416C92.1256 114.828 91.9576 114.102 91.9576 113.238C91.9576 112.386 92.1316 111.654 92.4796 111.042C92.8396 110.43 93.3076 109.962 93.8836 109.638C94.4716 109.302 95.1076 109.134 95.7916 109.134C96.5116 109.134 97.0996 109.29 97.5556 109.602C98.0236 109.902 98.3896 110.256 98.6536 110.664L98.5276 110.952L98.7076 109.458H100.418V117H98.5636V115.11L98.7616 115.56C98.7136 115.656 98.6116 115.794 98.4556 115.974C98.2996 116.142 98.0896 116.322 97.8256 116.514C97.5736 116.706 97.2736 116.868 96.9256 117C96.5896 117.12 96.1996 117.18 95.7556 117.18ZM96.2596 115.668C96.6556 115.668 97.0096 115.596 97.3216 115.452C97.6336 115.308 97.8976 115.104 98.1136 114.84C98.3296 114.576 98.4796 114.264 98.5636 113.904V112.338C98.4676 112.002 98.3056 111.714 98.0776 111.474C97.8496 111.222 97.5736 111.024 97.2496 110.88C96.9376 110.736 96.5896 110.664 96.2056 110.664C95.7736 110.664 95.3776 110.772 95.0176 110.988C94.6576 111.192 94.3696 111.48 94.1536 111.852C93.9376 112.224 93.8296 112.656 93.8296 113.148C93.8296 113.616 93.9376 114.042 94.1536 114.426C94.3816 114.81 94.6816 115.116 95.0536 115.344C95.4256 115.56 95.8276 115.668 96.2596 115.668ZM103.258 103.014H105.112V117H103.258V103.014ZM116.076 117.306C115.38 117.306 114.81 117.096 114.366 116.676C113.922 116.256 113.688 115.716 113.664 115.056V109.458H115.518V114.39C115.542 114.774 115.65 115.092 115.842 115.344C116.046 115.584 116.37 115.71 116.814 115.722C117.222 115.722 117.582 115.602 117.894 115.362C118.218 115.11 118.47 114.774 118.65 114.354C118.842 113.922 118.938 113.43 118.938 112.878V109.458H120.792V117H119.118L118.974 115.254L119.046 115.542C118.89 115.878 118.668 116.184 118.38 116.46C118.092 116.724 117.75 116.928 117.354 117.072C116.958 117.228 116.532 117.306 116.076 117.306ZM125.827 117.162C125.275 117.162 124.741 117.066 124.225 116.874C123.709 116.67 123.283 116.376 122.947 115.992L123.739 114.948C124.063 115.248 124.387 115.476 124.711 115.632C125.047 115.776 125.365 115.848 125.665 115.848C125.905 115.848 126.121 115.824 126.313 115.776C126.505 115.716 126.661 115.62 126.781 115.488C126.901 115.356 126.961 115.182 126.961 114.966C126.961 114.714 126.877 114.516 126.709 114.372C126.541 114.228 126.325 114.108 126.061 114.012C125.797 113.916 125.515 113.826 125.215 113.742C124.579 113.538 124.099 113.25 123.775 112.878C123.451 112.494 123.289 112.044 123.289 111.528C123.289 111.132 123.385 110.76 123.577 110.412C123.781 110.052 124.087 109.758 124.495 109.53C124.903 109.302 125.407 109.188 126.007 109.188C126.559 109.188 127.045 109.254 127.465 109.386C127.885 109.506 128.275 109.716 128.635 110.016L127.915 111.132C127.699 110.916 127.441 110.754 127.141 110.646C126.853 110.526 126.589 110.46 126.349 110.448C126.133 110.448 125.935 110.484 125.755 110.556C125.575 110.616 125.431 110.712 125.323 110.844C125.215 110.964 125.161 111.108 125.161 111.276C125.149 111.516 125.227 111.714 125.395 111.87C125.575 112.014 125.803 112.134 126.079 112.23C126.355 112.314 126.625 112.404 126.889 112.5C127.261 112.608 127.591 112.758 127.879 112.95C128.167 113.13 128.395 113.352 128.563 113.616C128.731 113.88 128.815 114.216 128.815 114.624C128.815 115.068 128.707 115.488 128.491 115.884C128.275 116.268 127.945 116.58 127.501 116.82C127.057 117.048 126.499 117.162 125.827 117.162ZM134.648 117.18C133.772 117.18 133.022 117.012 132.398 116.676C131.774 116.328 131.294 115.854 130.958 115.254C130.622 114.642 130.454 113.946 130.454 113.166C130.454 112.422 130.64 111.75 131.012 111.15C131.396 110.538 131.906 110.052 132.542 109.692C133.19 109.332 133.904 109.152 134.684 109.152C135.692 109.152 136.526 109.446 137.186 110.034C137.858 110.622 138.308 111.444 138.536 112.5L132.398 114.624L131.966 113.544L136.88 111.78L136.502 112.014C136.358 111.642 136.13 111.318 135.818 111.042C135.506 110.754 135.08 110.61 134.54 110.61C134.108 110.61 133.718 110.718 133.37 110.934C133.034 111.138 132.764 111.426 132.56 111.798C132.368 112.158 132.272 112.584 132.272 113.076C132.272 113.58 132.374 114.024 132.578 114.408C132.794 114.78 133.082 115.074 133.442 115.29C133.814 115.506 134.228 115.614 134.684 115.614C135.008 115.614 135.314 115.554 135.602 115.434C135.902 115.314 136.184 115.164 136.448 114.984L137.294 116.352C136.898 116.604 136.466 116.808 135.998 116.964C135.542 117.108 135.092 117.18 134.648 117.18ZM142.25 109.458L142.43 111.618L142.34 111.33C142.544 110.874 142.832 110.484 143.204 110.16C143.576 109.836 143.96 109.59 144.356 109.422C144.764 109.242 145.106 109.152 145.382 109.152L145.292 110.988C144.716 110.952 144.212 111.06 143.78 111.312C143.36 111.564 143.03 111.9 142.79 112.32C142.55 112.74 142.43 113.19 142.43 113.67V117H140.594V109.458H142.25ZM149.681 117.162C149.129 117.162 148.595 117.066 148.079 116.874C147.563 116.67 147.137 116.376 146.801 115.992L147.593 114.948C147.917 115.248 148.241 115.476 148.565 115.632C148.901 115.776 149.219 115.848 149.519 115.848C149.759 115.848 149.975 115.824 150.167 115.776C150.359 115.716 150.515 115.62 150.635 115.488C150.755 115.356 150.814 115.182 150.814 114.966C150.814 114.714 150.73 114.516 150.562 114.372C150.395 114.228 150.179 114.108 149.915 114.012C149.651 113.916 149.369 113.826 149.069 113.742C148.433 113.538 147.953 113.25 147.629 112.878C147.305 112.494 147.143 112.044 147.143 111.528C147.143 111.132 147.239 110.76 147.431 110.412C147.635 110.052 147.941 109.758 148.349 109.53C148.757 109.302 149.261 109.188 149.861 109.188C150.413 109.188 150.899 109.254 151.319 109.386C151.739 109.506 152.129 109.716 152.489 110.016L151.769 111.132C151.553 110.916 151.295 110.754 150.995 110.646C150.707 110.526 150.443 110.46 150.203 110.448C149.987 110.448 149.789 110.484 149.609 110.556C149.429 110.616 149.285 110.712 149.177 110.844C149.069 110.964 149.015 111.108 149.015 111.276C149.003 111.516 149.081 111.714 149.249 111.87C149.429 112.014 149.657 112.134 149.933 112.23C150.209 112.314 150.479 112.404 150.743 112.5C151.115 112.608 151.445 112.758 151.733 112.95C152.021 113.13 152.249 113.352 152.417 113.616C152.585 113.88 152.669 114.216 152.669 114.624C152.669 115.068 152.561 115.488 152.345 115.884C152.129 116.268 151.799 116.58 151.354 116.82C150.91 117.048 150.353 117.162 149.681 117.162Z" fill="black"/>
<rect width="190" height="74" transform="translate(0 161)" fill="#C6F5F0"/>
<path d="M24.436 189.932C25.408 189.932 26.236 190.1 26.92 190.436C27.616 190.76 28.144 191.228 28.504 191.84C28.876 192.452 29.062 193.196 29.062 194.072C29.062 194.588 28.984 195.098 28.828 195.602C28.672 196.106 28.42 196.568 28.072 196.988C27.736 197.396 27.286 197.726 26.722 197.978C26.158 198.218 25.474 198.338 24.67 198.338H22.762V203H20.836V189.932H24.436ZM24.67 196.484C25.15 196.484 25.552 196.406 25.876 196.25C26.2 196.082 26.452 195.872 26.632 195.62C26.824 195.368 26.956 195.11 27.028 194.846C27.112 194.57 27.154 194.324 27.154 194.108C27.154 193.868 27.112 193.616 27.028 193.352C26.956 193.076 26.83 192.824 26.65 192.596C26.47 192.356 26.224 192.164 25.912 192.02C25.6 191.864 25.21 191.786 24.742 191.786H22.762V196.484H24.67ZM30.6197 199.148C30.6197 198.392 30.7997 197.714 31.1597 197.114C31.5197 196.502 32.0177 196.022 32.6537 195.674C33.2897 195.326 34.0157 195.152 34.8317 195.152C35.6597 195.152 36.3857 195.326 37.0097 195.674C37.6337 196.022 38.1137 196.502 38.4497 197.114C38.7977 197.714 38.9717 198.392 38.9717 199.148C38.9717 199.904 38.7977 200.588 38.4497 201.2C38.1137 201.812 37.6337 202.298 37.0097 202.658C36.3857 203.006 35.6537 203.18 34.8137 203.18C34.0097 203.18 33.2897 203.018 32.6537 202.694C32.0297 202.37 31.5317 201.908 31.1597 201.308C30.7997 200.696 30.6197 199.976 30.6197 199.148ZM32.4917 199.166C32.4917 199.634 32.5937 200.06 32.7977 200.444C33.0017 200.816 33.2777 201.116 33.6257 201.344C33.9737 201.56 34.3637 201.668 34.7957 201.668C35.2397 201.668 35.6357 201.56 35.9837 201.344C36.3317 201.116 36.6017 200.816 36.7937 200.444C36.9977 200.06 37.0997 199.634 37.0997 199.166C37.0997 198.698 36.9977 198.278 36.7937 197.906C36.6017 197.534 36.3317 197.234 35.9837 197.006C35.6357 196.778 35.2397 196.664 34.7957 196.664C34.3517 196.664 33.9557 196.778 33.6077 197.006C33.2597 197.234 32.9837 197.54 32.7797 197.924C32.5877 198.296 32.4917 198.71 32.4917 199.166ZM41.8842 192.146H43.7382V195.476H45.7542V196.934H43.7382V203H41.8842V196.934H40.5522V195.476H41.8842V192.146ZM51.302 203.18C50.426 203.18 49.676 203.012 49.052 202.676C48.428 202.328 47.948 201.854 47.612 201.254C47.276 200.642 47.108 199.946 47.108 199.166C47.108 198.422 47.294 197.75 47.666 197.15C48.05 196.538 48.56 196.052 49.196 195.692C49.844 195.332 50.558 195.152 51.338 195.152C52.346 195.152 53.18 195.446 53.84 196.034C54.512 196.622 54.962 197.444 55.19 198.5L49.052 200.624L48.62 199.544L53.534 197.78L53.156 198.014C53.012 197.642 52.784 197.318 52.472 197.042C52.16 196.754 51.734 196.61 51.194 196.61C50.762 196.61 50.372 196.718 50.024 196.934C49.688 197.138 49.418 197.426 49.214 197.798C49.022 198.158 48.926 198.584 48.926 199.076C48.926 199.58 49.028 200.024 49.232 200.408C49.448 200.78 49.736 201.074 50.096 201.29C50.468 201.506 50.882 201.614 51.338 201.614C51.662 201.614 51.968 201.554 52.256 201.434C52.556 201.314 52.838 201.164 53.102 200.984L53.948 202.352C53.552 202.604 53.12 202.808 52.652 202.964C52.196 203.108 51.746 203.18 51.302 203.18ZM58.9042 195.458L59.0662 197.186L58.9942 196.952C59.2462 196.412 59.6362 195.98 60.1642 195.656C60.6922 195.32 61.3162 195.152 62.0362 195.152C62.7442 195.152 63.3262 195.362 63.7822 195.782C64.2502 196.202 64.4902 196.748 64.5022 197.42V203H62.6482V198.068C62.6362 197.684 62.5222 197.372 62.3062 197.132C62.0902 196.88 61.7542 196.748 61.2982 196.736C60.8902 196.736 60.5182 196.862 60.1822 197.114C59.8462 197.354 59.5822 197.684 59.3902 198.104C59.1982 198.524 59.1022 199.01 59.1022 199.562V203H57.2482V195.458H58.9042ZM68.058 192.146H69.912V195.476H71.928V196.934H69.912V203H68.058V196.934H66.726V195.476H68.058V192.146ZM73.9298 195.458H75.7838V203H73.9298V195.458ZM73.8218 192.758C73.8218 192.47 73.9358 192.23 74.1638 192.038C74.3918 191.846 74.6378 191.75 74.9018 191.75C75.1778 191.75 75.4238 191.846 75.6398 192.038C75.8558 192.23 75.9638 192.47 75.9638 192.758C75.9638 193.046 75.8558 193.286 75.6398 193.478C75.4238 193.658 75.1778 193.748 74.9018 193.748C74.6378 193.748 74.3918 193.658 74.1638 193.478C73.9358 193.286 73.8218 193.046 73.8218 192.758ZM81.7556 203.18C81.0476 203.18 80.4056 203.036 79.8296 202.748C79.2536 202.448 78.7976 202.004 78.4616 201.416C78.1256 200.828 77.9576 200.102 77.9576 199.238C77.9576 198.386 78.1316 197.654 78.4796 197.042C78.8396 196.43 79.3076 195.962 79.8836 195.638C80.4716 195.302 81.1076 195.134 81.7916 195.134C82.5116 195.134 83.0996 195.29 83.5556 195.602C84.0236 195.902 84.3896 196.256 84.6536 196.664L84.5276 196.952L84.7076 195.458H86.4176V203H84.5636V201.11L84.7616 201.56C84.7136 201.656 84.6116 201.794 84.4556 201.974C84.2996 202.142 84.0896 202.322 83.8256 202.514C83.5736 202.706 83.2736 202.868 82.9256 203C82.5896 203.12 82.1996 203.18 81.7556 203.18ZM82.2596 201.668C82.6556 201.668 83.0096 201.596 83.3216 201.452C83.6336 201.308 83.8976 201.104 84.1136 200.84C84.3296 200.576 84.4796 200.264 84.5636 199.904V198.338C84.4676 198.002 84.3056 197.714 84.0776 197.474C83.8496 197.222 83.5736 197.024 83.2496 196.88C82.9376 196.736 82.5896 196.664 82.2056 196.664C81.7736 196.664 81.3776 196.772 81.0176 196.988C80.6576 197.192 80.3696 197.48 80.1536 197.852C79.9376 198.224 79.8296 198.656 79.8296 199.148C79.8296 199.616 79.9376 200.042 80.1536 200.426C80.3816 200.81 80.6816 201.116 81.0536 201.344C81.4256 201.56 81.8276 201.668 82.2596 201.668ZM89.2579 189.014H91.1119V203H89.2579V189.014ZM99.6642 195.458H101.518V203H99.6642V195.458ZM99.5562 192.758C99.5562 192.47 99.6702 192.23 99.8982 192.038C100.126 191.846 100.372 191.75 100.636 191.75C100.912 191.75 101.158 191.846 101.374 192.038C101.59 192.23 101.698 192.47 101.698 192.758C101.698 193.046 101.59 193.286 101.374 193.478C101.158 193.658 100.912 193.748 100.636 193.748C100.372 193.748 100.126 193.658 99.8982 193.478C99.6702 193.286 99.5562 193.046 99.5562 192.758ZM105.996 195.458L106.158 197.186L106.086 196.952C106.338 196.412 106.728 195.98 107.256 195.656C107.784 195.32 108.408 195.152 109.128 195.152C109.836 195.152 110.418 195.362 110.874 195.782C111.342 196.202 111.582 196.748 111.594 197.42V203H109.74V198.068C109.728 197.684 109.614 197.372 109.398 197.132C109.182 196.88 108.846 196.748 108.39 196.736C107.982 196.736 107.61 196.862 107.274 197.114C106.938 197.354 106.674 197.684 106.482 198.104C106.29 198.524 106.194 199.01 106.194 199.562V203H104.34V195.458H105.996ZM117.299 203.198L113.033 195.458H115.229L118.001 201.29L116.867 201.236L119.387 195.458H121.457L117.371 203.198H117.299ZM126.536 203.18C125.66 203.18 124.91 203.012 124.286 202.676C123.662 202.328 123.182 201.854 122.846 201.254C122.51 200.642 122.342 199.946 122.342 199.166C122.342 198.422 122.528 197.75 122.9 197.15C123.284 196.538 123.794 196.052 124.43 195.692C125.078 195.332 125.792 195.152 126.572 195.152C127.58 195.152 128.414 195.446 129.074 196.034C129.746 196.622 130.196 197.444 130.424 198.5L124.286 200.624L123.854 199.544L128.768 197.78L128.39 198.014C128.246 197.642 128.018 197.318 127.706 197.042C127.394 196.754 126.968 196.61 126.428 196.61C125.996 196.61 125.606 196.718 125.258 196.934C124.922 197.138 124.652 197.426 124.448 197.798C124.256 198.158 124.16 198.584 124.16 199.076C124.16 199.58 124.262 200.024 124.466 200.408C124.682 200.78 124.97 201.074 125.33 201.29C125.702 201.506 126.116 201.614 126.572 201.614C126.896 201.614 127.202 201.554 127.49 201.434C127.79 201.314 128.072 201.164 128.336 200.984L129.182 202.352C128.786 202.604 128.354 202.808 127.886 202.964C127.43 203.108 126.98 203.18 126.536 203.18ZM134.679 203.162C134.127 203.162 133.593 203.066 133.077 202.874C132.561 202.67 132.135 202.376 131.799 201.992L132.591 200.948C132.915 201.248 133.239 201.476 133.563 201.632C133.899 201.776 134.217 201.848 134.517 201.848C134.757 201.848 134.973 201.824 135.165 201.776C135.357 201.716 135.513 201.62 135.633 201.488C135.753 201.356 135.813 201.182 135.813 200.966C135.813 200.714 135.729 200.516 135.561 200.372C135.393 200.228 135.177 200.108 134.913 200.012C134.649 199.916 134.367 199.826 134.067 199.742C133.431 199.538 132.951 199.25 132.627 198.878C132.303 198.494 132.141 198.044 132.141 197.528C132.141 197.132 132.237 196.76 132.429 196.412C132.633 196.052 132.939 195.758 133.347 195.53C133.755 195.302 134.259 195.188 134.859 195.188C135.411 195.188 135.897 195.254 136.317 195.386C136.737 195.506 137.127 195.716 137.487 196.016L136.767 197.132C136.551 196.916 136.293 196.754 135.993 196.646C135.705 196.526 135.441 196.46 135.201 196.448C134.985 196.448 134.787 196.484 134.607 196.556C134.427 196.616 134.283 196.712 134.175 196.844C134.067 196.964 134.013 197.108 134.013 197.276C134.001 197.516 134.079 197.714 134.247 197.87C134.427 198.014 134.655 198.134 134.931 198.23C135.207 198.314 135.477 198.404 135.741 198.5C136.113 198.608 136.443 198.758 136.731 198.95C137.019 199.13 137.247 199.352 137.415 199.616C137.583 199.88 137.667 200.216 137.667 200.624C137.667 201.068 137.559 201.488 137.343 201.884C137.127 202.268 136.797 202.58 136.353 202.82C135.909 203.048 135.351 203.162 134.679 203.162ZM140.673 192.146H142.527V195.476H144.543V196.934H142.527V203H140.673V196.934H139.341V195.476H140.673V192.146ZM145.897 199.148C145.897 198.392 146.077 197.714 146.437 197.114C146.797 196.502 147.295 196.022 147.931 195.674C148.567 195.326 149.293 195.152 150.109 195.152C150.937 195.152 151.663 195.326 152.287 195.674C152.911 196.022 153.391 196.502 153.727 197.114C154.075 197.714 154.249 198.392 154.249 199.148C154.249 199.904 154.075 200.588 153.727 201.2C153.391 201.812 152.911 202.298 152.287 202.658C151.663 203.006 150.931 203.18 150.091 203.18C149.287 203.18 148.567 203.018 147.931 202.694C147.307 202.37 146.809 201.908 146.437 201.308C146.077 200.696 145.897 199.976 145.897 199.148ZM147.769 199.166C147.769 199.634 147.871 200.06 148.075 200.444C148.279 200.816 148.555 201.116 148.903 201.344C149.251 201.56 149.641 201.668 150.073 201.668C150.517 201.668 150.913 201.56 151.261 201.344C151.609 201.116 151.879 200.816 152.071 200.444C152.275 200.06 152.377 199.634 152.377 199.166C152.377 198.698 152.275 198.278 152.071 197.906C151.879 197.534 151.609 197.234 151.261 197.006C150.913 196.778 150.517 196.664 150.073 196.664C149.629 196.664 149.233 196.778 148.885 197.006C148.537 197.234 148.261 197.54 148.057 197.924C147.865 198.296 147.769 198.71 147.769 199.166ZM158.098 195.458L158.278 197.618L158.188 197.33C158.392 196.874 158.68 196.484 159.052 196.16C159.424 195.836 159.808 195.59 160.204 195.422C160.612 195.242 160.954 195.152 161.23 195.152L161.14 196.988C160.564 196.952 160.06 197.06 159.628 197.312C159.208 197.564 158.878 197.9 158.638 198.32C158.398 198.74 158.278 199.19 158.278 199.67V203H156.442V195.458H158.098ZM165.528 203.162C164.976 203.162 164.442 203.066 163.926 202.874C163.41 202.67 162.984 202.376 162.648 201.992L163.44 200.948C163.764 201.248 164.088 201.476 164.412 201.632C164.748 201.776 165.066 201.848 165.366 201.848C165.606 201.848 165.822 201.824 166.014 201.776C166.206 201.716 166.362 201.62 166.482 201.488C166.602 201.356 166.662 201.182 166.662 200.966C166.662 200.714 166.578 200.516 166.41 200.372C166.242 200.228 166.026 200.108 165.762 200.012C165.498 199.916 165.216 199.826 164.916 199.742C164.28 199.538 163.8 199.25 163.476 198.878C163.152 198.494 162.99 198.044 162.99 197.528C162.99 197.132 163.086 196.76 163.278 196.412C163.482 196.052 163.788 195.758 164.196 195.53C164.604 195.302 165.108 195.188 165.708 195.188C166.26 195.188 166.746 195.254 167.166 195.386C167.586 195.506 167.976 195.716 168.336 196.016L167.616 197.132C167.4 196.916 167.142 196.754 166.842 196.646C166.554 196.526 166.29 196.46 166.05 196.448C165.834 196.448 165.636 196.484 165.456 196.556C165.276 196.616 165.132 196.712 165.024 196.844C164.916 196.964 164.862 197.108 164.862 197.276C164.85 197.516 164.928 197.714 165.096 197.87C165.276 198.014 165.504 198.134 165.78 198.23C166.056 198.314 166.326 198.404 166.59 198.5C166.962 198.608 167.292 198.758 167.58 198.95C167.868 199.13 168.096 199.352 168.264 199.616C168.432 199.88 168.516 200.216 168.516 200.624C168.516 201.068 168.408 201.488 168.192 201.884C167.976 202.268 167.646 202.58 167.202 202.82C166.758 203.048 166.2 203.162 165.528 203.162Z" fill="black"/>
<rect width="190" height="74" transform="translate(658 34)" fill="#C6F5F0"/>
<path d="M692.836 76V62.5H692.854L699.802 72.346L698.974 72.166L705.886 62.5H705.922V76H704.014V66.838L704.14 67.828L699.316 74.65H699.28L694.366 67.828L694.69 66.928V76H692.836ZM712.324 76.18C711.616 76.18 710.974 76.036 710.398 75.748C709.822 75.448 709.366 75.004 709.03 74.416C708.694 73.828 708.526 73.102 708.526 72.238C708.526 71.386 708.7 70.654 709.048 70.042C709.408 69.43 709.876 68.962 710.452 68.638C711.04 68.302 711.676 68.134 712.36 68.134C713.08 68.134 713.668 68.29 714.124 68.602C714.592 68.902 714.958 69.256 715.222 69.664L715.096 69.952L715.276 68.458H716.986V76H715.132V74.11L715.33 74.56C715.282 74.656 715.18 74.794 715.024 74.974C714.868 75.142 714.658 75.322 714.394 75.514C714.142 75.706 713.842 75.868 713.494 76C713.158 76.12 712.768 76.18 712.324 76.18ZM712.828 74.668C713.224 74.668 713.578 74.596 713.89 74.452C714.202 74.308 714.466 74.104 714.682 73.84C714.898 73.576 715.048 73.264 715.132 72.904V71.338C715.036 71.002 714.874 70.714 714.646 70.474C714.418 70.222 714.142 70.024 713.818 69.88C713.506 69.736 713.158 69.664 712.774 69.664C712.342 69.664 711.946 69.772 711.586 69.988C711.226 70.192 710.938 70.48 710.722 70.852C710.506 71.224 710.398 71.656 710.398 72.148C710.398 72.616 710.506 73.042 710.722 73.426C710.95 73.81 711.25 74.116 711.622 74.344C711.994 74.56 712.396 74.668 712.828 74.668ZM721.482 68.458L721.662 70.618L721.572 70.33C721.776 69.874 722.064 69.484 722.436 69.16C722.808 68.836 723.192 68.59 723.588 68.422C723.996 68.242 724.338 68.152 724.614 68.152L724.524 69.988C723.948 69.952 723.444 70.06 723.012 70.312C722.592 70.564 722.262 70.9 722.022 71.32C721.782 71.74 721.662 72.19 721.662 72.67V76H719.826V68.458H721.482ZM726.717 76V62.014H728.571V76H726.717ZM730.407 70.96L733.863 76H731.703L729.183 72.022L730.407 70.96ZM727.995 73.678L727.815 71.896L732.387 68.296L733.521 69.286L727.995 73.678ZM739.14 76.18C738.264 76.18 737.514 76.012 736.89 75.676C736.266 75.328 735.786 74.854 735.45 74.254C735.114 73.642 734.946 72.946 734.946 72.166C734.946 71.422 735.132 70.75 735.504 70.15C735.888 69.538 736.398 69.052 737.034 68.692C737.682 68.332 738.396 68.152 739.176 68.152C740.184 68.152 741.018 68.446 741.678 69.034C742.35 69.622 742.8 70.444 743.028 71.5L736.89 73.624L736.458 72.544L741.372 70.78L740.994 71.014C740.85 70.642 740.622 70.318 740.31 70.042C739.998 69.754 739.572 69.61 739.032 69.61C738.6 69.61 738.21 69.718 737.862 69.934C737.526 70.138 737.256 70.426 737.052 70.798C736.86 71.158 736.764 71.584 736.764 72.076C736.764 72.58 736.866 73.024 737.07 73.408C737.286 73.78 737.574 74.074 737.934 74.29C738.306 74.506 738.72 74.614 739.176 74.614C739.5 74.614 739.806 74.554 740.094 74.434C740.394 74.314 740.676 74.164 740.94 73.984L741.786 75.352C741.39 75.604 740.958 75.808 740.49 75.964C740.034 76.108 739.584 76.18 739.14 76.18ZM745.806 65.146H747.66V68.476H749.676V69.934H747.66V76H745.806V69.934H744.474V68.476H745.806V65.146ZM751.678 68.458H753.532V76H751.678V68.458ZM751.57 65.758C751.57 65.47 751.684 65.23 751.912 65.038C752.14 64.846 752.386 64.75 752.65 64.75C752.926 64.75 753.172 64.846 753.388 65.038C753.604 65.23 753.712 65.47 753.712 65.758C753.712 66.046 753.604 66.286 753.388 66.478C753.172 66.658 752.926 66.748 752.65 66.748C752.386 66.748 752.14 66.658 751.912 66.478C751.684 66.286 751.57 66.046 751.57 65.758ZM758.01 68.458L758.172 70.186L758.1 69.952C758.352 69.412 758.742 68.98 759.27 68.656C759.798 68.32 760.422 68.152 761.142 68.152C761.85 68.152 762.432 68.362 762.888 68.782C763.356 69.202 763.596 69.748 763.608 70.42V76H761.754V71.068C761.742 70.684 761.628 70.372 761.412 70.132C761.196 69.88 760.86 69.748 760.404 69.736C759.996 69.736 759.624 69.862 759.288 70.114C758.952 70.354 758.688 70.684 758.496 71.104C758.304 71.524 758.208 72.01 758.208 72.562V76H756.354V68.458H758.01ZM770.133 79.744C769.545 79.744 769.035 79.678 768.603 79.546C768.171 79.414 767.781 79.228 767.433 78.988C767.097 78.76 766.773 78.514 766.461 78.25L767.559 76.972C767.931 77.32 768.315 77.596 768.711 77.8C769.107 78.016 769.569 78.124 770.097 78.124C770.625 78.124 771.075 78.034 771.447 77.854C771.831 77.686 772.125 77.446 772.329 77.134C772.533 76.822 772.635 76.45 772.635 76.018L772.653 74.056L772.779 74.416C772.575 74.908 772.197 75.328 771.645 75.676C771.093 76.012 770.415 76.18 769.611 76.18C768.927 76.18 768.291 76.006 767.703 75.658C767.127 75.31 766.665 74.836 766.317 74.236C765.969 73.636 765.795 72.958 765.795 72.202C765.795 71.41 765.975 70.714 766.335 70.114C766.707 69.502 767.193 69.022 767.793 68.674C768.393 68.314 769.035 68.134 769.719 68.134C770.391 68.134 770.991 68.266 771.519 68.53C772.047 68.782 772.443 69.1 772.707 69.484L772.599 69.79L772.797 68.458H774.507V76.036C774.507 76.732 774.321 77.356 773.949 77.908C773.589 78.472 773.085 78.916 772.437 79.24C771.789 79.576 771.021 79.744 770.133 79.744ZM767.667 72.148C767.667 72.616 767.775 73.042 767.991 73.426C768.207 73.81 768.501 74.116 768.873 74.344C769.257 74.56 769.683 74.668 770.151 74.668C770.571 74.668 770.949 74.596 771.285 74.452C771.621 74.296 771.903 74.092 772.131 73.84C772.371 73.576 772.545 73.27 772.653 72.922V71.356C772.545 71.008 772.371 70.714 772.131 70.474C771.891 70.222 771.603 70.024 771.267 69.88C770.931 69.736 770.559 69.664 770.151 69.664C769.683 69.664 769.257 69.772 768.873 69.988C768.501 70.192 768.207 70.48 767.991 70.852C767.775 71.224 767.667 71.656 767.667 72.148ZM783.792 65.146H785.646V68.476H787.662V69.934H785.646V76H783.792V69.934H782.46V68.476H783.792V65.146ZM793.21 76.18C792.334 76.18 791.584 76.012 790.96 75.676C790.336 75.328 789.856 74.854 789.52 74.254C789.184 73.642 789.016 72.946 789.016 72.166C789.016 71.422 789.202 70.75 789.574 70.15C789.958 69.538 790.468 69.052 791.104 68.692C791.752 68.332 792.466 68.152 793.246 68.152C794.254 68.152 795.088 68.446 795.748 69.034C796.42 69.622 796.87 70.444 797.098 71.5L790.96 73.624L790.528 72.544L795.442 70.78L795.064 71.014C794.92 70.642 794.692 70.318 794.38 70.042C794.068 69.754 793.642 69.61 793.102 69.61C792.67 69.61 792.28 69.718 791.932 69.934C791.596 70.138 791.326 70.426 791.122 70.798C790.93 71.158 790.834 71.584 790.834 72.076C790.834 72.58 790.936 73.024 791.14 73.408C791.356 73.78 791.644 74.074 792.004 74.29C792.376 74.506 792.79 74.614 793.246 74.614C793.57 74.614 793.876 74.554 794.164 74.434C794.464 74.314 794.746 74.164 795.01 73.984L795.856 75.352C795.46 75.604 795.028 75.808 794.56 75.964C794.104 76.108 793.654 76.18 793.21 76.18ZM802.306 76.18C801.598 76.18 800.956 76.036 800.38 75.748C799.804 75.448 799.348 75.004 799.012 74.416C798.676 73.828 798.508 73.102 798.508 72.238C798.508 71.386 798.682 70.654 799.03 70.042C799.39 69.43 799.858 68.962 800.434 68.638C801.022 68.302 801.658 68.134 802.342 68.134C803.062 68.134 803.65 68.29 804.106 68.602C804.574 68.902 804.94 69.256 805.204 69.664L805.078 69.952L805.258 68.458H806.968V76H805.114V74.11L805.312 74.56C805.264 74.656 805.162 74.794 805.006 74.974C804.85 75.142 804.64 75.322 804.376 75.514C804.124 75.706 803.824 75.868 803.476 76C803.14 76.12 802.75 76.18 802.306 76.18ZM802.81 74.668C803.206 74.668 803.56 74.596 803.872 74.452C804.184 74.308 804.448 74.104 804.664 73.84C804.88 73.576 805.03 73.264 805.114 72.904V71.338C805.018 71.002 804.856 70.714 804.628 70.474C804.4 70.222 804.124 70.024 803.8 69.88C803.488 69.736 803.14 69.664 802.756 69.664C802.324 69.664 801.928 69.772 801.568 69.988C801.208 70.192 800.92 70.48 800.704 70.852C800.488 71.224 800.38 71.656 800.38 72.148C800.38 72.616 800.488 73.042 800.704 73.426C800.932 73.81 801.232 74.116 801.604 74.344C801.976 74.56 802.378 74.668 802.81 74.668ZM811.465 68.458L811.627 70.078L811.555 69.952C811.843 69.388 812.239 68.95 812.743 68.638C813.247 68.314 813.829 68.152 814.489 68.152C814.897 68.152 815.263 68.218 815.587 68.35C815.923 68.482 816.199 68.668 816.415 68.908C816.631 69.148 816.769 69.448 816.829 69.808L816.739 69.862C817.039 69.334 817.435 68.92 817.927 68.62C818.431 68.308 818.965 68.152 819.529 68.152C820.261 68.152 820.843 68.362 821.275 68.782C821.719 69.202 821.947 69.742 821.959 70.402V76H820.123V71.104C820.111 70.732 820.021 70.42 819.853 70.168C819.697 69.916 819.415 69.778 819.007 69.754C818.575 69.754 818.191 69.886 817.855 70.15C817.531 70.414 817.279 70.756 817.099 71.176C816.919 71.596 816.823 72.046 816.811 72.526V76H814.957V71.104C814.945 70.732 814.855 70.42 814.687 70.168C814.519 69.916 814.225 69.778 813.805 69.754C813.373 69.754 812.995 69.886 812.671 70.15C812.347 70.414 812.095 70.762 811.915 71.194C811.747 71.614 811.663 72.058 811.663 72.526V76H809.809V68.458H811.465Z" fill="black"/>
<rect width="190" height="74" transform="translate(658 116)" fill="#C6F5F0"/>
<path d="M690.64 147.434C690.184 147.194 689.692 146.99 689.164 146.822C688.636 146.654 688.126 146.57 687.634 146.57C686.962 146.57 686.428 146.726 686.032 147.038C685.636 147.338 685.438 147.752 685.438 148.28C685.438 148.652 685.57 148.976 685.834 149.252C686.098 149.528 686.44 149.768 686.86 149.972C687.28 150.176 687.724 150.368 688.192 150.548C688.588 150.692 688.978 150.866 689.362 151.07C689.758 151.262 690.112 151.502 690.424 151.79C690.748 152.078 691 152.438 691.18 152.87C691.372 153.29 691.468 153.806 691.468 154.418C691.468 155.114 691.294 155.744 690.946 156.308C690.61 156.872 690.118 157.322 689.47 157.658C688.834 157.982 688.06 158.144 687.148 158.144C686.596 158.144 686.056 158.084 685.528 157.964C685.012 157.832 684.52 157.664 684.052 157.46C683.596 157.244 683.182 157.01 682.81 156.758L683.674 155.264C683.962 155.468 684.292 155.666 684.664 155.858C685.036 156.038 685.42 156.182 685.816 156.29C686.224 156.398 686.608 156.452 686.968 156.452C687.364 156.452 687.754 156.386 688.138 156.254C688.522 156.11 688.84 155.894 689.092 155.606C689.344 155.306 689.47 154.916 689.47 154.436C689.47 154.028 689.356 153.686 689.128 153.41C688.912 153.122 688.618 152.876 688.246 152.672C687.886 152.468 687.496 152.288 687.076 152.132C686.668 151.976 686.254 151.802 685.834 151.61C685.414 151.418 685.024 151.19 684.664 150.926C684.304 150.65 684.01 150.314 683.782 149.918C683.566 149.51 683.458 149.012 683.458 148.424C683.458 147.728 683.62 147.122 683.944 146.606C684.28 146.078 684.742 145.664 685.33 145.364C685.918 145.064 686.596 144.896 687.364 144.86C688.24 144.86 689.002 144.968 689.65 145.184C690.298 145.4 690.874 145.658 691.378 145.958L690.64 147.434ZM694.619 147.146H696.473V150.476H698.489V151.934H696.473V158H694.619V151.934H693.287V150.476H694.619V147.146ZM702.146 150.458L702.326 152.618L702.236 152.33C702.44 151.874 702.728 151.484 703.1 151.16C703.472 150.836 703.856 150.59 704.252 150.422C704.66 150.242 705.002 150.152 705.278 150.152L705.188 151.988C704.612 151.952 704.108 152.06 703.676 152.312C703.256 152.564 702.926 152.9 702.686 153.32C702.446 153.74 702.326 154.19 702.326 154.67V158H700.49V150.458H702.146ZM710.338 158.18C709.63 158.18 708.988 158.036 708.412 157.748C707.836 157.448 707.38 157.004 707.044 156.416C706.708 155.828 706.54 155.102 706.54 154.238C706.54 153.386 706.714 152.654 707.062 152.042C707.422 151.43 707.89 150.962 708.466 150.638C709.054 150.302 709.69 150.134 710.374 150.134C711.094 150.134 711.682 150.29 712.138 150.602C712.606 150.902 712.972 151.256 713.236 151.664L713.11 151.952L713.29 150.458H715V158H713.146V156.11L713.344 156.56C713.296 156.656 713.194 156.794 713.038 156.974C712.882 157.142 712.672 157.322 712.408 157.514C712.156 157.706 711.856 157.868 711.508 158C711.172 158.12 710.782 158.18 710.338 158.18ZM710.842 156.668C711.238 156.668 711.592 156.596 711.904 156.452C712.216 156.308 712.48 156.104 712.696 155.84C712.912 155.576 713.062 155.264 713.146 154.904V153.338C713.05 153.002 712.888 152.714 712.66 152.474C712.432 152.222 712.156 152.024 711.832 151.88C711.52 151.736 711.172 151.664 710.788 151.664C710.356 151.664 709.96 151.772 709.6 151.988C709.24 152.192 708.952 152.48 708.736 152.852C708.52 153.224 708.412 153.656 708.412 154.148C708.412 154.616 708.52 155.042 708.736 155.426C708.964 155.81 709.264 156.116 709.636 156.344C710.008 156.56 710.41 156.668 710.842 156.668ZM718.56 147.146H720.414V150.476H722.43V151.934H720.414V158H718.56V151.934H717.228V150.476H718.56V147.146ZM727.978 158.18C727.102 158.18 726.352 158.012 725.728 157.676C725.104 157.328 724.624 156.854 724.288 156.254C723.952 155.642 723.784 154.946 723.784 154.166C723.784 153.422 723.97 152.75 724.342 152.15C724.726 151.538 725.236 151.052 725.872 150.692C726.52 150.332 727.234 150.152 728.014 150.152C729.022 150.152 729.856 150.446 730.516 151.034C731.188 151.622 731.638 152.444 731.866 153.5L725.728 155.624L725.296 154.544L730.21 152.78L729.832 153.014C729.688 152.642 729.46 152.318 729.148 152.042C728.836 151.754 728.41 151.61 727.87 151.61C727.438 151.61 727.048 151.718 726.7 151.934C726.364 152.138 726.094 152.426 725.89 152.798C725.698 153.158 725.602 153.584 725.602 154.076C725.602 154.58 725.704 155.024 725.908 155.408C726.124 155.78 726.412 156.074 726.772 156.29C727.144 156.506 727.558 156.614 728.014 156.614C728.338 156.614 728.644 156.554 728.932 156.434C729.232 156.314 729.514 156.164 729.778 155.984L730.624 157.352C730.228 157.604 729.796 157.808 729.328 157.964C728.872 158.108 728.422 158.18 727.978 158.18ZM737.614 161.744C737.026 161.744 736.516 161.678 736.084 161.546C735.652 161.414 735.262 161.228 734.914 160.988C734.578 160.76 734.254 160.514 733.942 160.25L735.04 158.972C735.412 159.32 735.796 159.596 736.192 159.8C736.588 160.016 737.05 160.124 737.578 160.124C738.106 160.124 738.556 160.034 738.928 159.854C739.312 159.686 739.606 159.446 739.81 159.134C740.014 158.822 740.116 158.45 740.116 158.018L740.134 156.056L740.26 156.416C740.056 156.908 739.678 157.328 739.126 157.676C738.574 158.012 737.896 158.18 737.092 158.18C736.408 158.18 735.772 158.006 735.184 157.658C734.608 157.31 734.146 156.836 733.798 156.236C733.45 155.636 733.276 154.958 733.276 154.202C733.276 153.41 733.456 152.714 733.816 152.114C734.188 151.502 734.674 151.022 735.274 150.674C735.874 150.314 736.516 150.134 737.2 150.134C737.872 150.134 738.472 150.266 739 150.53C739.528 150.782 739.924 151.1 740.188 151.484L740.08 151.79L740.278 150.458H741.988V158.036C741.988 158.732 741.802 159.356 741.43 159.908C741.07 160.472 740.566 160.916 739.918 161.24C739.27 161.576 738.502 161.744 737.614 161.744ZM735.148 154.148C735.148 154.616 735.256 155.042 735.472 155.426C735.688 155.81 735.982 156.116 736.354 156.344C736.738 156.56 737.164 156.668 737.632 156.668C738.052 156.668 738.43 156.596 738.766 156.452C739.102 156.296 739.384 156.092 739.612 155.84C739.852 155.576 740.026 155.27 740.134 154.922V153.356C740.026 153.008 739.852 152.714 739.612 152.474C739.372 152.222 739.084 152.024 738.748 151.88C738.412 151.736 738.04 151.664 737.632 151.664C737.164 151.664 736.738 151.772 736.354 151.988C735.982 152.192 735.688 152.48 735.472 152.852C735.256 153.224 735.148 153.656 735.148 154.148ZM745.452 161.618L750.438 150.458H752.13L747.27 161.618H745.452ZM747.36 158.054L743.706 150.458H745.794L748.782 157.118L747.36 158.054ZM770.424 158C770.304 158 770.124 158 769.884 158C769.644 158 769.392 158 769.128 158C768.876 158 768.654 158 768.462 158C768.282 158 768.192 158 768.192 158L762.036 149.828C761.928 149.66 761.796 149.45 761.64 149.198C761.496 148.934 761.37 148.646 761.262 148.334C761.154 148.01 761.1 147.674 761.1 147.326C761.1 146.822 761.22 146.348 761.46 145.904C761.712 145.448 762.078 145.076 762.558 144.788C763.05 144.488 763.644 144.338 764.34 144.338C765.084 144.338 765.744 144.488 766.32 144.788C766.896 145.076 767.364 145.424 767.724 145.832L766.77 147.11C766.398 146.762 766.032 146.486 765.672 146.282C765.324 146.066 764.982 145.958 764.646 145.958C764.142 145.958 763.752 146.108 763.476 146.408C763.212 146.708 763.08 147.068 763.08 147.488C763.08 147.692 763.122 147.908 763.206 148.136C763.302 148.352 763.392 148.544 763.476 148.712C763.572 148.868 763.632 148.964 763.656 149L770.424 158ZM763.692 151.79C763.368 151.79 763.05 151.856 762.738 151.988C762.426 152.108 762.15 152.282 761.91 152.51C761.67 152.726 761.478 152.978 761.334 153.266C761.202 153.554 761.136 153.866 761.136 154.202C761.136 154.658 761.25 155.054 761.478 155.39C761.718 155.726 762.036 155.99 762.432 156.182C762.828 156.374 763.26 156.47 763.728 156.47C764.172 156.47 764.556 156.404 764.88 156.272C765.216 156.128 765.498 155.948 765.726 155.732C765.966 155.504 766.146 155.252 766.266 154.976L767.49 156.038C767.178 156.638 766.68 157.148 765.996 157.568C765.324 157.976 764.484 158.18 763.476 158.18C762.66 158.18 761.922 158.012 761.262 157.676C760.614 157.34 760.098 156.878 759.714 156.29C759.33 155.702 759.138 155.036 759.138 154.292C759.138 153.728 759.264 153.206 759.516 152.726C759.78 152.234 760.128 151.814 760.56 151.466C760.992 151.106 761.472 150.824 762 150.62C762.54 150.404 763.092 150.29 763.656 150.278L763.692 151.79ZM768.084 150.278H769.848L767.706 155.732L766.32 154.868L768.084 150.278ZM778.828 144.932H787.414V146.786H780.754V150.512H786.676V152.366H780.754V156.146H787.666V158H778.828V144.932ZM793.179 153.176L794.907 150.458H796.761L793.845 154.526L793.179 153.176ZM797.067 158H794.853L789.093 150.458H791.379L797.067 158ZM792.963 155.282L791.055 158H789.183L792.099 154.04L792.963 155.282ZM802.228 158.18C801.352 158.18 800.602 158.012 799.978 157.676C799.354 157.328 798.874 156.854 798.538 156.254C798.202 155.642 798.034 154.946 798.034 154.166C798.034 153.422 798.22 152.75 798.592 152.15C798.976 151.538 799.486 151.052 800.122 150.692C800.77 150.332 801.484 150.152 802.264 150.152C803.272 150.152 804.106 150.446 804.766 151.034C805.438 151.622 805.888 152.444 806.116 153.5L799.978 155.624L799.546 154.544L804.46 152.78L804.082 153.014C803.938 152.642 803.71 152.318 803.398 152.042C803.086 151.754 802.66 151.61 802.12 151.61C801.688 151.61 801.298 151.718 800.95 151.934C800.614 152.138 800.344 152.426 800.14 152.798C799.948 153.158 799.852 153.584 799.852 154.076C799.852 154.58 799.954 155.024 800.158 155.408C800.374 155.78 800.662 156.074 801.022 156.29C801.394 156.506 801.808 156.614 802.264 156.614C802.588 156.614 802.894 156.554 803.182 156.434C803.482 156.314 803.764 156.164 804.028 155.984L804.874 157.352C804.478 157.604 804.046 157.808 803.578 157.964C803.122 158.108 802.672 158.18 802.228 158.18ZM814.348 157.298C814.012 157.574 813.604 157.79 813.124 157.946C812.656 158.102 812.182 158.18 811.702 158.18C810.874 158.18 810.142 158.018 809.506 157.694C808.882 157.37 808.396 156.914 808.048 156.326C807.7 155.738 807.526 155.036 807.526 154.22C807.526 153.416 807.712 152.72 808.084 152.132C808.456 151.532 808.948 151.076 809.56 150.764C810.172 150.44 810.82 150.278 811.504 150.278C812.128 150.278 812.68 150.362 813.16 150.53C813.64 150.698 814.054 150.932 814.402 151.232L813.484 152.438C813.28 152.27 813.022 152.12 812.71 151.988C812.41 151.856 812.062 151.79 811.666 151.79C811.246 151.79 810.862 151.898 810.514 152.114C810.166 152.318 809.89 152.606 809.686 152.978C809.482 153.338 809.38 153.752 809.38 154.22C809.38 154.664 809.482 155.078 809.686 155.462C809.902 155.834 810.196 156.128 810.568 156.344C810.94 156.56 811.366 156.668 811.846 156.668C812.158 156.668 812.446 156.626 812.71 156.542C812.974 156.446 813.208 156.314 813.412 156.146L814.348 157.298ZM818.667 158.162C818.115 158.162 817.581 158.066 817.065 157.874C816.549 157.67 816.123 157.376 815.787 156.992L816.579 155.948C816.903 156.248 817.227 156.476 817.551 156.632C817.887 156.776 818.205 156.848 818.505 156.848C818.745 156.848 818.961 156.824 819.153 156.776C819.345 156.716 819.501 156.62 819.621 156.488C819.741 156.356 819.801 156.182 819.801 155.966C819.801 155.714 819.717 155.516 819.549 155.372C819.381 155.228 819.165 155.108 818.901 155.012C818.637 154.916 818.355 154.826 818.055 154.742C817.419 154.538 816.939 154.25 816.615 153.878C816.291 153.494 816.129 153.044 816.129 152.528C816.129 152.132 816.225 151.76 816.417 151.412C816.621 151.052 816.927 150.758 817.335 150.53C817.743 150.302 818.247 150.188 818.847 150.188C819.399 150.188 819.885 150.254 820.305 150.386C820.725 150.506 821.115 150.716 821.475 151.016L820.755 152.132C820.539 151.916 820.281 151.754 819.981 151.646C819.693 151.526 819.429 151.46 819.189 151.448C818.973 151.448 818.775 151.484 818.595 151.556C818.415 151.616 818.271 151.712 818.163 151.844C818.055 151.964 818.001 152.108 818.001 152.276C817.989 152.516 818.067 152.714 818.235 152.87C818.415 153.014 818.643 153.134 818.919 153.23C819.195 153.314 819.465 153.404 819.729 153.5C820.101 153.608 820.431 153.758 820.719 153.95C821.007 154.13 821.235 154.352 821.403 154.616C821.571 154.88 821.655 155.216 821.655 155.624C821.655 156.068 821.547 156.488 821.331 156.884C821.115 157.268 820.785 157.58 820.341 157.82C819.897 158.048 819.339 158.162 818.667 158.162Z" fill="black"/>
<rect width="190" height="74" transform="translate(658 198)" fill="#C6F5F0"/>
<path d="M702.436 226.932C703.408 226.932 704.236 227.1 704.92 227.436C705.616 227.76 706.144 228.228 706.504 228.84C706.876 229.452 707.062 230.196 707.062 231.072C707.062 231.588 706.984 232.098 706.828 232.602C706.672 233.106 706.42 233.568 706.072 233.988C705.736 234.396 705.286 234.726 704.722 234.978C704.158 235.218 703.474 235.338 702.67 235.338H700.762V240H698.836V226.932H702.436ZM702.67 233.484C703.15 233.484 703.552 233.406 703.876 233.25C704.2 233.082 704.452 232.872 704.632 232.62C704.824 232.368 704.956 232.11 705.028 231.846C705.112 231.57 705.154 231.324 705.154 231.108C705.154 230.868 705.112 230.616 705.028 230.352C704.956 230.076 704.83 229.824 704.65 229.596C704.47 229.356 704.224 229.164 703.912 229.02C703.6 228.864 703.21 228.786 702.742 228.786H700.762V233.484H702.67ZM710.924 232.458L711.104 234.618L711.014 234.33C711.218 233.874 711.506 233.484 711.878 233.16C712.25 232.836 712.634 232.59 713.03 232.422C713.438 232.242 713.78 232.152 714.056 232.152L713.966 233.988C713.39 233.952 712.886 234.06 712.454 234.312C712.034 234.564 711.704 234.9 711.464 235.32C711.224 235.74 711.104 236.19 711.104 236.67V240H709.268V232.458H710.924ZM715.194 236.148C715.194 235.392 715.374 234.714 715.734 234.114C716.094 233.502 716.592 233.022 717.228 232.674C717.864 232.326 718.59 232.152 719.406 232.152C720.234 232.152 720.96 232.326 721.584 232.674C722.208 233.022 722.688 233.502 723.024 234.114C723.372 234.714 723.546 235.392 723.546 236.148C723.546 236.904 723.372 237.588 723.024 238.2C722.688 238.812 722.208 239.298 721.584 239.658C720.96 240.006 720.228 240.18 719.388 240.18C718.584 240.18 717.864 240.018 717.228 239.694C716.604 239.37 716.106 238.908 715.734 238.308C715.374 237.696 715.194 236.976 715.194 236.148ZM717.066 236.166C717.066 236.634 717.168 237.06 717.372 237.444C717.576 237.816 717.852 238.116 718.2 238.344C718.548 238.56 718.938 238.668 719.37 238.668C719.814 238.668 720.21 238.56 720.558 238.344C720.906 238.116 721.176 237.816 721.368 237.444C721.572 237.06 721.674 236.634 721.674 236.166C721.674 235.698 721.572 235.278 721.368 234.906C721.176 234.534 720.906 234.234 720.558 234.006C720.21 233.778 719.814 233.664 719.37 233.664C718.926 233.664 718.53 233.778 718.182 234.006C717.834 234.234 717.558 234.54 717.354 234.924C717.162 235.296 717.066 235.71 717.066 236.166ZM728.816 240.18C728.108 240.18 727.472 240.018 726.908 239.694C726.344 239.358 725.9 238.884 725.576 238.272C725.252 237.66 725.09 236.946 725.09 236.13C725.09 235.29 725.264 234.576 725.612 233.988C725.96 233.388 726.428 232.932 727.016 232.62C727.616 232.296 728.288 232.134 729.032 232.134C729.608 232.134 730.154 232.254 730.67 232.494C731.198 232.722 731.606 233.046 731.894 233.466L731.84 234.096V226.014H733.676V240H731.822V238.218L732.02 238.704C731.648 239.124 731.192 239.478 730.652 239.766C730.112 240.042 729.5 240.18 728.816 240.18ZM729.392 238.614C729.812 238.614 730.184 238.542 730.508 238.398C730.832 238.254 731.108 238.05 731.336 237.786C731.564 237.51 731.726 237.192 731.822 236.832V235.32C731.738 234.984 731.576 234.69 731.336 234.438C731.108 234.174 730.826 233.97 730.49 233.826C730.154 233.682 729.788 233.61 729.392 233.61C728.948 233.61 728.54 233.718 728.168 233.934C727.808 234.138 727.514 234.426 727.286 234.798C727.07 235.17 726.962 235.602 726.962 236.094C726.962 236.562 727.07 236.988 727.286 237.372C727.514 237.756 727.814 238.062 728.186 238.29C728.558 238.506 728.96 238.614 729.392 238.614ZM738.926 240.306C738.23 240.306 737.66 240.096 737.216 239.676C736.772 239.256 736.538 238.716 736.514 238.056V232.458H738.368V237.39C738.392 237.774 738.5 238.092 738.692 238.344C738.896 238.584 739.22 238.71 739.664 238.722C740.072 238.722 740.432 238.602 740.744 238.362C741.068 238.11 741.32 237.774 741.5 237.354C741.692 236.922 741.788 236.43 741.788 235.878V232.458H743.642V240H741.968L741.824 238.254L741.896 238.542C741.74 238.878 741.518 239.184 741.23 239.46C740.942 239.724 740.6 239.928 740.204 240.072C739.808 240.228 739.382 240.306 738.926 240.306ZM752.655 239.298C752.319 239.574 751.911 239.79 751.431 239.946C750.963 240.102 750.489 240.18 750.009 240.18C749.181 240.18 748.449 240.018 747.813 239.694C747.189 239.37 746.703 238.914 746.355 238.326C746.007 237.738 745.833 237.036 745.833 236.22C745.833 235.416 746.019 234.72 746.391 234.132C746.763 233.532 747.255 233.076 747.867 232.764C748.479 232.44 749.127 232.278 749.811 232.278C750.435 232.278 750.987 232.362 751.467 232.53C751.947 232.698 752.361 232.932 752.709 233.232L751.791 234.438C751.587 234.27 751.329 234.12 751.017 233.988C750.717 233.856 750.369 233.79 749.973 233.79C749.553 233.79 749.169 233.898 748.821 234.114C748.473 234.318 748.197 234.606 747.993 234.978C747.789 235.338 747.687 235.752 747.687 236.22C747.687 236.664 747.789 237.078 747.993 237.462C748.209 237.834 748.503 238.128 748.875 238.344C749.247 238.56 749.673 238.668 750.153 238.668C750.465 238.668 750.753 238.626 751.017 238.542C751.281 238.446 751.515 238.314 751.719 238.146L752.655 239.298ZM755.497 229.146H757.351V232.476H759.367V233.934H757.351V240H755.497V233.934H754.165V232.476H755.497V229.146ZM767.82 229.146H769.674V232.476H771.69V233.934H769.674V240H767.82V233.934H766.488V232.476H767.82V229.146ZM777.238 240.18C776.362 240.18 775.612 240.012 774.988 239.676C774.364 239.328 773.884 238.854 773.548 238.254C773.212 237.642 773.044 236.946 773.044 236.166C773.044 235.422 773.23 234.75 773.602 234.15C773.986 233.538 774.496 233.052 775.132 232.692C775.78 232.332 776.494 232.152 777.274 232.152C778.282 232.152 779.116 232.446 779.776 233.034C780.448 233.622 780.898 234.444 781.126 235.5L774.988 237.624L774.556 236.544L779.47 234.78L779.092 235.014C778.948 234.642 778.72 234.318 778.408 234.042C778.096 233.754 777.67 233.61 777.13 233.61C776.698 233.61 776.308 233.718 775.96 233.934C775.624 234.138 775.354 234.426 775.15 234.798C774.958 235.158 774.862 235.584 774.862 236.076C774.862 236.58 774.964 237.024 775.168 237.408C775.384 237.78 775.672 238.074 776.032 238.29C776.404 238.506 776.818 238.614 777.274 238.614C777.598 238.614 777.904 238.554 778.192 238.434C778.492 238.314 778.774 238.164 779.038 237.984L779.884 239.352C779.488 239.604 779.056 239.808 778.588 239.964C778.132 240.108 777.682 240.18 777.238 240.18ZM786.334 240.18C785.626 240.18 784.984 240.036 784.408 239.748C783.832 239.448 783.376 239.004 783.04 238.416C782.704 237.828 782.536 237.102 782.536 236.238C782.536 235.386 782.71 234.654 783.058 234.042C783.418 233.43 783.886 232.962 784.462 232.638C785.05 232.302 785.686 232.134 786.37 232.134C787.09 232.134 787.678 232.29 788.134 232.602C788.602 232.902 788.968 233.256 789.232 233.664L789.106 233.952L789.286 232.458H790.996V240H789.142V238.11L789.34 238.56C789.292 238.656 789.19 238.794 789.034 238.974C788.878 239.142 788.668 239.322 788.404 239.514C788.152 239.706 787.852 239.868 787.504 240C787.168 240.12 786.778 240.18 786.334 240.18ZM786.838 238.668C787.234 238.668 787.588 238.596 787.9 238.452C788.212 238.308 788.476 238.104 788.692 237.84C788.908 237.576 789.058 237.264 789.142 236.904V235.338C789.046 235.002 788.884 234.714 788.656 234.474C788.428 234.222 788.152 234.024 787.828 233.88C787.516 233.736 787.168 233.664 786.784 233.664C786.352 233.664 785.956 233.772 785.596 233.988C785.236 234.192 784.948 234.48 784.732 234.852C784.516 235.224 784.408 235.656 784.408 236.148C784.408 236.616 784.516 237.042 784.732 237.426C784.96 237.81 785.26 238.116 785.632 238.344C786.004 238.56 786.406 238.668 786.838 238.668ZM795.492 232.458L795.654 234.078L795.582 233.952C795.87 233.388 796.266 232.95 796.77 232.638C797.274 232.314 797.856 232.152 798.516 232.152C798.924 232.152 799.29 232.218 799.614 232.35C799.95 232.482 800.226 232.668 800.442 232.908C800.658 233.148 800.796 233.448 800.856 233.808L800.766 233.862C801.066 233.334 801.462 232.92 801.954 232.62C802.458 232.308 802.992 232.152 803.556 232.152C804.288 232.152 804.87 232.362 805.302 232.782C805.746 233.202 805.974 233.742 805.986 234.402V240H804.15V235.104C804.138 234.732 804.048 234.42 803.88 234.168C803.724 233.916 803.442 233.778 803.034 233.754C802.602 233.754 802.218 233.886 801.882 234.15C801.558 234.414 801.306 234.756 801.126 235.176C800.946 235.596 800.85 236.046 800.838 236.526V240H798.984V235.104C798.972 234.732 798.882 234.42 798.714 234.168C798.546 233.916 798.252 233.778 797.832 233.754C797.4 233.754 797.022 233.886 796.698 234.15C796.374 234.414 796.122 234.762 795.942 235.194C795.774 235.614 795.69 236.058 795.69 236.526V240H793.836V232.458H795.492Z" fill="black"/>
<path d="M34.71 48.752H43.746V51.272H37.32V54.098H43.008V56.618H37.32V59.48H43.998V62H34.71V48.752ZM49.8483 56.636L51.3423 54.134H53.8443L50.7303 58.454L49.8483 56.636ZM54.2763 62H51.2343L45.1683 54.134H48.2643L54.2763 62ZM49.5243 59.48L47.7603 62H45.2583L48.3723 57.788L49.5243 59.48ZM56.4969 50.678H59.0169V54.098H60.9249V56.06H59.0169V62H56.4969V56.06H55.2729V54.098H56.4969V50.678ZM66.7129 62.216C65.7529 62.216 64.9369 62.036 64.2649 61.676C63.6049 61.316 63.1009 60.818 62.7529 60.182C62.4049 59.546 62.2309 58.814 62.2309 57.986C62.2309 57.194 62.4349 56.48 62.8429 55.844C63.2509 55.208 63.7969 54.704 64.4809 54.332C65.1649 53.948 65.9269 53.756 66.7669 53.756C67.8949 53.756 68.8189 54.086 69.5389 54.746C70.2709 55.394 70.7449 56.336 70.9609 57.572L64.8409 59.516L64.2829 58.148L68.7109 56.654L68.1889 56.888C68.0929 56.576 67.9189 56.306 67.6669 56.078C67.4269 55.838 67.0609 55.718 66.5689 55.718C66.1969 55.718 65.8669 55.808 65.5789 55.988C65.3029 56.156 65.0869 56.402 64.9309 56.726C64.7869 57.038 64.7149 57.41 64.7149 57.842C64.7149 58.334 64.8049 58.748 64.9849 59.084C65.1649 59.408 65.4109 59.654 65.7229 59.822C66.0349 59.99 66.3829 60.074 66.7669 60.074C67.0429 60.074 67.3069 60.026 67.5589 59.93C67.8229 59.834 68.0809 59.708 68.3329 59.552L69.4489 61.424C69.0289 61.664 68.5729 61.856 68.0809 62C67.6009 62.144 67.1449 62.216 66.7129 62.216ZM75.0601 54.134L75.2941 56.294L75.2401 55.97C75.4681 55.502 75.7801 55.106 76.1761 54.782C76.5721 54.446 76.9621 54.188 77.3461 54.008C77.7421 53.828 78.0421 53.738 78.2461 53.738L78.1201 56.258C77.5321 56.186 77.0281 56.282 76.6081 56.546C76.1881 56.81 75.8641 57.158 75.6361 57.59C75.4081 58.022 75.2941 58.466 75.2941 58.922V62H72.7921V54.134H75.0601ZM82.4609 54.134L82.6589 55.538L82.6229 55.412C82.8989 54.92 83.2889 54.524 83.7929 54.224C84.2969 53.912 84.9149 53.756 85.6469 53.756C86.3909 53.756 87.0089 53.978 87.5009 54.422C88.0049 54.854 88.2629 55.418 88.2749 56.114V62H85.7549V57.05C85.7429 56.702 85.6469 56.426 85.4669 56.222C85.2989 56.006 85.0109 55.898 84.6029 55.898C84.2189 55.898 83.8829 56.024 83.5949 56.276C83.3069 56.528 83.0849 56.87 82.9289 57.302C82.7729 57.734 82.6949 58.232 82.6949 58.796V62H80.1749V54.134H82.4609ZM94.1744 62.216C93.4424 62.216 92.7764 62.072 92.1764 61.784C91.5884 61.484 91.1204 61.028 90.7724 60.416C90.4244 59.804 90.2504 59.024 90.2504 58.076C90.2504 57.188 90.4304 56.42 90.7904 55.772C91.1504 55.124 91.6244 54.626 92.2124 54.278C92.8004 53.918 93.4244 53.738 94.0844 53.738C94.8644 53.738 95.4524 53.87 95.8484 54.134C96.2564 54.386 96.5924 54.668 96.8564 54.98L96.7484 55.286L96.9824 54.134H99.3224V62H96.8024V60.29L97.0004 60.83C96.9764 60.83 96.9044 60.902 96.7844 61.046C96.6644 61.178 96.4844 61.34 96.2444 61.532C96.0164 61.712 95.7284 61.868 95.3804 62C95.0444 62.144 94.6424 62.216 94.1744 62.216ZM94.8944 60.164C95.1944 60.164 95.4644 60.122 95.7044 60.038C95.9444 59.942 96.1544 59.81 96.3344 59.642C96.5144 59.462 96.6704 59.24 96.8024 58.976V57.05C96.7064 56.786 96.5624 56.564 96.3704 56.384C96.1784 56.192 95.9504 56.048 95.6864 55.952C95.4224 55.844 95.1284 55.79 94.8044 55.79C94.4444 55.79 94.1084 55.886 93.7964 56.078C93.4964 56.258 93.2564 56.51 93.0764 56.834C92.8964 57.158 92.8064 57.53 92.8064 57.95C92.8064 58.37 92.9024 58.748 93.0944 59.084C93.2864 59.42 93.5384 59.684 93.8504 59.876C94.1744 60.068 94.5224 60.164 94.8944 60.164ZM101.919 47.798H104.439V62H101.919V47.798ZM115.426 62.378C114.718 62.378 114.124 62.162 113.644 61.73C113.164 61.286 112.912 60.716 112.888 60.02V54.134H115.408V59.084C115.432 59.432 115.522 59.714 115.678 59.93C115.834 60.134 116.098 60.236 116.47 60.236C116.842 60.236 117.16 60.11 117.424 59.858C117.7 59.606 117.91 59.264 118.054 58.832C118.21 58.388 118.288 57.89 118.288 57.338V54.134H120.808V62H118.522L118.324 60.56L118.36 60.722C118.18 61.046 117.952 61.334 117.676 61.586C117.4 61.838 117.07 62.03 116.686 62.162C116.314 62.306 115.894 62.378 115.426 62.378ZM125.956 62.162C125.308 62.162 124.702 62.048 124.138 61.82C123.586 61.592 123.118 61.274 122.734 60.866L123.778 59.48C124.162 59.828 124.516 60.08 124.84 60.236C125.176 60.38 125.476 60.452 125.74 60.452C125.944 60.452 126.124 60.434 126.28 60.398C126.448 60.35 126.58 60.284 126.676 60.2C126.772 60.104 126.82 59.984 126.82 59.84C126.82 59.636 126.736 59.474 126.568 59.354C126.412 59.234 126.208 59.138 125.956 59.066C125.704 58.982 125.434 58.898 125.146 58.814C124.426 58.586 123.904 58.256 123.58 57.824C123.268 57.38 123.112 56.9 123.112 56.384C123.112 55.988 123.214 55.592 123.418 55.196C123.634 54.788 123.97 54.452 124.426 54.188C124.894 53.912 125.494 53.774 126.226 53.774C126.886 53.774 127.444 53.84 127.9 53.972C128.356 54.104 128.788 54.32 129.196 54.62L128.242 56.096C128.014 55.916 127.756 55.766 127.468 55.646C127.192 55.514 126.934 55.442 126.694 55.43C126.478 55.418 126.292 55.442 126.136 55.502C125.992 55.562 125.878 55.64 125.794 55.736C125.71 55.832 125.668 55.934 125.668 56.042C125.656 56.27 125.74 56.45 125.92 56.582C126.112 56.714 126.352 56.816 126.64 56.888C126.928 56.96 127.21 57.044 127.486 57.14C127.87 57.26 128.2 57.422 128.476 57.626C128.752 57.83 128.962 58.076 129.106 58.364C129.262 58.64 129.34 58.976 129.34 59.372C129.34 59.852 129.214 60.308 128.962 60.74C128.722 61.16 128.35 61.502 127.846 61.766C127.354 62.03 126.724 62.162 125.956 62.162ZM135.32 62.216C134.36 62.216 133.544 62.036 132.872 61.676C132.212 61.316 131.708 60.818 131.36 60.182C131.012 59.546 130.838 58.814 130.838 57.986C130.838 57.194 131.042 56.48 131.45 55.844C131.858 55.208 132.404 54.704 133.088 54.332C133.772 53.948 134.534 53.756 135.374 53.756C136.502 53.756 137.426 54.086 138.146 54.746C138.878 55.394 139.352 56.336 139.568 57.572L133.448 59.516L132.89 58.148L137.318 56.654L136.796 56.888C136.7 56.576 136.526 56.306 136.274 56.078C136.034 55.838 135.668 55.718 135.176 55.718C134.804 55.718 134.474 55.808 134.186 55.988C133.91 56.156 133.694 56.402 133.538 56.726C133.394 57.038 133.322 57.41 133.322 57.842C133.322 58.334 133.412 58.748 133.592 59.084C133.772 59.408 134.018 59.654 134.33 59.822C134.642 59.99 134.99 60.074 135.374 60.074C135.65 60.074 135.914 60.026 136.166 59.93C136.43 59.834 136.688 59.708 136.94 59.552L138.056 61.424C137.636 61.664 137.18 61.856 136.688 62C136.208 62.144 135.752 62.216 135.32 62.216ZM143.668 54.134L143.902 56.294L143.848 55.97C144.076 55.502 144.388 55.106 144.784 54.782C145.18 54.446 145.57 54.188 145.954 54.008C146.35 53.828 146.65 53.738 146.854 53.738L146.728 56.258C146.14 56.186 145.636 56.282 145.216 56.546C144.796 56.81 144.472 57.158 144.244 57.59C144.016 58.022 143.902 58.466 143.902 58.922V62H141.4V54.134H143.668ZM151.338 62.162C150.69 62.162 150.084 62.048 149.52 61.82C148.968 61.592 148.5 61.274 148.116 60.866L149.16 59.48C149.544 59.828 149.898 60.08 150.222 60.236C150.558 60.38 150.858 60.452 151.122 60.452C151.326 60.452 151.506 60.434 151.662 60.398C151.83 60.35 151.962 60.284 152.058 60.2C152.154 60.104 152.202 59.984 152.202 59.84C152.202 59.636 152.118 59.474 151.95 59.354C151.794 59.234 151.59 59.138 151.338 59.066C151.086 58.982 150.816 58.898 150.528 58.814C149.808 58.586 149.286 58.256 148.962 57.824C148.65 57.38 148.494 56.9 148.494 56.384C148.494 55.988 148.596 55.592 148.8 55.196C149.016 54.788 149.352 54.452 149.808 54.188C150.276 53.912 150.876 53.774 151.608 53.774C152.268 53.774 152.826 53.84 153.282 53.972C153.738 54.104 154.17 54.32 154.578 54.62L153.624 56.096C153.396 55.916 153.138 55.766 152.85 55.646C152.574 55.514 152.316 55.442 152.076 55.43C151.86 55.418 151.674 55.442 151.518 55.502C151.374 55.562 151.26 55.64 151.176 55.736C151.092 55.832 151.05 55.934 151.05 56.042C151.038 56.27 151.122 56.45 151.302 56.582C151.494 56.714 151.734 56.816 152.022 56.888C152.31 56.96 152.592 57.044 152.868 57.14C153.252 57.26 153.582 57.422 153.858 57.626C154.134 57.83 154.344 58.076 154.488 58.364C154.644 58.64 154.722 58.976 154.722 59.372C154.722 59.852 154.596 60.308 154.344 60.74C154.104 61.16 153.732 61.502 153.228 61.766C152.736 62.03 152.106 62.162 151.338 62.162Z" fill="black"/>
<path d="M662.71 4.752H665.32V18H662.71V4.752ZM670.611 10.134L670.809 11.538L670.773 11.412C671.049 10.92 671.439 10.524 671.943 10.224C672.447 9.912 673.065 9.756 673.797 9.756C674.541 9.756 675.159 9.978 675.651 10.422C676.155 10.854 676.413 11.418 676.425 12.114V18H673.905V13.05C673.893 12.702 673.797 12.426 673.617 12.222C673.449 12.006 673.161 11.898 672.753 11.898C672.369 11.898 672.033 12.024 671.745 12.276C671.457 12.528 671.235 12.87 671.079 13.302C670.923 13.734 670.845 14.232 670.845 14.796V18H668.325V10.134H670.611ZM679.751 6.678H682.271V10.098H684.179V12.06H682.271V18H679.751V12.06H678.527V10.098H679.751V6.678ZM689.967 18.216C689.007 18.216 688.191 18.036 687.519 17.676C686.859 17.316 686.355 16.818 686.007 16.182C685.659 15.546 685.485 14.814 685.485 13.986C685.485 13.194 685.689 12.48 686.097 11.844C686.505 11.208 687.051 10.704 687.735 10.332C688.419 9.948 689.181 9.756 690.021 9.756C691.149 9.756 692.073 10.086 692.793 10.746C693.525 11.394 693.999 12.336 694.215 13.572L688.095 15.516L687.537 14.148L691.965 12.654L691.443 12.888C691.347 12.576 691.173 12.306 690.921 12.078C690.681 11.838 690.315 11.718 689.823 11.718C689.451 11.718 689.121 11.808 688.833 11.988C688.557 12.156 688.341 12.402 688.185 12.726C688.041 13.038 687.969 13.41 687.969 13.842C687.969 14.334 688.059 14.748 688.239 15.084C688.419 15.408 688.665 15.654 688.977 15.822C689.289 15.99 689.637 16.074 690.021 16.074C690.297 16.074 690.561 16.026 690.813 15.93C691.077 15.834 691.335 15.708 691.587 15.552L692.703 17.424C692.283 17.664 691.827 17.856 691.335 18C690.855 18.144 690.399 18.216 689.967 18.216ZM698.314 10.134L698.548 12.294L698.494 11.97C698.722 11.502 699.034 11.106 699.43 10.782C699.826 10.446 700.216 10.188 700.6 10.008C700.996 9.828 701.296 9.738 701.5 9.738L701.374 12.258C700.786 12.186 700.282 12.282 699.862 12.546C699.442 12.81 699.118 13.158 698.89 13.59C698.662 14.022 698.548 14.466 698.548 14.922V18H696.046V10.134H698.314ZM705.715 10.134L705.913 11.538L705.877 11.412C706.153 10.92 706.543 10.524 707.047 10.224C707.551 9.912 708.169 9.756 708.901 9.756C709.645 9.756 710.263 9.978 710.755 10.422C711.259 10.854 711.517 11.418 711.529 12.114V18H709.009V13.05C708.997 12.702 708.901 12.426 708.721 12.222C708.553 12.006 708.265 11.898 707.857 11.898C707.473 11.898 707.137 12.024 706.849 12.276C706.561 12.528 706.339 12.87 706.183 13.302C706.027 13.734 705.949 14.232 705.949 14.796V18H703.429V10.134H705.715ZM717.428 18.216C716.696 18.216 716.03 18.072 715.43 17.784C714.842 17.484 714.374 17.028 714.026 16.416C713.678 15.804 713.504 15.024 713.504 14.076C713.504 13.188 713.684 12.42 714.044 11.772C714.404 11.124 714.878 10.626 715.466 10.278C716.054 9.918 716.678 9.738 717.338 9.738C718.118 9.738 718.706 9.87 719.102 10.134C719.51 10.386 719.846 10.668 720.11 10.98L720.002 11.286L720.236 10.134H722.576V18H720.056V16.29L720.254 16.83C720.23 16.83 720.158 16.902 720.038 17.046C719.918 17.178 719.738 17.34 719.498 17.532C719.27 17.712 718.982 17.868 718.634 18C718.298 18.144 717.896 18.216 717.428 18.216ZM718.148 16.164C718.448 16.164 718.718 16.122 718.958 16.038C719.198 15.942 719.408 15.81 719.588 15.642C719.768 15.462 719.924 15.24 720.056 14.976V13.05C719.96 12.786 719.816 12.564 719.624 12.384C719.432 12.192 719.204 12.048 718.94 11.952C718.676 11.844 718.382 11.79 718.058 11.79C717.698 11.79 717.362 11.886 717.05 12.078C716.75 12.258 716.51 12.51 716.33 12.834C716.15 13.158 716.06 13.53 716.06 13.95C716.06 14.37 716.156 14.748 716.348 15.084C716.54 15.42 716.792 15.684 717.104 15.876C717.428 16.068 717.776 16.164 718.148 16.164ZM725.173 3.798H727.693V18H725.173V3.798ZM738.698 18.162C738.05 18.162 737.444 18.048 736.88 17.82C736.328 17.592 735.86 17.274 735.476 16.866L736.52 15.48C736.904 15.828 737.258 16.08 737.582 16.236C737.918 16.38 738.218 16.452 738.482 16.452C738.686 16.452 738.866 16.434 739.022 16.398C739.19 16.35 739.322 16.284 739.418 16.2C739.514 16.104 739.562 15.984 739.562 15.84C739.562 15.636 739.478 15.474 739.31 15.354C739.154 15.234 738.95 15.138 738.698 15.066C738.446 14.982 738.176 14.898 737.888 14.814C737.168 14.586 736.646 14.256 736.322 13.824C736.01 13.38 735.854 12.9 735.854 12.384C735.854 11.988 735.956 11.592 736.16 11.196C736.376 10.788 736.712 10.452 737.168 10.188C737.636 9.912 738.236 9.774 738.968 9.774C739.628 9.774 740.186 9.84 740.642 9.972C741.098 10.104 741.53 10.32 741.938 10.62L740.984 12.096C740.756 11.916 740.498 11.766 740.21 11.646C739.934 11.514 739.676 11.442 739.436 11.43C739.22 11.418 739.034 11.442 738.878 11.502C738.734 11.562 738.62 11.64 738.536 11.736C738.452 11.832 738.41 11.934 738.41 12.042C738.398 12.27 738.482 12.45 738.662 12.582C738.854 12.714 739.094 12.816 739.382 12.888C739.67 12.96 739.952 13.044 740.228 13.14C740.612 13.26 740.942 13.422 741.218 13.626C741.494 13.83 741.704 14.076 741.848 14.364C742.004 14.64 742.082 14.976 742.082 15.372C742.082 15.852 741.956 16.308 741.704 16.74C741.464 17.16 741.092 17.502 740.588 17.766C740.096 18.03 739.466 18.162 738.698 18.162ZM744.93 6.678H747.45V10.098H749.358V12.06H747.45V18H744.93V12.06H743.706V10.098H744.93V6.678ZM754.588 18.216C753.856 18.216 753.19 18.072 752.59 17.784C752.002 17.484 751.534 17.028 751.186 16.416C750.838 15.804 750.664 15.024 750.664 14.076C750.664 13.188 750.844 12.42 751.204 11.772C751.564 11.124 752.038 10.626 752.626 10.278C753.214 9.918 753.838 9.738 754.498 9.738C755.278 9.738 755.866 9.87 756.262 10.134C756.67 10.386 757.006 10.668 757.27 10.98L757.162 11.286L757.396 10.134H759.736V18H757.216V16.29L757.414 16.83C757.39 16.83 757.318 16.902 757.198 17.046C757.078 17.178 756.898 17.34 756.658 17.532C756.43 17.712 756.142 17.868 755.794 18C755.458 18.144 755.056 18.216 754.588 18.216ZM755.308 16.164C755.608 16.164 755.878 16.122 756.118 16.038C756.358 15.942 756.568 15.81 756.748 15.642C756.928 15.462 757.084 15.24 757.216 14.976V13.05C757.12 12.786 756.976 12.564 756.784 12.384C756.592 12.192 756.364 12.048 756.1 11.952C755.836 11.844 755.542 11.79 755.218 11.79C754.858 11.79 754.522 11.886 754.21 12.078C753.91 12.258 753.67 12.51 753.49 12.834C753.31 13.158 753.22 13.53 753.22 13.95C753.22 14.37 753.316 14.748 753.508 15.084C753.7 15.42 753.952 15.684 754.264 15.876C754.588 16.068 754.936 16.164 755.308 16.164ZM762.333 18V3.798H764.853V18H762.333ZM766.851 12.654L770.415 18H767.481L765.195 14.094L766.851 12.654ZM764.097 15.822L763.845 13.428L768.597 9.936L770.127 11.286L764.097 15.822ZM775.836 18.216C774.876 18.216 774.06 18.036 773.388 17.676C772.728 17.316 772.224 16.818 771.876 16.182C771.528 15.546 771.354 14.814 771.354 13.986C771.354 13.194 771.558 12.48 771.966 11.844C772.374 11.208 772.92 10.704 773.604 10.332C774.288 9.948 775.05 9.756 775.89 9.756C777.018 9.756 777.942 10.086 778.662 10.746C779.394 11.394 779.868 12.336 780.084 13.572L773.964 15.516L773.406 14.148L777.834 12.654L777.312 12.888C777.216 12.576 777.042 12.306 776.79 12.078C776.55 11.838 776.184 11.718 775.692 11.718C775.32 11.718 774.99 11.808 774.702 11.988C774.426 12.156 774.21 12.402 774.054 12.726C773.91 13.038 773.838 13.41 773.838 13.842C773.838 14.334 773.928 14.748 774.108 15.084C774.288 15.408 774.534 15.654 774.846 15.822C775.158 15.99 775.506 16.074 775.89 16.074C776.166 16.074 776.43 16.026 776.682 15.93C776.946 15.834 777.204 15.708 777.456 15.552L778.572 17.424C778.152 17.664 777.696 17.856 777.204 18C776.724 18.144 776.268 18.216 775.836 18.216ZM781.915 18V3.798H784.381V11.718L784.363 11.412C784.639 10.92 785.029 10.524 785.533 10.224C786.037 9.912 786.655 9.756 787.387 9.756C788.131 9.756 788.749 9.978 789.241 10.422C789.745 10.854 790.003 11.418 790.015 12.114V18H787.495V13.05C787.483 12.702 787.387 12.426 787.207 12.222C787.039 12.006 786.751 11.898 786.343 11.898C785.959 11.898 785.623 12.024 785.335 12.276C785.047 12.528 784.825 12.87 784.669 13.302C784.513 13.734 784.435 14.232 784.435 14.796V18H781.915ZM791.991 13.968C791.991 13.164 792.177 12.444 792.549 11.808C792.933 11.172 793.467 10.674 794.151 10.314C794.835 9.942 795.621 9.756 796.509 9.756C797.409 9.756 798.189 9.942 798.849 10.314C799.509 10.674 800.013 11.172 800.361 11.808C800.721 12.444 800.901 13.164 800.901 13.968C800.901 14.772 800.721 15.498 800.361 16.146C800.013 16.782 799.509 17.286 798.849 17.658C798.189 18.03 797.397 18.216 796.473 18.216C795.609 18.216 794.835 18.048 794.151 17.712C793.479 17.376 792.951 16.89 792.567 16.254C792.183 15.618 791.991 14.856 791.991 13.968ZM794.529 13.986C794.529 14.394 794.613 14.766 794.781 15.102C794.949 15.426 795.177 15.684 795.465 15.876C795.753 16.068 796.077 16.164 796.437 16.164C796.833 16.164 797.175 16.068 797.463 15.876C797.751 15.684 797.973 15.426 798.129 15.102C798.285 14.766 798.363 14.394 798.363 13.986C798.363 13.566 798.285 13.194 798.129 12.87C797.973 12.546 797.751 12.288 797.463 12.096C797.175 11.904 796.833 11.808 796.437 11.808C796.077 11.808 795.753 11.904 795.465 12.096C795.177 12.288 794.949 12.546 794.781 12.87C794.613 13.194 794.529 13.566 794.529 13.986ZM802.886 3.798H805.406V18H802.886V3.798ZM811.205 18.216C810.473 18.216 809.819 18.048 809.243 17.712C808.667 17.364 808.211 16.866 807.875 16.218C807.551 15.57 807.389 14.802 807.389 13.914C807.389 13.026 807.569 12.27 807.929 11.646C808.289 11.022 808.781 10.548 809.405 10.224C810.029 9.9 810.737 9.738 811.529 9.738C812.033 9.738 812.513 9.816 812.969 9.972C813.437 10.128 813.827 10.368 814.139 10.692V11.484V3.798H816.641V18H814.121V16.47L814.319 17.01C813.911 17.346 813.455 17.634 812.951 17.874C812.447 18.102 811.865 18.216 811.205 18.216ZM812.033 16.092C812.369 16.092 812.663 16.05 812.915 15.966C813.179 15.87 813.407 15.738 813.599 15.57C813.803 15.39 813.977 15.168 814.121 14.904V12.978C814.025 12.714 813.875 12.492 813.671 12.312C813.479 12.12 813.239 11.976 812.951 11.88C812.675 11.772 812.369 11.718 812.033 11.718C811.661 11.718 811.313 11.814 810.989 12.006C810.677 12.186 810.425 12.438 810.233 12.762C810.041 13.086 809.945 13.458 809.945 13.878C809.945 14.298 810.041 14.676 810.233 15.012C810.425 15.348 810.677 15.612 810.989 15.804C811.313 15.996 811.661 16.092 812.033 16.092ZM823.104 18.216C822.144 18.216 821.328 18.036 820.656 17.676C819.996 17.316 819.492 16.818 819.144 16.182C818.796 15.546 818.622 14.814 818.622 13.986C818.622 13.194 818.826 12.48 819.234 11.844C819.642 11.208 820.188 10.704 820.872 10.332C821.556 9.948 822.318 9.756 823.158 9.756C824.286 9.756 825.21 10.086 825.93 10.746C826.662 11.394 827.135 12.336 827.352 13.572L821.232 15.516L820.674 14.148L825.102 12.654L824.58 12.888C824.484 12.576 824.31 12.306 824.058 12.078C823.818 11.838 823.452 11.718 822.96 11.718C822.588 11.718 822.258 11.808 821.97 11.988C821.694 12.156 821.478 12.402 821.322 12.726C821.178 13.038 821.106 13.41 821.106 13.842C821.106 14.334 821.196 14.748 821.376 15.084C821.556 15.408 821.802 15.654 822.114 15.822C822.426 15.99 822.774 16.074 823.158 16.074C823.434 16.074 823.698 16.026 823.95 15.93C824.214 15.834 824.472 15.708 824.724 15.552L825.84 17.424C825.42 17.664 824.964 17.856 824.472 18C823.992 18.144 823.536 18.216 823.104 18.216ZM831.451 10.134L831.685 12.294L831.631 11.97C831.859 11.502 832.171 11.106 832.567 10.782C832.963 10.446 833.353 10.188 833.737 10.008C834.133 9.828 834.433 9.738 834.637 9.738L834.511 12.258C833.923 12.186 833.419 12.282 832.999 12.546C832.579 12.81 832.255 13.158 832.027 13.59C831.799 14.022 831.685 14.466 831.685 14.922V18H829.183V10.134H831.451ZM839.122 18.162C838.474 18.162 837.868 18.048 837.304 17.82C836.752 17.592 836.284 17.274 835.9 16.866L836.944 15.48C837.328 15.828 837.682 16.08 838.006 16.236C838.342 16.38 838.642 16.452 838.906 16.452C839.11 16.452 839.29 16.434 839.446 16.398C839.614 16.35 839.746 16.284 839.842 16.2C839.938 16.104 839.986 15.984 839.986 15.84C839.986 15.636 839.902 15.474 839.734 15.354C839.578 15.234 839.374 15.138 839.122 15.066C838.87 14.982 838.6 14.898 838.312 14.814C837.592 14.586 837.07 14.256 836.746 13.824C836.434 13.38 836.278 12.9 836.278 12.384C836.278 11.988 836.38 11.592 836.584 11.196C836.8 10.788 837.136 10.452 837.592 10.188C838.06 9.912 838.66 9.774 839.392 9.774C840.052 9.774 840.61 9.84 841.066 9.972C841.522 10.104 841.954 10.32 842.362 10.62L841.408 12.096C841.18 11.916 840.922 11.766 840.634 11.646C840.358 11.514 840.1 11.442 839.86 11.43C839.644 11.418 839.458 11.442 839.302 11.502C839.158 11.562 839.044 11.64 838.96 11.736C838.876 11.832 838.834 11.934 838.834 12.042C838.822 12.27 838.906 12.45 839.086 12.582C839.278 12.714 839.518 12.816 839.806 12.888C840.094 12.96 840.376 13.044 840.652 13.14C841.036 13.26 841.366 13.422 841.642 13.626C841.918 13.83 842.128 14.076 842.272 14.364C842.428 14.64 842.506 14.976 842.506 15.372C842.506 15.852 842.38 16.308 842.128 16.74C841.888 17.16 841.516 17.502 841.012 17.766C840.52 18.03 839.89 18.162 839.122 18.162Z" fill="black"/>
<path d="M190.157 111.525L220 111.525C222.209 111.525 224 113.316 224 115.525L224 152.525C224 154.734 225.791 156.525 228 156.525L326.157 156.525" stroke="#ADB0B3"/>
<path d="M190.157 201.467L220 201.467C222.209 201.467 224 199.676 224 197.467L224 160.467C224 158.257 225.791 156.467 228 156.467L326.157 156.467" stroke="#ADB0B3"/>
<path d="M657.34 71L627.497 71C625.288 71 623.497 72.7909 623.497 75L623.497 152.525C623.497 154.734 621.706 156.525 619.497 156.525L521.34 156.525" stroke="#ADB0B3"/>
<path d="M657.34 236L627.497 236C625.288 236 623.497 234.209 623.497 232L623.497 160.466C623.497 158.257 621.706 156.466 619.497 156.466L521.34 156.467" stroke="#ADB0B3"/>
<line x1="605" y1="156.5" x2="658" y2="156.5" stroke="#ADB0B3"/>
</svg>
