<svg width="1354" height="327" viewBox="0 0 1354 327" fill="none" xmlns="http://www.w3.org/2000/svg">
<g opacity="0.6">
<line x1="4" y1="147.5" x2="1348" y2="147.5" stroke="#C6C8CB" stroke-width="3"/>
<rect x="2" y="122" width="3" height="46" fill="#C6C8CB"/>
<rect x="375" y="126" width="3" height="46" fill="#C6C8CB"/>
<rect x="748" y="126" width="3" height="46" fill="#C6C8CB"/>
<rect x="1121" y="126" width="3" height="46" fill="#C6C8CB"/>
<rect x="1347" y="126" width="3" height="46" fill="#C6C8CB"/>
<path d="M13.23 196.45L3.168 186.46L3.726 186.64L3.78 196H1.836V182.518H1.926L11.862 192.526L11.412 192.4L11.376 182.932H13.284V196.45H13.23ZM15.9088 192.148C15.9088 191.392 16.0888 190.714 16.4488 190.114C16.8088 189.502 17.3068 189.022 17.9428 188.674C18.5788 188.326 19.3048 188.152 20.1208 188.152C20.9488 188.152 21.6748 188.326 22.2988 188.674C22.9228 189.022 23.4028 189.502 23.7388 190.114C24.0868 190.714 24.2608 191.392 24.2608 192.148C24.2608 192.904 24.0868 193.588 23.7388 194.2C23.4028 194.812 22.9228 195.298 22.2988 195.658C21.6748 196.006 20.9428 196.18 20.1028 196.18C19.2988 196.18 18.5788 196.018 17.9428 195.694C17.3188 195.37 16.8208 194.908 16.4488 194.308C16.0888 193.696 15.9088 192.976 15.9088 192.148ZM17.7808 192.166C17.7808 192.634 17.8828 193.06 18.0868 193.444C18.2908 193.816 18.5668 194.116 18.9148 194.344C19.2628 194.56 19.6528 194.668 20.0848 194.668C20.5288 194.668 20.9248 194.56 21.2728 194.344C21.6208 194.116 21.8908 193.816 22.0828 193.444C22.2868 193.06 22.3888 192.634 22.3888 192.166C22.3888 191.698 22.2868 191.278 22.0828 190.906C21.8908 190.534 21.6208 190.234 21.2728 190.006C20.9248 189.778 20.5288 189.664 20.0848 189.664C19.6408 189.664 19.2448 189.778 18.8968 190.006C18.5488 190.234 18.2728 190.54 18.0688 190.924C17.8768 191.296 17.7808 191.71 17.7808 192.166ZM29.3747 196.198L25.1087 188.458H27.3047L30.0767 194.29L28.9427 194.236L31.4627 188.458H33.5327L29.4467 196.198H29.3747ZM41.4044 182.77L42.3404 183.22C42.0764 183.496 41.8724 183.844 41.7284 184.264C41.5844 184.684 41.5484 185.092 41.6204 185.488L40.1624 185.614C40.0904 185.194 40.0964 184.81 40.1804 184.462C40.2764 184.102 40.4324 183.778 40.6484 183.49C40.8764 183.202 41.1284 182.962 41.4044 182.77ZM43.845 196C44.589 195.244 45.309 194.512 46.005 193.804C46.701 193.096 47.325 192.406 47.877 191.734C48.441 191.062 48.879 190.414 49.191 189.79C49.515 189.166 49.677 188.56 49.677 187.972C49.677 187.612 49.617 187.3 49.497 187.036C49.389 186.76 49.233 186.538 49.029 186.37C48.825 186.19 48.597 186.058 48.345 185.974C48.093 185.878 47.823 185.83 47.535 185.83C47.163 185.83 46.845 185.89 46.581 186.01C46.317 186.13 46.101 186.286 45.933 186.478C45.777 186.658 45.657 186.856 45.573 187.072C45.489 187.288 45.447 187.504 45.447 187.72C45.447 188.116 45.507 188.47 45.627 188.782C45.759 189.094 45.933 189.364 46.149 189.592L44.979 190.672C44.679 190.492 44.421 190.234 44.205 189.898C44.001 189.55 43.845 189.184 43.737 188.8C43.629 188.416 43.575 188.074 43.575 187.774C43.575 187.114 43.737 186.502 44.061 185.938C44.397 185.362 44.883 184.894 45.519 184.534C46.167 184.174 46.947 183.994 47.859 183.994C48.627 183.994 49.293 184.168 49.857 184.516C50.433 184.864 50.877 185.332 51.189 185.92C51.513 186.496 51.675 187.126 51.675 187.81C51.675 188.398 51.561 188.974 51.333 189.538C51.105 190.102 50.799 190.66 50.415 191.212C50.043 191.752 49.623 192.292 49.155 192.832C48.699 193.36 48.243 193.894 47.787 194.434L46.923 194.146H52.017V196H43.845ZM53.7943 196C54.5383 195.244 55.2583 194.512 55.9543 193.804C56.6503 193.096 57.2743 192.406 57.8263 191.734C58.3903 191.062 58.8283 190.414 59.1403 189.79C59.4643 189.166 59.6263 188.56 59.6263 187.972C59.6263 187.612 59.5663 187.3 59.4463 187.036C59.3383 186.76 59.1823 186.538 58.9783 186.37C58.7743 186.19 58.5463 186.058 58.2943 185.974C58.0423 185.878 57.7723 185.83 57.4843 185.83C57.1123 185.83 56.7943 185.89 56.5303 186.01C56.2663 186.13 56.0503 186.286 55.8823 186.478C55.7263 186.658 55.6063 186.856 55.5223 187.072C55.4383 187.288 55.3963 187.504 55.3963 187.72C55.3963 188.116 55.4563 188.47 55.5763 188.782C55.7083 189.094 55.8823 189.364 56.0983 189.592L54.9283 190.672C54.6283 190.492 54.3703 190.234 54.1543 189.898C53.9503 189.55 53.7943 189.184 53.6863 188.8C53.5783 188.416 53.5243 188.074 53.5243 187.774C53.5243 187.114 53.6863 186.502 54.0103 185.938C54.3463 185.362 54.8323 184.894 55.4683 184.534C56.1163 184.174 56.8963 183.994 57.8083 183.994C58.5763 183.994 59.2423 184.168 59.8063 184.516C60.3823 184.864 60.8263 185.332 61.1383 185.92C61.4623 186.496 61.6243 187.126 61.6243 187.81C61.6243 188.398 61.5103 188.974 61.2823 189.538C61.0543 190.102 60.7483 190.66 60.3643 191.212C59.9923 191.752 59.5723 192.292 59.1043 192.832C58.6483 193.36 58.1923 193.894 57.7363 194.434L56.8723 194.146H61.9663V196H53.7943Z" fill="#C6C8CB"/>
<path d="M354.86 193.552C354.86 194.62 354.65 195.532 354.23 196.288C353.822 197.056 353.258 197.638 352.538 198.034C351.818 198.442 350.99 198.664 350.054 198.7V196.828C350.894 196.78 351.584 196.492 352.124 195.964C352.664 195.436 352.934 194.614 352.934 193.498V182.932H354.86V193.552ZM361.269 196.18C360.561 196.18 359.919 196.036 359.343 195.748C358.767 195.448 358.311 195.004 357.975 194.416C357.639 193.828 357.471 193.102 357.471 192.238C357.471 191.386 357.645 190.654 357.993 190.042C358.353 189.43 358.821 188.962 359.397 188.638C359.985 188.302 360.621 188.134 361.305 188.134C362.025 188.134 362.613 188.29 363.069 188.602C363.537 188.902 363.903 189.256 364.167 189.664L364.041 189.952L364.221 188.458H365.931V196H364.077V194.11L364.275 194.56C364.227 194.656 364.125 194.794 363.969 194.974C363.813 195.142 363.603 195.322 363.339 195.514C363.087 195.706 362.787 195.868 362.439 196C362.103 196.12 361.713 196.18 361.269 196.18ZM361.773 194.668C362.169 194.668 362.523 194.596 362.835 194.452C363.147 194.308 363.411 194.104 363.627 193.84C363.843 193.576 363.993 193.264 364.077 192.904V191.338C363.981 191.002 363.819 190.714 363.591 190.474C363.363 190.222 363.087 190.024 362.763 189.88C362.451 189.736 362.103 189.664 361.719 189.664C361.287 189.664 360.891 189.772 360.531 189.988C360.171 190.192 359.883 190.48 359.667 190.852C359.451 191.224 359.343 191.656 359.343 192.148C359.343 192.616 359.451 193.042 359.667 193.426C359.895 193.81 360.195 194.116 360.567 194.344C360.939 194.56 361.341 194.668 361.773 194.668ZM370.428 188.458L370.59 190.186L370.518 189.952C370.77 189.412 371.16 188.98 371.688 188.656C372.216 188.32 372.84 188.152 373.56 188.152C374.268 188.152 374.85 188.362 375.306 188.782C375.774 189.202 376.014 189.748 376.026 190.42V196H374.172V191.068C374.16 190.684 374.046 190.372 373.83 190.132C373.614 189.88 373.278 189.748 372.822 189.736C372.414 189.736 372.042 189.862 371.706 190.114C371.37 190.354 371.106 190.684 370.914 191.104C370.722 191.524 370.626 192.01 370.626 192.562V196H368.772V188.458H370.428ZM385.006 182.77L385.942 183.22C385.678 183.496 385.474 183.844 385.33 184.264C385.186 184.684 385.15 185.092 385.222 185.488L383.764 185.614C383.692 185.194 383.698 184.81 383.782 184.462C383.878 184.102 384.034 183.778 384.25 183.49C384.478 183.202 384.73 182.962 385.006 182.77ZM387.447 196C388.191 195.244 388.911 194.512 389.607 193.804C390.303 193.096 390.927 192.406 391.479 191.734C392.043 191.062 392.481 190.414 392.793 189.79C393.117 189.166 393.279 188.56 393.279 187.972C393.279 187.612 393.219 187.3 393.099 187.036C392.991 186.76 392.835 186.538 392.631 186.37C392.427 186.19 392.199 186.058 391.947 185.974C391.695 185.878 391.425 185.83 391.137 185.83C390.765 185.83 390.447 185.89 390.183 186.01C389.919 186.13 389.703 186.286 389.535 186.478C389.379 186.658 389.259 186.856 389.175 187.072C389.091 187.288 389.049 187.504 389.049 187.72C389.049 188.116 389.109 188.47 389.229 188.782C389.361 189.094 389.535 189.364 389.751 189.592L388.581 190.672C388.281 190.492 388.023 190.234 387.807 189.898C387.603 189.55 387.447 189.184 387.339 188.8C387.231 188.416 387.177 188.074 387.177 187.774C387.177 187.114 387.339 186.502 387.663 185.938C387.999 185.362 388.485 184.894 389.121 184.534C389.769 184.174 390.549 183.994 391.461 183.994C392.229 183.994 392.895 184.168 393.459 184.516C394.035 184.864 394.479 185.332 394.791 185.92C395.115 186.496 395.277 187.126 395.277 187.81C395.277 188.398 395.163 188.974 394.935 189.538C394.707 190.102 394.401 190.66 394.017 191.212C393.645 191.752 393.225 192.292 392.757 192.832C392.301 193.36 391.845 193.894 391.389 194.434L390.525 194.146H395.619V196H387.447ZM404.362 184.138L401.284 189.25L400.168 188.71C400.324 188.626 400.486 188.566 400.654 188.53C400.834 188.494 401.014 188.476 401.194 188.476C401.638 188.464 402.07 188.518 402.49 188.638C402.91 188.746 403.288 188.944 403.624 189.232C403.96 189.508 404.224 189.874 404.416 190.33C404.62 190.786 404.722 191.362 404.722 192.058C404.722 192.898 404.53 193.624 404.146 194.236C403.762 194.848 403.252 195.322 402.616 195.658C401.98 195.982 401.278 196.144 400.51 196.144C399.946 196.144 399.364 196.03 398.764 195.802C398.176 195.562 397.696 195.244 397.324 194.848L398.314 193.264C398.53 193.528 398.836 193.768 399.232 193.984C399.628 194.188 400.042 194.29 400.474 194.29C400.882 194.29 401.254 194.2 401.59 194.02C401.938 193.828 402.214 193.558 402.418 193.21C402.634 192.85 402.742 192.424 402.742 191.932C402.742 191.284 402.55 190.774 402.166 190.402C401.794 190.018 401.272 189.826 400.6 189.826C400.252 189.826 399.964 189.85 399.736 189.898C399.508 189.946 399.304 190 399.124 190.06L399.052 190.006L401.716 185.74L402.292 185.974H398.08V184.138H404.362Z" fill="#C6C8CB"/>
<path d="M720.836 196V182.5H720.854L727.802 192.346L726.974 192.166L733.886 182.5H733.922V196H732.014V186.838L732.14 187.828L727.316 194.65H727.28L722.366 187.828L722.69 186.928V196H720.836ZM740.324 196.18C739.616 196.18 738.974 196.036 738.398 195.748C737.822 195.448 737.366 195.004 737.03 194.416C736.694 193.828 736.526 193.102 736.526 192.238C736.526 191.386 736.7 190.654 737.048 190.042C737.408 189.43 737.876 188.962 738.452 188.638C739.04 188.302 739.676 188.134 740.36 188.134C741.08 188.134 741.668 188.29 742.124 188.602C742.592 188.902 742.958 189.256 743.222 189.664L743.096 189.952L743.276 188.458H744.986V196H743.132V194.11L743.33 194.56C743.282 194.656 743.18 194.794 743.024 194.974C742.868 195.142 742.658 195.322 742.394 195.514C742.142 195.706 741.842 195.868 741.494 196C741.158 196.12 740.768 196.18 740.324 196.18ZM740.828 194.668C741.224 194.668 741.578 194.596 741.89 194.452C742.202 194.308 742.466 194.104 742.682 193.84C742.898 193.576 743.048 193.264 743.132 192.904V191.338C743.036 191.002 742.874 190.714 742.646 190.474C742.418 190.222 742.142 190.024 741.818 189.88C741.506 189.736 741.158 189.664 740.774 189.664C740.342 189.664 739.946 189.772 739.586 189.988C739.226 190.192 738.938 190.48 738.722 190.852C738.506 191.224 738.398 191.656 738.398 192.148C738.398 192.616 738.506 193.042 738.722 193.426C738.95 193.81 739.25 194.116 739.622 194.344C739.994 194.56 740.396 194.668 740.828 194.668ZM749.482 188.458L749.662 190.618L749.572 190.33C749.776 189.874 750.064 189.484 750.436 189.16C750.808 188.836 751.192 188.59 751.588 188.422C751.996 188.242 752.338 188.152 752.614 188.152L752.524 189.988C751.948 189.952 751.444 190.06 751.012 190.312C750.592 190.564 750.262 190.9 750.022 191.32C749.782 191.74 749.662 192.19 749.662 192.67V196H747.826V188.458H749.482ZM760.861 182.77L761.797 183.22C761.533 183.496 761.329 183.844 761.185 184.264C761.041 184.684 761.005 185.092 761.077 185.488L759.619 185.614C759.547 185.194 759.553 184.81 759.637 184.462C759.733 184.102 759.889 183.778 760.105 183.49C760.333 183.202 760.585 182.962 760.861 182.77ZM763.302 196C764.046 195.244 764.766 194.512 765.462 193.804C766.158 193.096 766.782 192.406 767.334 191.734C767.898 191.062 768.336 190.414 768.648 189.79C768.972 189.166 769.134 188.56 769.134 187.972C769.134 187.612 769.074 187.3 768.954 187.036C768.846 186.76 768.69 186.538 768.486 186.37C768.282 186.19 768.054 186.058 767.802 185.974C767.55 185.878 767.28 185.83 766.992 185.83C766.62 185.83 766.302 185.89 766.038 186.01C765.774 186.13 765.558 186.286 765.39 186.478C765.234 186.658 765.114 186.856 765.03 187.072C764.946 187.288 764.904 187.504 764.904 187.72C764.904 188.116 764.964 188.47 765.084 188.782C765.216 189.094 765.39 189.364 765.606 189.592L764.436 190.672C764.136 190.492 763.878 190.234 763.662 189.898C763.458 189.55 763.302 189.184 763.194 188.8C763.086 188.416 763.032 188.074 763.032 187.774C763.032 187.114 763.194 186.502 763.518 185.938C763.854 185.362 764.34 184.894 764.976 184.534C765.624 184.174 766.404 183.994 767.316 183.994C768.084 183.994 768.75 184.168 769.314 184.516C769.89 184.864 770.334 185.332 770.646 185.92C770.97 186.496 771.132 187.126 771.132 187.81C771.132 188.398 771.018 188.974 770.79 189.538C770.562 190.102 770.256 190.66 769.872 191.212C769.5 191.752 769.08 192.292 768.612 192.832C768.156 193.36 767.7 193.894 767.244 194.434L766.38 194.146H771.474V196H763.302ZM780.217 184.138L777.139 189.25L776.023 188.71C776.179 188.626 776.341 188.566 776.509 188.53C776.689 188.494 776.869 188.476 777.049 188.476C777.493 188.464 777.925 188.518 778.345 188.638C778.765 188.746 779.143 188.944 779.479 189.232C779.815 189.508 780.079 189.874 780.271 190.33C780.475 190.786 780.577 191.362 780.577 192.058C780.577 192.898 780.385 193.624 780.001 194.236C779.617 194.848 779.107 195.322 778.471 195.658C777.835 195.982 777.133 196.144 776.365 196.144C775.801 196.144 775.219 196.03 774.619 195.802C774.031 195.562 773.551 195.244 773.179 194.848L774.169 193.264C774.385 193.528 774.691 193.768 775.087 193.984C775.483 194.188 775.897 194.29 776.329 194.29C776.737 194.29 777.109 194.2 777.445 194.02C777.793 193.828 778.069 193.558 778.273 193.21C778.489 192.85 778.597 192.424 778.597 191.932C778.597 191.284 778.405 190.774 778.021 190.402C777.649 190.018 777.127 189.826 776.455 189.826C776.107 189.826 775.819 189.85 775.591 189.898C775.363 189.946 775.159 190 774.979 190.06L774.907 190.006L777.571 185.74L778.147 185.974H773.935V184.138H780.217Z" fill="#C6C8CB"/>
<path d="M1080.84 196V182.5H1080.85L1087.8 192.346L1086.97 192.166L1093.89 182.5H1093.92V196H1092.01V186.838L1092.14 187.828L1087.32 194.65H1087.28L1082.37 187.828L1082.69 186.928V196H1080.84ZM1100.32 196.18C1099.62 196.18 1098.97 196.036 1098.4 195.748C1097.82 195.448 1097.37 195.004 1097.03 194.416C1096.69 193.828 1096.53 193.102 1096.53 192.238C1096.53 191.386 1096.7 190.654 1097.05 190.042C1097.41 189.43 1097.88 188.962 1098.45 188.638C1099.04 188.302 1099.68 188.134 1100.36 188.134C1101.08 188.134 1101.67 188.29 1102.12 188.602C1102.59 188.902 1102.96 189.256 1103.22 189.664L1103.1 189.952L1103.28 188.458H1104.99V196H1103.13V194.11L1103.33 194.56C1103.28 194.656 1103.18 194.794 1103.02 194.974C1102.87 195.142 1102.66 195.322 1102.39 195.514C1102.14 195.706 1101.84 195.868 1101.49 196C1101.16 196.12 1100.77 196.18 1100.32 196.18ZM1100.83 194.668C1101.22 194.668 1101.58 194.596 1101.89 194.452C1102.2 194.308 1102.47 194.104 1102.68 193.84C1102.9 193.576 1103.05 193.264 1103.13 192.904V191.338C1103.04 191.002 1102.87 190.714 1102.65 190.474C1102.42 190.222 1102.14 190.024 1101.82 189.88C1101.51 189.736 1101.16 189.664 1100.77 189.664C1100.34 189.664 1099.95 189.772 1099.59 189.988C1099.23 190.192 1098.94 190.48 1098.72 190.852C1098.51 191.224 1098.4 191.656 1098.4 192.148C1098.4 192.616 1098.51 193.042 1098.72 193.426C1098.95 193.81 1099.25 194.116 1099.62 194.344C1099.99 194.56 1100.4 194.668 1100.83 194.668ZM1108.46 199.618L1113.44 188.458H1115.13L1110.27 199.618H1108.46ZM1110.36 196.054L1106.71 188.458H1108.8L1111.79 195.118L1110.36 196.054ZM1123.01 182.77L1123.94 183.22C1123.68 183.496 1123.47 183.844 1123.33 184.264C1123.19 184.684 1123.15 185.092 1123.22 185.488L1121.76 185.614C1121.69 185.194 1121.7 184.81 1121.78 184.462C1121.88 184.102 1122.03 183.778 1122.25 183.49C1122.48 183.202 1122.73 182.962 1123.01 182.77ZM1125.45 196C1126.19 195.244 1126.91 194.512 1127.61 193.804C1128.3 193.096 1128.93 192.406 1129.48 191.734C1130.04 191.062 1130.48 190.414 1130.79 189.79C1131.12 189.166 1131.28 188.56 1131.28 187.972C1131.28 187.612 1131.22 187.3 1131.1 187.036C1130.99 186.76 1130.83 186.538 1130.63 186.37C1130.43 186.19 1130.2 186.058 1129.95 185.974C1129.69 185.878 1129.42 185.83 1129.14 185.83C1128.76 185.83 1128.45 185.89 1128.18 186.01C1127.92 186.13 1127.7 186.286 1127.53 186.478C1127.38 186.658 1127.26 186.856 1127.17 187.072C1127.09 187.288 1127.05 187.504 1127.05 187.72C1127.05 188.116 1127.11 188.47 1127.23 188.782C1127.36 189.094 1127.53 189.364 1127.75 189.592L1126.58 190.672C1126.28 190.492 1126.02 190.234 1125.81 189.898C1125.6 189.55 1125.45 189.184 1125.34 188.8C1125.23 188.416 1125.18 188.074 1125.18 187.774C1125.18 187.114 1125.34 186.502 1125.66 185.938C1126 185.362 1126.48 184.894 1127.12 184.534C1127.77 184.174 1128.55 183.994 1129.46 183.994C1130.23 183.994 1130.89 184.168 1131.46 184.516C1132.03 184.864 1132.48 185.332 1132.79 185.92C1133.11 186.496 1133.28 187.126 1133.28 187.81C1133.28 188.398 1133.16 188.974 1132.93 189.538C1132.71 190.102 1132.4 190.66 1132.02 191.212C1131.64 191.752 1131.22 192.292 1130.76 192.832C1130.3 193.36 1129.84 193.894 1129.39 194.434L1128.52 194.146H1133.62V196H1125.45ZM1142.36 184.138L1139.28 189.25L1138.17 188.71C1138.32 188.626 1138.49 188.566 1138.65 188.53C1138.83 188.494 1139.01 188.476 1139.19 188.476C1139.64 188.464 1140.07 188.518 1140.49 188.638C1140.91 188.746 1141.29 188.944 1141.62 189.232C1141.96 189.508 1142.22 189.874 1142.42 190.33C1142.62 190.786 1142.72 191.362 1142.72 192.058C1142.72 192.898 1142.53 193.624 1142.15 194.236C1141.76 194.848 1141.25 195.322 1140.62 195.658C1139.98 195.982 1139.28 196.144 1138.51 196.144C1137.95 196.144 1137.36 196.03 1136.76 195.802C1136.18 195.562 1135.7 195.244 1135.32 194.848L1136.31 193.264C1136.53 193.528 1136.84 193.768 1137.23 193.984C1137.63 194.188 1138.04 194.29 1138.47 194.29C1138.88 194.29 1139.25 194.2 1139.59 194.02C1139.94 193.828 1140.21 193.558 1140.42 193.21C1140.63 192.85 1140.74 192.424 1140.74 191.932C1140.74 191.284 1140.55 190.774 1140.17 190.402C1139.79 190.018 1139.27 189.826 1138.6 189.826C1138.25 189.826 1137.96 189.85 1137.74 189.898C1137.51 189.946 1137.3 190 1137.12 190.06L1137.05 190.006L1139.72 185.74L1140.29 185.974H1136.08V184.138H1142.36Z" fill="#C6C8CB"/>
<path d="M1302.86 193.552C1302.86 194.62 1302.65 195.532 1302.23 196.288C1301.82 197.056 1301.26 197.638 1300.54 198.034C1299.82 198.442 1298.99 198.664 1298.05 198.7V196.828C1298.89 196.78 1299.58 196.492 1300.12 195.964C1300.66 195.436 1300.93 194.614 1300.93 193.498V182.932H1302.86V193.552ZM1308.53 196.306C1307.84 196.306 1307.27 196.096 1306.82 195.676C1306.38 195.256 1306.14 194.716 1306.12 194.056V188.458H1307.97V193.39C1308 193.774 1308.11 194.092 1308.3 194.344C1308.5 194.584 1308.83 194.71 1309.27 194.722C1309.68 194.722 1310.04 194.602 1310.35 194.362C1310.67 194.11 1310.93 193.774 1311.11 193.354C1311.3 192.922 1311.39 192.43 1311.39 191.878V188.458H1313.25V196H1311.57L1311.43 194.254L1311.5 194.542C1311.35 194.878 1311.12 195.184 1310.84 195.46C1310.55 195.724 1310.21 195.928 1309.81 196.072C1309.41 196.228 1308.99 196.306 1308.53 196.306ZM1317.74 188.458L1317.9 190.186L1317.83 189.952C1318.08 189.412 1318.47 188.98 1319 188.656C1319.53 188.32 1320.15 188.152 1320.87 188.152C1321.58 188.152 1322.16 188.362 1322.62 188.782C1323.09 189.202 1323.33 189.748 1323.34 190.42V196H1321.49V191.068C1321.47 190.684 1321.36 190.372 1321.14 190.132C1320.93 189.88 1320.59 189.748 1320.14 189.736C1319.73 189.736 1319.36 189.862 1319.02 190.114C1318.68 190.354 1318.42 190.684 1318.23 191.104C1318.04 191.524 1317.94 192.01 1317.94 192.562V196H1316.09V188.458H1317.74ZM1332.32 182.77L1333.26 183.22C1332.99 183.496 1332.79 183.844 1332.64 184.264C1332.5 184.684 1332.46 185.092 1332.54 185.488L1331.08 185.614C1331.01 185.194 1331.01 184.81 1331.1 184.462C1331.19 184.102 1331.35 183.778 1331.56 183.49C1331.79 183.202 1332.04 182.962 1332.32 182.77ZM1334.76 196C1335.51 195.244 1336.23 194.512 1336.92 193.804C1337.62 193.096 1338.24 192.406 1338.79 191.734C1339.36 191.062 1339.8 190.414 1340.11 189.79C1340.43 189.166 1340.59 188.56 1340.59 187.972C1340.59 187.612 1340.53 187.3 1340.41 187.036C1340.31 186.76 1340.15 186.538 1339.95 186.37C1339.74 186.19 1339.51 186.058 1339.26 185.974C1339.01 185.878 1338.74 185.83 1338.45 185.83C1338.08 185.83 1337.76 185.89 1337.5 186.01C1337.23 186.13 1337.02 186.286 1336.85 186.478C1336.69 186.658 1336.57 186.856 1336.49 187.072C1336.41 187.288 1336.36 187.504 1336.36 187.72C1336.36 188.116 1336.42 188.47 1336.54 188.782C1336.68 189.094 1336.85 189.364 1337.07 189.592L1335.9 190.672C1335.6 190.492 1335.34 190.234 1335.12 189.898C1334.92 189.55 1334.76 189.184 1334.65 188.8C1334.55 188.416 1334.49 188.074 1334.49 187.774C1334.49 187.114 1334.65 186.502 1334.98 185.938C1335.31 185.362 1335.8 184.894 1336.44 184.534C1337.08 184.174 1337.86 183.994 1338.78 183.994C1339.54 183.994 1340.21 184.168 1340.77 184.516C1341.35 184.864 1341.79 185.332 1342.11 185.92C1342.43 186.496 1342.59 187.126 1342.59 187.81C1342.59 188.398 1342.48 188.974 1342.25 189.538C1342.02 190.102 1341.72 190.66 1341.33 191.212C1340.96 191.752 1340.54 192.292 1340.07 192.832C1339.62 193.36 1339.16 193.894 1338.7 194.434L1337.84 194.146H1342.93V196H1334.76ZM1351.68 184.138L1348.6 189.25L1347.48 188.71C1347.64 188.626 1347.8 188.566 1347.97 188.53C1348.15 188.494 1348.33 188.476 1348.51 188.476C1348.95 188.464 1349.38 188.518 1349.8 188.638C1350.22 188.746 1350.6 188.944 1350.94 189.232C1351.27 189.508 1351.54 189.874 1351.73 190.33C1351.93 190.786 1352.04 191.362 1352.04 192.058C1352.04 192.898 1351.84 193.624 1351.46 194.236C1351.08 194.848 1350.57 195.322 1349.93 195.658C1349.29 195.982 1348.59 196.144 1347.82 196.144C1347.26 196.144 1346.68 196.03 1346.08 195.802C1345.49 195.562 1345.01 195.244 1344.64 194.848L1345.63 193.264C1345.84 193.528 1346.15 193.768 1346.55 193.984C1346.94 194.188 1347.36 194.29 1347.79 194.29C1348.2 194.29 1348.57 194.2 1348.9 194.02C1349.25 193.828 1349.53 193.558 1349.73 193.21C1349.95 192.85 1350.06 192.424 1350.06 191.932C1350.06 191.284 1349.86 190.774 1349.48 190.402C1349.11 190.018 1348.59 189.826 1347.91 189.826C1347.57 189.826 1347.28 189.85 1347.05 189.898C1346.82 189.946 1346.62 190 1346.44 190.06L1346.37 190.006L1349.03 185.74L1349.61 185.974H1345.39V184.138H1351.68Z" fill="#C6C8CB"/>
</g>
<rect x="560" y="228" width="553" height="99" fill="#79E2D5"/>
<path d="M783.71 282V268.752H787.67C789.002 268.752 790.136 268.95 791.072 269.346C792.008 269.742 792.758 270.27 793.322 270.93C793.898 271.59 794.318 272.328 794.582 273.144C794.846 273.96 794.978 274.782 794.978 275.61C794.978 276.594 794.798 277.482 794.438 278.274C794.09 279.054 793.61 279.726 792.998 280.29C792.386 280.842 791.678 281.268 790.874 281.568C790.07 281.856 789.218 282 788.318 282H783.71ZM786.32 279.48H787.868C788.528 279.48 789.128 279.396 789.668 279.228C790.208 279.048 790.67 278.79 791.054 278.454C791.45 278.118 791.75 277.698 791.954 277.194C792.17 276.678 792.278 276.09 792.278 275.43C792.278 274.566 792.134 273.864 791.846 273.324C791.57 272.772 791.222 272.346 790.802 272.046C790.394 271.746 789.974 271.542 789.542 271.434C789.11 271.314 788.744 271.254 788.444 271.254H786.32V279.48ZM801.053 282.216C800.093 282.216 799.277 282.036 798.605 281.676C797.945 281.316 797.441 280.818 797.093 280.182C796.745 279.546 796.571 278.814 796.571 277.986C796.571 277.194 796.775 276.48 797.183 275.844C797.591 275.208 798.137 274.704 798.821 274.332C799.505 273.948 800.267 273.756 801.107 273.756C802.235 273.756 803.159 274.086 803.879 274.746C804.611 275.394 805.085 276.336 805.301 277.572L799.181 279.516L798.623 278.148L803.051 276.654L802.529 276.888C802.433 276.576 802.259 276.306 802.007 276.078C801.767 275.838 801.401 275.718 800.909 275.718C800.537 275.718 800.207 275.808 799.919 275.988C799.643 276.156 799.427 276.402 799.271 276.726C799.127 277.038 799.055 277.41 799.055 277.842C799.055 278.334 799.145 278.748 799.325 279.084C799.505 279.408 799.751 279.654 800.063 279.822C800.375 279.99 800.723 280.074 801.107 280.074C801.383 280.074 801.647 280.026 801.899 279.93C802.163 279.834 802.421 279.708 802.673 279.552L803.789 281.424C803.369 281.664 802.913 281.856 802.421 282C801.941 282.144 801.485 282.216 801.053 282.216ZM810.38 282.162L805.664 274.134H808.652L811.334 279.57L809.786 279.516L812.108 274.134H814.916L810.452 282.162H810.38ZM822.249 282V267.798H824.715V275.718L824.697 275.412C824.973 274.92 825.363 274.524 825.867 274.224C826.371 273.912 826.989 273.756 827.721 273.756C828.465 273.756 829.083 273.978 829.575 274.422C830.079 274.854 830.337 275.418 830.349 276.114V282H827.829V277.05C827.817 276.702 827.721 276.426 827.541 276.222C827.373 276.006 827.085 275.898 826.677 275.898C826.293 275.898 825.957 276.024 825.669 276.276C825.381 276.528 825.159 276.87 825.003 277.302C824.847 277.734 824.769 278.232 824.769 278.796V282H822.249ZM836.249 282.216C835.517 282.216 834.851 282.072 834.251 281.784C833.663 281.484 833.195 281.028 832.847 280.416C832.499 279.804 832.325 279.024 832.325 278.076C832.325 277.188 832.505 276.42 832.865 275.772C833.225 275.124 833.699 274.626 834.287 274.278C834.875 273.918 835.499 273.738 836.159 273.738C836.939 273.738 837.527 273.87 837.923 274.134C838.331 274.386 838.667 274.668 838.931 274.98L838.823 275.286L839.057 274.134H841.397V282H838.877V280.29L839.075 280.83C839.051 280.83 838.979 280.902 838.859 281.046C838.739 281.178 838.559 281.34 838.319 281.532C838.091 281.712 837.803 281.868 837.455 282C837.119 282.144 836.717 282.216 836.249 282.216ZM836.969 280.164C837.269 280.164 837.539 280.122 837.779 280.038C838.019 279.942 838.229 279.81 838.409 279.642C838.589 279.462 838.745 279.24 838.877 278.976V277.05C838.781 276.786 838.637 276.564 838.445 276.384C838.253 276.192 838.025 276.048 837.761 275.952C837.497 275.844 837.203 275.79 836.879 275.79C836.519 275.79 836.183 275.886 835.871 276.078C835.571 276.258 835.331 276.51 835.151 276.834C834.971 277.158 834.881 277.53 834.881 277.95C834.881 278.37 834.977 278.748 835.169 279.084C835.361 279.42 835.613 279.684 835.925 279.876C836.249 280.068 836.597 280.164 836.969 280.164ZM846.279 274.134L846.477 275.538L846.441 275.412C846.717 274.92 847.107 274.524 847.611 274.224C848.115 273.912 848.733 273.756 849.465 273.756C850.209 273.756 850.827 273.978 851.319 274.422C851.823 274.854 852.081 275.418 852.093 276.114V282H849.573V277.05C849.561 276.702 849.465 276.426 849.285 276.222C849.117 276.006 848.829 275.898 848.421 275.898C848.037 275.898 847.701 276.024 847.413 276.276C847.125 276.528 846.903 276.87 846.747 277.302C846.591 277.734 846.513 278.232 846.513 278.796V282H843.993V274.134H846.279ZM857.885 282.216C857.153 282.216 856.499 282.048 855.923 281.712C855.347 281.364 854.891 280.866 854.555 280.218C854.231 279.57 854.069 278.802 854.069 277.914C854.069 277.026 854.249 276.27 854.609 275.646C854.969 275.022 855.461 274.548 856.085 274.224C856.709 273.9 857.417 273.738 858.209 273.738C858.713 273.738 859.193 273.816 859.649 273.972C860.117 274.128 860.507 274.368 860.819 274.692V275.484V267.798H863.321V282H860.801V280.47L860.999 281.01C860.591 281.346 860.135 281.634 859.631 281.874C859.127 282.102 858.545 282.216 857.885 282.216ZM858.713 280.092C859.049 280.092 859.343 280.05 859.595 279.966C859.859 279.87 860.087 279.738 860.279 279.57C860.483 279.39 860.657 279.168 860.801 278.904V276.978C860.705 276.714 860.555 276.492 860.351 276.312C860.159 276.12 859.919 275.976 859.631 275.88C859.355 275.772 859.049 275.718 858.713 275.718C858.341 275.718 857.993 275.814 857.669 276.006C857.357 276.186 857.105 276.438 856.913 276.762C856.721 277.086 856.625 277.458 856.625 277.878C856.625 278.298 856.721 278.676 856.913 279.012C857.105 279.348 857.357 279.612 857.669 279.804C857.993 279.996 858.341 280.092 858.713 280.092ZM865.301 277.968C865.301 277.164 865.487 276.444 865.859 275.808C866.243 275.172 866.777 274.674 867.461 274.314C868.145 273.942 868.931 273.756 869.819 273.756C870.719 273.756 871.499 273.942 872.159 274.314C872.819 274.674 873.323 275.172 873.671 275.808C874.031 276.444 874.211 277.164 874.211 277.968C874.211 278.772 874.031 279.498 873.671 280.146C873.323 280.782 872.819 281.286 872.159 281.658C871.499 282.03 870.707 282.216 869.783 282.216C868.919 282.216 868.145 282.048 867.461 281.712C866.789 281.376 866.261 280.89 865.877 280.254C865.493 279.618 865.301 278.856 865.301 277.968ZM867.839 277.986C867.839 278.394 867.923 278.766 868.091 279.102C868.259 279.426 868.487 279.684 868.775 279.876C869.063 280.068 869.387 280.164 869.747 280.164C870.143 280.164 870.485 280.068 870.773 279.876C871.061 279.684 871.283 279.426 871.439 279.102C871.595 278.766 871.673 278.394 871.673 277.986C871.673 277.566 871.595 277.194 871.439 276.87C871.283 276.546 871.061 276.288 870.773 276.096C870.485 275.904 870.143 275.808 869.747 275.808C869.387 275.808 869.063 275.904 868.775 276.096C868.487 276.288 868.259 276.546 868.091 276.87C867.923 277.194 867.839 277.566 867.839 277.986ZM876.952 282V276.33H875.62V274.098H876.952V271.362C876.952 270.33 877.246 269.49 877.834 268.842C878.434 268.182 879.298 267.852 880.426 267.852C880.762 267.852 881.134 267.906 881.542 268.014C881.962 268.11 882.328 268.272 882.64 268.5L881.578 270.318C881.458 270.162 881.314 270.06 881.146 270.012C880.99 269.952 880.84 269.922 880.696 269.922C880.336 269.922 880.042 270.042 879.814 270.282C879.586 270.522 879.472 270.906 879.472 271.434V274.098H881.848V276.33H879.472V282H876.952ZM884.775 282V276.33H883.443V274.098H884.775V271.362C884.775 270.33 885.069 269.49 885.657 268.842C886.257 268.182 887.121 267.852 888.249 267.852C888.585 267.852 888.957 267.906 889.365 268.014C889.785 268.11 890.151 268.272 890.463 268.5L889.401 270.318C889.281 270.162 889.137 270.06 888.969 270.012C888.813 269.952 888.663 269.922 888.519 269.922C888.159 269.922 887.865 270.042 887.637 270.282C887.409 270.522 887.295 270.906 887.295 271.434V274.098H889.671V276.33H887.295V282H884.775Z" fill="black"/>
<rect x="977" width="271" height="99" fill="#04C5AD"/>
<path d="M1061.71 40.752H1064.32V51.48H1070.55V54H1061.71V40.752ZM1072.22 49.968C1072.22 49.164 1072.4 48.444 1072.77 47.808C1073.16 47.172 1073.69 46.674 1074.38 46.314C1075.06 45.942 1075.85 45.756 1076.73 45.756C1077.63 45.756 1078.41 45.942 1079.07 46.314C1079.73 46.674 1080.24 47.172 1080.59 47.808C1080.95 48.444 1081.13 49.164 1081.13 49.968C1081.13 50.772 1080.95 51.498 1080.59 52.146C1080.24 52.782 1079.73 53.286 1079.07 53.658C1078.41 54.03 1077.62 54.216 1076.7 54.216C1075.83 54.216 1075.06 54.048 1074.38 53.712C1073.7 53.376 1073.18 52.89 1072.79 52.254C1072.41 51.618 1072.22 50.856 1072.22 49.968ZM1074.75 49.986C1074.75 50.394 1074.84 50.766 1075.01 51.102C1075.17 51.426 1075.4 51.684 1075.69 51.876C1075.98 52.068 1076.3 52.164 1076.66 52.164C1077.06 52.164 1077.4 52.068 1077.69 51.876C1077.98 51.684 1078.2 51.426 1078.35 51.102C1078.51 50.766 1078.59 50.394 1078.59 49.986C1078.59 49.566 1078.51 49.194 1078.35 48.87C1078.2 48.546 1077.98 48.288 1077.69 48.096C1077.4 47.904 1077.06 47.808 1076.66 47.808C1076.3 47.808 1075.98 47.904 1075.69 48.096C1075.4 48.288 1075.17 48.546 1075.01 48.87C1074.84 49.194 1074.75 49.566 1074.75 49.986ZM1089.79 53.298C1089.44 53.574 1089 53.796 1088.47 53.964C1087.96 54.132 1087.45 54.216 1086.94 54.216C1086.04 54.216 1085.26 54.054 1084.59 53.73C1083.93 53.394 1083.41 52.92 1083.04 52.308C1082.68 51.684 1082.5 50.934 1082.5 50.058C1082.5 49.182 1082.7 48.438 1083.09 47.826C1083.49 47.202 1084 46.728 1084.64 46.404C1085.29 46.08 1085.97 45.918 1086.67 45.918C1087.38 45.918 1087.99 46.014 1088.51 46.206C1089.04 46.398 1089.49 46.65 1089.86 46.962L1088.64 48.582C1088.47 48.45 1088.23 48.318 1087.93 48.186C1087.65 48.042 1087.3 47.97 1086.91 47.97C1086.56 47.97 1086.24 48.06 1085.95 48.24C1085.67 48.42 1085.44 48.666 1085.27 48.978C1085.1 49.29 1085.02 49.65 1085.02 50.058C1085.02 50.442 1085.11 50.796 1085.29 51.12C1085.47 51.444 1085.71 51.702 1086.03 51.894C1086.35 52.074 1086.73 52.164 1087.16 52.164C1087.44 52.164 1087.69 52.128 1087.92 52.056C1088.16 51.972 1088.36 51.858 1088.53 51.714L1089.79 53.298ZM1095.04 54.216C1094.3 54.216 1093.64 54.072 1093.04 53.784C1092.45 53.484 1091.98 53.028 1091.63 52.416C1091.29 51.804 1091.11 51.024 1091.11 50.076C1091.11 49.188 1091.29 48.42 1091.65 47.772C1092.01 47.124 1092.49 46.626 1093.07 46.278C1093.66 45.918 1094.29 45.738 1094.95 45.738C1095.73 45.738 1096.31 45.87 1096.71 46.134C1097.12 46.386 1097.45 46.668 1097.72 46.98L1097.61 47.286L1097.84 46.134H1100.18V54H1097.66V52.29L1097.86 52.83C1097.84 52.83 1097.77 52.902 1097.65 53.046C1097.53 53.178 1097.35 53.34 1097.11 53.532C1096.88 53.712 1096.59 53.868 1096.24 54C1095.91 54.144 1095.5 54.216 1095.04 54.216ZM1095.76 52.164C1096.06 52.164 1096.33 52.122 1096.57 52.038C1096.81 51.942 1097.02 51.81 1097.2 51.642C1097.38 51.462 1097.53 51.24 1097.66 50.976V49.05C1097.57 48.786 1097.42 48.564 1097.23 48.384C1097.04 48.192 1096.81 48.048 1096.55 47.952C1096.28 47.844 1095.99 47.79 1095.67 47.79C1095.31 47.79 1094.97 47.886 1094.66 48.078C1094.36 48.258 1094.12 48.51 1093.94 48.834C1093.76 49.158 1093.67 49.53 1093.67 49.95C1093.67 50.37 1093.76 50.748 1093.96 51.084C1094.15 51.42 1094.4 51.684 1094.71 51.876C1095.04 52.068 1095.38 52.164 1095.76 52.164ZM1102.78 39.798H1105.3V54H1102.78V39.798ZM1107.9 46.134H1110.42V54H1107.9V46.134ZM1107.84 43.344C1107.84 42.972 1107.99 42.666 1108.27 42.426C1108.57 42.186 1108.89 42.066 1109.23 42.066C1109.56 42.066 1109.87 42.186 1110.15 42.426C1110.43 42.666 1110.58 42.972 1110.58 43.344C1110.58 43.716 1110.43 44.022 1110.15 44.262C1109.87 44.49 1109.56 44.604 1109.23 44.604C1108.89 44.604 1108.57 44.49 1108.27 44.262C1107.99 44.022 1107.84 43.716 1107.84 43.344ZM1114.23 48.186C1113.8 48.186 1113.42 48.03 1113.1 47.718C1112.78 47.406 1112.61 46.986 1112.61 46.458V45.378H1114.5V45.63C1114.5 45.882 1114.55 46.032 1114.63 46.08C1114.73 46.116 1114.89 46.134 1115.12 46.134H1120.1L1115.75 52.47L1115.28 51.948H1120.05V54H1112.07L1116.56 47.466L1116.93 48.186H1114.23ZM1125.73 54.216C1125 54.216 1124.33 54.072 1123.73 53.784C1123.14 53.484 1122.67 53.028 1122.33 52.416C1121.98 51.804 1121.8 51.024 1121.8 50.076C1121.8 49.188 1121.98 48.42 1122.34 47.772C1122.7 47.124 1123.18 46.626 1123.77 46.278C1124.35 45.918 1124.98 45.738 1125.64 45.738C1126.42 45.738 1127.01 45.87 1127.4 46.134C1127.81 46.386 1128.15 46.668 1128.41 46.98L1128.3 47.286L1128.54 46.134H1130.88V54H1128.36V52.29L1128.55 52.83C1128.53 52.83 1128.46 52.902 1128.34 53.046C1128.22 53.178 1128.04 53.34 1127.8 53.532C1127.57 53.712 1127.28 53.868 1126.93 54C1126.6 54.144 1126.2 54.216 1125.73 54.216ZM1126.45 52.164C1126.75 52.164 1127.02 52.122 1127.26 52.038C1127.5 51.942 1127.71 51.81 1127.89 51.642C1128.07 51.462 1128.22 51.24 1128.36 50.976V49.05C1128.26 48.786 1128.12 48.564 1127.92 48.384C1127.73 48.192 1127.5 48.048 1127.24 47.952C1126.98 47.844 1126.68 47.79 1126.36 47.79C1126 47.79 1125.66 47.886 1125.35 48.078C1125.05 48.258 1124.81 48.51 1124.63 48.834C1124.45 49.158 1124.36 49.53 1124.36 49.95C1124.36 50.37 1124.46 50.748 1124.65 51.084C1124.84 51.42 1125.09 51.684 1125.4 51.876C1125.73 52.068 1126.08 52.164 1126.45 52.164ZM1134.21 42.678H1136.73V46.098H1138.64V48.06H1136.73V54H1134.21V48.06H1132.99V46.098H1134.21V42.678ZM1140.56 46.134H1143.08V54H1140.56V46.134ZM1140.5 43.344C1140.5 42.972 1140.65 42.666 1140.93 42.426C1141.23 42.186 1141.55 42.066 1141.89 42.066C1142.22 42.066 1142.53 42.186 1142.81 42.426C1143.09 42.666 1143.24 42.972 1143.24 43.344C1143.24 43.716 1143.09 44.022 1142.81 44.262C1142.53 44.49 1142.22 44.604 1141.89 44.604C1141.55 44.604 1141.23 44.49 1140.93 44.262C1140.65 44.022 1140.5 43.716 1140.5 43.344ZM1145.06 49.968C1145.06 49.164 1145.25 48.444 1145.62 47.808C1146 47.172 1146.54 46.674 1147.22 46.314C1147.9 45.942 1148.69 45.756 1149.58 45.756C1150.48 45.756 1151.26 45.942 1151.92 46.314C1152.58 46.674 1153.08 47.172 1153.43 47.808C1153.79 48.444 1153.97 49.164 1153.97 49.968C1153.97 50.772 1153.79 51.498 1153.43 52.146C1153.08 52.782 1152.58 53.286 1151.92 53.658C1151.26 54.03 1150.47 54.216 1149.54 54.216C1148.68 54.216 1147.9 54.048 1147.22 53.712C1146.55 53.376 1146.02 52.89 1145.64 52.254C1145.25 51.618 1145.06 50.856 1145.06 49.968ZM1147.6 49.986C1147.6 50.394 1147.68 50.766 1147.85 51.102C1148.02 51.426 1148.25 51.684 1148.53 51.876C1148.82 52.068 1149.15 52.164 1149.51 52.164C1149.9 52.164 1150.24 52.068 1150.53 51.876C1150.82 51.684 1151.04 51.426 1151.2 51.102C1151.35 50.766 1151.43 50.394 1151.43 49.986C1151.43 49.566 1151.35 49.194 1151.2 48.87C1151.04 48.546 1150.82 48.288 1150.53 48.096C1150.24 47.904 1149.9 47.808 1149.51 47.808C1149.15 47.808 1148.82 47.904 1148.53 48.096C1148.25 48.288 1148.02 48.546 1147.85 48.87C1147.68 49.194 1147.6 49.566 1147.6 49.986ZM1158.24 46.134L1158.44 47.538L1158.4 47.412C1158.68 46.92 1159.07 46.524 1159.57 46.224C1160.08 45.912 1160.69 45.756 1161.43 45.756C1162.17 45.756 1162.79 45.978 1163.28 46.422C1163.78 46.854 1164.04 47.418 1164.05 48.114V54H1161.53V49.05C1161.52 48.702 1161.43 48.426 1161.25 48.222C1161.08 48.006 1160.79 47.898 1160.38 47.898C1160 47.898 1159.66 48.024 1159.37 48.276C1159.09 48.528 1158.86 48.87 1158.71 49.302C1158.55 49.734 1158.47 50.232 1158.47 50.796V54H1155.95V46.134H1158.24Z" fill="white"/>
<rect x="5" width="964" height="99" fill="#C6F5F0"/>
<path d="M404.71 40V26.752H408.67C410.002 26.752 411.136 26.95 412.072 27.346C413.008 27.742 413.758 28.27 414.322 28.93C414.898 29.59 415.318 30.328 415.582 31.144C415.846 31.96 415.978 32.782 415.978 33.61C415.978 34.594 415.798 35.482 415.438 36.274C415.09 37.054 414.61 37.726 413.998 38.29C413.386 38.842 412.678 39.268 411.874 39.568C411.07 39.856 410.218 40 409.318 40H404.71ZM407.32 37.48H408.868C409.528 37.48 410.128 37.396 410.668 37.228C411.208 37.048 411.67 36.79 412.054 36.454C412.45 36.118 412.75 35.698 412.954 35.194C413.17 34.678 413.278 34.09 413.278 33.43C413.278 32.566 413.134 31.864 412.846 31.324C412.57 30.772 412.222 30.346 411.802 30.046C411.394 29.746 410.974 29.542 410.542 29.434C410.11 29.314 409.744 29.254 409.444 29.254H407.32V37.48ZM422.053 40.216C421.093 40.216 420.277 40.036 419.605 39.676C418.945 39.316 418.441 38.818 418.093 38.182C417.745 37.546 417.571 36.814 417.571 35.986C417.571 35.194 417.775 34.48 418.183 33.844C418.591 33.208 419.137 32.704 419.821 32.332C420.505 31.948 421.267 31.756 422.107 31.756C423.235 31.756 424.159 32.086 424.879 32.746C425.611 33.394 426.085 34.336 426.301 35.572L420.181 37.516L419.623 36.148L424.051 34.654L423.529 34.888C423.433 34.576 423.259 34.306 423.007 34.078C422.767 33.838 422.401 33.718 421.909 33.718C421.537 33.718 421.207 33.808 420.919 33.988C420.643 34.156 420.427 34.402 420.271 34.726C420.127 35.038 420.055 35.41 420.055 35.842C420.055 36.334 420.145 36.748 420.325 37.084C420.505 37.408 420.751 37.654 421.063 37.822C421.375 37.99 421.723 38.074 422.107 38.074C422.383 38.074 422.647 38.026 422.899 37.93C423.163 37.834 423.421 37.708 423.673 37.552L424.789 39.424C424.369 39.664 423.913 39.856 423.421 40C422.941 40.144 422.485 40.216 422.053 40.216ZM430.688 40.162C430.04 40.162 429.434 40.048 428.87 39.82C428.318 39.592 427.85 39.274 427.466 38.866L428.51 37.48C428.894 37.828 429.248 38.08 429.572 38.236C429.908 38.38 430.208 38.452 430.472 38.452C430.676 38.452 430.856 38.434 431.012 38.398C431.18 38.35 431.312 38.284 431.408 38.2C431.504 38.104 431.552 37.984 431.552 37.84C431.552 37.636 431.468 37.474 431.3 37.354C431.144 37.234 430.94 37.138 430.688 37.066C430.436 36.982 430.166 36.898 429.878 36.814C429.158 36.586 428.636 36.256 428.312 35.824C428 35.38 427.844 34.9 427.844 34.384C427.844 33.988 427.946 33.592 428.15 33.196C428.366 32.788 428.702 32.452 429.158 32.188C429.626 31.912 430.226 31.774 430.958 31.774C431.618 31.774 432.176 31.84 432.632 31.972C433.088 32.104 433.52 32.32 433.928 32.62L432.974 34.096C432.746 33.916 432.488 33.766 432.2 33.646C431.924 33.514 431.666 33.442 431.426 33.43C431.21 33.418 431.024 33.442 430.868 33.502C430.724 33.562 430.61 33.64 430.526 33.736C430.442 33.832 430.4 33.934 430.4 34.042C430.388 34.27 430.472 34.45 430.652 34.582C430.844 34.714 431.084 34.816 431.372 34.888C431.66 34.96 431.942 35.044 432.218 35.14C432.602 35.26 432.932 35.422 433.208 35.626C433.484 35.83 433.694 36.076 433.838 36.364C433.994 36.64 434.072 36.976 434.072 37.372C434.072 37.852 433.946 38.308 433.694 38.74C433.454 39.16 433.082 39.502 432.578 39.766C432.086 40.03 431.456 40.162 430.688 40.162ZM436.183 32.134H438.703V40H436.183V32.134ZM436.129 29.344C436.129 28.972 436.273 28.666 436.561 28.426C436.861 28.186 437.179 28.066 437.515 28.066C437.851 28.066 438.157 28.186 438.433 28.426C438.721 28.666 438.865 28.972 438.865 29.344C438.865 29.716 438.721 30.022 438.433 30.262C438.157 30.49 437.851 30.604 437.515 30.604C437.179 30.604 436.861 30.49 436.561 30.262C436.273 30.022 436.129 29.716 436.129 29.344ZM445.366 43.96C444.658 43.96 444.058 43.876 443.566 43.708C443.086 43.54 442.678 43.336 442.342 43.096C442.006 42.856 441.706 42.628 441.442 42.412L442.918 40.684C443.194 40.936 443.512 41.176 443.872 41.404C444.244 41.644 444.73 41.764 445.33 41.764C445.726 41.764 446.092 41.692 446.428 41.548C446.776 41.416 447.052 41.218 447.256 40.954C447.472 40.69 447.58 40.36 447.58 39.964V38.236L447.67 38.686C447.478 39.094 447.13 39.454 446.626 39.766C446.122 40.066 445.462 40.216 444.646 40.216C443.938 40.216 443.278 40.036 442.666 39.676C442.066 39.304 441.586 38.806 441.226 38.182C440.866 37.546 440.686 36.826 440.686 36.022C440.686 35.194 440.878 34.462 441.262 33.826C441.646 33.178 442.144 32.668 442.756 32.296C443.368 31.924 444.016 31.738 444.7 31.738C445.384 31.738 445.972 31.84 446.464 32.044C446.968 32.236 447.346 32.476 447.598 32.764L447.508 32.998L447.778 32.134H450.1V40C450.1 40.768 449.884 41.446 449.452 42.034C449.02 42.634 448.444 43.102 447.724 43.438C447.016 43.786 446.23 43.96 445.366 43.96ZM443.224 35.95C443.224 36.37 443.32 36.748 443.512 37.084C443.704 37.42 443.962 37.684 444.286 37.876C444.622 38.068 444.994 38.164 445.402 38.164C445.75 38.164 446.056 38.122 446.32 38.038C446.596 37.942 446.836 37.81 447.04 37.642C447.256 37.462 447.436 37.24 447.58 36.976V35.05C447.472 34.786 447.31 34.564 447.094 34.384C446.878 34.192 446.626 34.048 446.338 33.952C446.062 33.844 445.75 33.79 445.402 33.79C444.994 33.79 444.622 33.886 444.286 34.078C443.962 34.258 443.704 34.51 443.512 34.834C443.32 35.158 443.224 35.53 443.224 35.95ZM454.975 32.134L455.173 33.538L455.137 33.412C455.413 32.92 455.803 32.524 456.307 32.224C456.811 31.912 457.429 31.756 458.161 31.756C458.905 31.756 459.523 31.978 460.015 32.422C460.519 32.854 460.777 33.418 460.789 34.114V40H458.269V35.05C458.257 34.702 458.161 34.426 457.981 34.222C457.813 34.006 457.525 33.898 457.117 33.898C456.733 33.898 456.397 34.024 456.109 34.276C455.821 34.528 455.599 34.87 455.443 35.302C455.287 35.734 455.209 36.232 455.209 36.796V40H452.689V32.134H454.975ZM480.804 40C480.636 40 480.384 40 480.048 40C479.724 40 479.388 40 479.04 40C478.692 40 478.392 40 478.14 40C477.9 40 477.78 40 477.78 40L471.948 32.152C471.828 31.984 471.678 31.756 471.498 31.468C471.318 31.168 471.162 30.838 471.03 30.478C470.898 30.106 470.832 29.734 470.832 29.362C470.832 28.882 470.952 28.408 471.192 27.94C471.444 27.46 471.822 27.064 472.326 26.752C472.842 26.428 473.49 26.266 474.27 26.266C475.122 26.266 475.872 26.44 476.52 26.788C477.168 27.136 477.684 27.556 478.068 28.048L476.754 29.794C476.382 29.386 476.022 29.062 475.674 28.822C475.338 28.582 475.008 28.462 474.684 28.462C474.276 28.462 473.982 28.582 473.802 28.822C473.622 29.062 473.532 29.326 473.532 29.614C473.532 29.782 473.574 29.968 473.658 30.172C473.754 30.364 473.85 30.544 473.946 30.712C474.042 30.868 474.108 30.976 474.144 31.036L480.804 40ZM473.514 33.97C473.226 33.97 472.956 34.03 472.704 34.15C472.452 34.258 472.23 34.408 472.038 34.6C471.846 34.792 471.696 35.008 471.588 35.248C471.492 35.488 471.444 35.74 471.444 36.004C471.444 36.376 471.534 36.706 471.714 36.994C471.906 37.27 472.164 37.486 472.488 37.642C472.812 37.798 473.166 37.876 473.55 37.876C473.946 37.876 474.27 37.822 474.522 37.714C474.786 37.594 475.002 37.438 475.17 37.246C475.35 37.054 475.494 36.844 475.602 36.616L477.276 38.002C476.952 38.614 476.454 39.136 475.782 39.568C475.122 40 474.258 40.216 473.19 40.216C472.362 40.216 471.612 40.042 470.94 39.694C470.268 39.346 469.734 38.866 469.338 38.254C468.942 37.642 468.744 36.94 468.744 36.148C468.744 35.548 468.876 34.996 469.14 34.492C469.416 33.988 469.782 33.55 470.238 33.178C470.694 32.806 471.204 32.512 471.768 32.296C472.332 32.068 472.908 31.948 473.496 31.936L473.514 33.97ZM477.438 31.936H479.814L477.582 37.552L475.692 36.436L477.438 31.936ZM492.835 26.752C493.927 26.752 494.851 26.938 495.607 27.31C496.363 27.67 496.939 28.186 497.335 28.858C497.731 29.518 497.929 30.304 497.929 31.216C497.929 31.756 497.845 32.302 497.677 32.854C497.521 33.394 497.263 33.886 496.903 34.33C496.555 34.774 496.081 35.134 495.481 35.41C494.893 35.674 494.167 35.806 493.303 35.806H491.431V40H488.821V26.752H492.835ZM493.285 33.268C493.681 33.268 494.011 33.202 494.275 33.07C494.539 32.926 494.743 32.752 494.887 32.548C495.043 32.332 495.151 32.11 495.211 31.882C495.283 31.654 495.319 31.456 495.319 31.288C495.319 31.156 495.295 30.982 495.247 30.766C495.211 30.538 495.127 30.31 494.995 30.082C494.863 29.854 494.659 29.662 494.383 29.506C494.119 29.35 493.759 29.272 493.303 29.272H491.431V33.268H493.285ZM502.119 32.134L502.353 34.294L502.299 33.97C502.527 33.502 502.839 33.106 503.235 32.782C503.631 32.446 504.021 32.188 504.405 32.008C504.801 31.828 505.101 31.738 505.305 31.738L505.179 34.258C504.591 34.186 504.087 34.282 503.667 34.546C503.247 34.81 502.923 35.158 502.695 35.59C502.467 36.022 502.353 36.466 502.353 36.922V40H499.851V32.134H502.119ZM506.27 35.968C506.27 35.164 506.456 34.444 506.828 33.808C507.212 33.172 507.746 32.674 508.43 32.314C509.114 31.942 509.9 31.756 510.788 31.756C511.688 31.756 512.468 31.942 513.128 32.314C513.788 32.674 514.292 33.172 514.64 33.808C515 34.444 515.18 35.164 515.18 35.968C515.18 36.772 515 37.498 514.64 38.146C514.292 38.782 513.788 39.286 513.128 39.658C512.468 40.03 511.676 40.216 510.752 40.216C509.888 40.216 509.114 40.048 508.43 39.712C507.758 39.376 507.23 38.89 506.846 38.254C506.462 37.618 506.27 36.856 506.27 35.968ZM508.808 35.986C508.808 36.394 508.892 36.766 509.06 37.102C509.228 37.426 509.456 37.684 509.744 37.876C510.032 38.068 510.356 38.164 510.716 38.164C511.112 38.164 511.454 38.068 511.742 37.876C512.03 37.684 512.252 37.426 512.408 37.102C512.564 36.766 512.642 36.394 512.642 35.986C512.642 35.566 512.564 35.194 512.408 34.87C512.252 34.546 512.03 34.288 511.742 34.096C511.454 33.904 511.112 33.808 510.716 33.808C510.356 33.808 510.032 33.904 509.744 34.096C509.456 34.288 509.228 34.546 509.06 34.87C508.892 35.194 508.808 35.566 508.808 35.986ZM517.903 28.678H520.423V32.098H522.331V34.06H520.423V40H517.903V34.06H516.679V32.098H517.903V28.678ZM523.637 35.968C523.637 35.164 523.823 34.444 524.195 33.808C524.579 33.172 525.113 32.674 525.797 32.314C526.481 31.942 527.267 31.756 528.155 31.756C529.055 31.756 529.835 31.942 530.495 32.314C531.155 32.674 531.659 33.172 532.007 33.808C532.367 34.444 532.547 35.164 532.547 35.968C532.547 36.772 532.367 37.498 532.007 38.146C531.659 38.782 531.155 39.286 530.495 39.658C529.835 40.03 529.043 40.216 528.119 40.216C527.255 40.216 526.481 40.048 525.797 39.712C525.125 39.376 524.597 38.89 524.213 38.254C523.829 37.618 523.637 36.856 523.637 35.968ZM526.175 35.986C526.175 36.394 526.259 36.766 526.427 37.102C526.595 37.426 526.823 37.684 527.111 37.876C527.399 38.068 527.723 38.164 528.083 38.164C528.479 38.164 528.821 38.068 529.109 37.876C529.397 37.684 529.619 37.426 529.775 37.102C529.931 36.766 530.009 36.394 530.009 35.986C530.009 35.566 529.931 35.194 529.775 34.87C529.619 34.546 529.397 34.288 529.109 34.096C528.821 33.904 528.479 33.808 528.083 33.808C527.723 33.808 527.399 33.904 527.111 34.096C526.823 34.288 526.595 34.546 526.427 34.87C526.259 35.194 526.175 35.566 526.175 35.986ZM535.27 28.678H537.79V32.098H539.698V34.06H537.79V40H535.27V34.06H534.046V32.098H535.27V28.678ZM542.246 43.78L547.484 32.134H549.752L544.676 43.78H542.246ZM544.352 40.036L540.5 32.134H543.326L546.296 38.776L544.352 40.036ZM556.164 40.216C555.696 40.216 555.234 40.132 554.778 39.964C554.334 39.784 553.962 39.532 553.662 39.208L553.734 38.47V43.78H551.232V31.954H553.392L553.752 33.484L553.554 32.944C553.962 32.596 554.418 32.308 554.922 32.08C555.426 31.852 556.008 31.738 556.668 31.738C557.4 31.738 558.054 31.912 558.63 32.26C559.206 32.596 559.656 33.088 559.98 33.736C560.316 34.372 560.484 35.14 560.484 36.04C560.484 36.928 560.298 37.684 559.926 38.308C559.554 38.932 559.044 39.406 558.396 39.73C557.748 40.054 557.004 40.216 556.164 40.216ZM555.66 38.236C556.068 38.236 556.44 38.146 556.776 37.966C557.124 37.786 557.4 37.534 557.604 37.21C557.82 36.874 557.928 36.496 557.928 36.076C557.928 35.632 557.832 35.248 557.64 34.924C557.46 34.588 557.208 34.33 556.884 34.15C556.572 33.958 556.224 33.862 555.84 33.862C555.504 33.862 555.204 33.91 554.94 34.006C554.688 34.09 554.46 34.222 554.256 34.402C554.064 34.57 553.896 34.786 553.752 35.05V36.976C553.848 37.228 553.986 37.45 554.166 37.642C554.346 37.834 554.562 37.984 554.814 38.092C555.078 38.188 555.36 38.236 555.66 38.236ZM566.334 40.216C565.374 40.216 564.558 40.036 563.886 39.676C563.226 39.316 562.722 38.818 562.374 38.182C562.026 37.546 561.852 36.814 561.852 35.986C561.852 35.194 562.056 34.48 562.464 33.844C562.872 33.208 563.418 32.704 564.102 32.332C564.786 31.948 565.548 31.756 566.388 31.756C567.516 31.756 568.44 32.086 569.16 32.746C569.892 33.394 570.366 34.336 570.582 35.572L564.462 37.516L563.904 36.148L568.332 34.654L567.81 34.888C567.714 34.576 567.54 34.306 567.288 34.078C567.048 33.838 566.682 33.718 566.19 33.718C565.818 33.718 565.488 33.808 565.2 33.988C564.924 34.156 564.708 34.402 564.552 34.726C564.408 35.038 564.336 35.41 564.336 35.842C564.336 36.334 564.426 36.748 564.606 37.084C564.786 37.408 565.032 37.654 565.344 37.822C565.656 37.99 566.004 38.074 566.388 38.074C566.664 38.074 566.928 38.026 567.18 37.93C567.444 37.834 567.702 37.708 567.954 37.552L569.07 39.424C568.65 39.664 568.194 39.856 567.702 40C567.222 40.144 566.766 40.216 566.334 40.216Z" fill="black"/>
<rect x="202" y="83" width="285" height="16" fill="#79E2D5"/>
<rect x="494" y="83" width="179" height="16" fill="#79E2D5"/>
<rect x="681" y="83" width="288" height="16" fill="#79E2D5"/>
<path d="M68.816 65.432V77H67.28V71.928H61.216V77H59.664V65.432H61.216V70.456H67.28V65.432H68.816ZM71.2044 73.624C71.2044 72.9627 71.359 72.3653 71.6684 71.832C71.9884 71.2987 72.4257 70.8773 72.9804 70.568C73.535 70.2587 74.1644 70.104 74.8684 70.104C75.5937 70.104 76.2284 70.2587 76.7724 70.568C77.3164 70.8773 77.7377 71.2987 78.0364 71.832C78.335 72.3653 78.4844 72.9627 78.4844 73.624C78.4844 74.2853 78.335 74.888 78.0364 75.432C77.7377 75.9653 77.311 76.3867 76.7564 76.696C76.2124 77.0053 75.5777 77.16 74.8524 77.16C74.1484 77.16 73.519 77.016 72.9644 76.728C72.4204 76.4293 71.9884 76.0187 71.6684 75.496C71.359 74.9627 71.2044 74.3387 71.2044 73.624ZM72.6924 73.64C72.6924 74.0667 72.7884 74.456 72.9804 74.808C73.1724 75.1493 73.4284 75.4213 73.7484 75.624C74.079 75.8267 74.4417 75.928 74.8364 75.928C75.2524 75.928 75.6204 75.8267 75.9404 75.624C76.271 75.4213 76.527 75.1493 76.7084 74.808C76.8897 74.456 76.9804 74.0667 76.9804 73.64C76.9804 73.2133 76.8897 72.8293 76.7084 72.488C76.527 72.136 76.271 71.8587 75.9404 71.656C75.6204 71.4427 75.2524 71.336 74.8364 71.336C74.431 71.336 74.063 71.4427 73.7324 71.656C73.4124 71.8693 73.1564 72.152 72.9644 72.504C72.783 72.8453 72.6924 73.224 72.6924 73.64ZM81.8271 70.376L81.9551 71.864L81.8911 71.736C82.1365 71.2347 82.4831 70.84 82.9311 70.552C83.3898 70.264 83.9125 70.12 84.4991 70.12C84.8725 70.12 85.2031 70.1787 85.4911 70.296C85.7791 70.4133 86.0138 70.584 86.1951 70.808C86.3871 71.0213 86.5098 71.288 86.5631 71.608L86.4831 71.656C86.7391 71.176 87.0911 70.8027 87.5391 70.536C87.9978 70.2587 88.4778 70.12 88.9791 70.12C89.6298 70.12 90.1418 70.3067 90.5151 70.68C90.8991 71.0427 91.0965 71.5173 91.1071 72.104V77H89.6191V72.632C89.6085 72.2907 89.5231 72.008 89.3631 71.784C89.2138 71.5493 88.9471 71.4213 88.5631 71.4C88.1791 71.4 87.8325 71.5173 87.5231 71.752C87.2245 71.9867 86.9898 72.2907 86.8191 72.664C86.6485 73.0267 86.5578 73.4213 86.5471 73.848V77H85.0591V72.632C85.0485 72.2907 84.9578 72.008 84.7871 71.784C84.6271 71.5493 84.3551 71.4213 83.9711 71.4C83.5765 71.4 83.2298 71.5173 82.9311 71.752C82.6325 71.9867 82.3978 72.2907 82.2271 72.664C82.0671 73.0373 81.9871 73.4373 81.9871 73.864V77H80.4991V70.376H81.8271ZM96.7743 77.16C96.0169 77.16 95.3663 77.0107 94.8223 76.712C94.2783 76.4027 93.8569 75.9867 93.5583 75.464C93.2703 74.9307 93.1263 74.3227 93.1263 73.64C93.1263 72.9893 93.2916 72.3973 93.6223 71.864C93.9529 71.3307 94.3956 70.904 94.9503 70.584C95.5049 70.264 96.1236 70.104 96.8063 70.104C97.6809 70.104 98.4063 70.36 98.9823 70.872C99.5583 71.384 99.9476 72.088 100.15 72.984L94.6943 74.904L94.3423 74.024L98.8223 72.392L98.5023 72.6C98.3743 72.248 98.1609 71.944 97.8623 71.688C97.5636 71.4213 97.1743 71.288 96.6943 71.288C96.2889 71.288 95.9263 71.3893 95.6063 71.592C95.2863 71.784 95.0356 72.0507 94.8543 72.392C94.6729 72.7333 94.5823 73.1227 94.5823 73.56C94.5823 74.0187 94.6783 74.424 94.8703 74.776C95.0623 75.1173 95.3236 75.3893 95.6543 75.592C95.9956 75.784 96.3796 75.88 96.8063 75.88C97.0943 75.88 97.3716 75.8267 97.6383 75.72C97.9156 75.6133 98.1716 75.4747 98.4063 75.304L99.0943 76.408C98.7636 76.632 98.3903 76.8133 97.9743 76.952C97.5689 77.0907 97.1689 77.16 96.7743 77.16ZM105.919 77.16C105.417 77.16 104.932 77.0427 104.463 76.808C104.004 76.5733 103.647 76.2587 103.391 75.864L103.487 75.4V80.184H102.015V70.28H103.295L103.503 71.976L103.343 71.512C103.663 71.1067 104.068 70.7707 104.559 70.504C105.049 70.2373 105.599 70.104 106.207 70.104C106.825 70.104 107.38 70.2533 107.871 70.552C108.372 70.8507 108.767 71.2667 109.055 71.8C109.343 72.3333 109.487 72.9573 109.487 73.672C109.487 74.3867 109.332 75.0053 109.023 75.528C108.713 76.0507 108.287 76.456 107.743 76.744C107.209 77.0213 106.601 77.16 105.919 77.16ZM105.631 75.976C106.057 75.976 106.447 75.88 106.799 75.688C107.161 75.4853 107.449 75.2133 107.663 74.872C107.876 74.52 107.983 74.1253 107.983 73.688C107.983 73.24 107.881 72.8453 107.679 72.504C107.476 72.152 107.204 71.8747 106.863 71.672C106.532 71.4693 106.159 71.368 105.743 71.368C105.359 71.368 105.012 71.4427 104.703 71.592C104.393 71.7413 104.137 71.9493 103.935 72.216C103.732 72.472 103.588 72.7707 103.503 73.112V74.216C103.556 74.5573 103.684 74.8613 103.887 75.128C104.089 75.3947 104.34 75.6027 104.639 75.752C104.948 75.9013 105.279 75.976 105.631 75.976ZM114.251 77.16C113.632 77.16 113.067 77.0267 112.555 76.76C112.054 76.4933 111.654 76.104 111.355 75.592C111.067 75.0693 110.923 74.4347 110.923 73.688C110.923 72.952 111.078 72.3173 111.387 71.784C111.696 71.24 112.107 70.824 112.619 70.536C113.142 70.248 113.712 70.104 114.331 70.104C114.95 70.104 115.472 70.248 115.899 70.536C116.326 70.8133 116.651 71.144 116.875 71.528L116.779 71.784L116.923 70.376H118.299V77H116.811V75.272L116.971 75.656C116.928 75.7627 116.832 75.9013 116.683 76.072C116.544 76.232 116.352 76.3973 116.107 76.568C115.872 76.7387 115.6 76.8827 115.291 77C114.982 77.1067 114.635 77.16 114.251 77.16ZM114.651 75.928C115.024 75.928 115.36 75.8587 115.659 75.72C115.958 75.5813 116.203 75.3893 116.395 75.144C116.598 74.888 116.736 74.584 116.811 74.232V72.936C116.726 72.616 116.576 72.3387 116.363 72.104C116.15 71.8587 115.894 71.672 115.595 71.544C115.296 71.4053 114.966 71.336 114.603 71.336C114.208 71.336 113.846 71.432 113.515 71.624C113.184 71.816 112.918 72.0827 112.715 72.424C112.523 72.7653 112.427 73.1653 112.427 73.624C112.427 74.0507 112.528 74.44 112.731 74.792C112.934 75.144 113.206 75.4213 113.547 75.624C113.888 75.8267 114.256 75.928 114.651 75.928ZM124.058 80.28C123.567 80.28 123.135 80.2213 122.762 80.104C122.389 79.9973 122.047 79.8427 121.738 79.64C121.439 79.4373 121.151 79.208 120.874 78.952L121.738 77.944C122.09 78.2747 122.447 78.5307 122.81 78.712C123.173 78.8933 123.578 78.984 124.026 78.984C124.527 78.984 124.949 78.8987 125.29 78.728C125.642 78.568 125.909 78.3387 126.09 78.04C126.271 77.752 126.362 77.416 126.362 77.032L126.378 75.24L126.506 75.528C126.314 75.9867 125.967 76.376 125.466 76.696C124.965 77.0053 124.357 77.16 123.642 77.16C123.034 77.16 122.474 77.0053 121.962 76.696C121.461 76.3867 121.055 75.9707 120.746 75.448C120.447 74.9147 120.298 74.3173 120.298 73.656C120.298 72.9627 120.458 72.3547 120.778 71.832C121.098 71.2987 121.519 70.8773 122.042 70.568C122.565 70.2587 123.135 70.104 123.754 70.104C124.341 70.104 124.874 70.2267 125.354 70.472C125.845 70.7067 126.202 71.0107 126.426 71.384L126.346 71.656L126.506 70.376H127.866V77.048C127.866 77.6453 127.711 78.1893 127.402 78.68C127.093 79.1707 126.655 79.56 126.09 79.848C125.525 80.136 124.847 80.28 124.058 80.28ZM121.786 73.624C121.786 74.0507 121.887 74.44 122.09 74.792C122.293 75.144 122.565 75.4213 122.906 75.624C123.258 75.8267 123.647 75.928 124.074 75.928C124.469 75.928 124.821 75.8587 125.13 75.72C125.45 75.5707 125.717 75.3733 125.93 75.128C126.143 74.872 126.293 74.5787 126.378 74.248V72.936C126.282 72.616 126.122 72.3387 125.898 72.104C125.674 71.8587 125.407 71.672 125.098 71.544C124.789 71.4053 124.447 71.336 124.074 71.336C123.647 71.336 123.258 71.432 122.906 71.624C122.565 71.816 122.293 72.088 122.09 72.44C121.887 72.7813 121.786 73.176 121.786 73.624ZM133.509 77.16C132.751 77.16 132.101 77.0107 131.557 76.712C131.013 76.4027 130.591 75.9867 130.293 75.464C130.005 74.9307 129.861 74.3227 129.861 73.64C129.861 72.9893 130.026 72.3973 130.357 71.864C130.687 71.3307 131.13 70.904 131.685 70.584C132.239 70.264 132.858 70.104 133.541 70.104C134.415 70.104 135.141 70.36 135.717 70.872C136.293 71.384 136.682 72.088 136.885 72.984L131.429 74.904L131.077 74.024L135.557 72.392L135.237 72.6C135.109 72.248 134.895 71.944 134.597 71.688C134.298 71.4213 133.909 71.288 133.429 71.288C133.023 71.288 132.661 71.3893 132.341 71.592C132.021 71.784 131.77 72.0507 131.589 72.392C131.407 72.7333 131.317 73.1227 131.317 73.56C131.317 74.0187 131.413 74.424 131.605 74.776C131.797 75.1173 132.058 75.3893 132.389 75.592C132.73 75.784 133.114 75.88 133.541 75.88C133.829 75.88 134.106 75.8267 134.373 75.72C134.65 75.6133 134.906 75.4747 135.141 75.304L135.829 76.408C135.498 76.632 135.125 76.8133 134.709 76.952C134.303 77.0907 133.903 77.16 133.509 77.16ZM140.605 77.128C140.136 77.128 139.677 77.048 139.229 76.888C138.792 76.7173 138.429 76.4667 138.141 76.136L138.765 75.272C139.042 75.5387 139.325 75.7413 139.613 75.88C139.912 76.008 140.205 76.072 140.493 76.072C140.706 76.072 140.904 76.0453 141.085 75.992C141.266 75.9387 141.41 75.8533 141.517 75.736C141.634 75.608 141.693 75.4373 141.693 75.224C141.693 74.9893 141.613 74.8027 141.453 74.664C141.304 74.5253 141.106 74.4133 140.861 74.328C140.626 74.2427 140.376 74.1627 140.109 74.088C139.565 73.9067 139.149 73.656 138.861 73.336C138.573 73.016 138.429 72.6267 138.429 72.168C138.429 71.816 138.514 71.4907 138.685 71.192C138.866 70.8827 139.128 70.632 139.469 70.44C139.821 70.248 140.253 70.152 140.765 70.152C141.224 70.152 141.634 70.2107 141.997 70.328C142.36 70.4347 142.701 70.616 143.021 70.872L142.429 71.8C142.237 71.5973 142.008 71.448 141.741 71.352C141.474 71.256 141.234 71.2027 141.021 71.192C140.84 71.1813 140.664 71.208 140.493 71.272C140.333 71.336 140.2 71.4267 140.093 71.544C139.986 71.6613 139.933 71.8 139.933 71.96C139.933 72.184 140.008 72.3653 140.157 72.504C140.306 72.6427 140.498 72.7547 140.733 72.84C140.978 72.9147 141.218 72.9947 141.453 73.08C141.784 73.176 142.077 73.304 142.333 73.464C142.589 73.624 142.792 73.8213 142.941 74.056C143.101 74.2907 143.181 74.584 143.181 74.936C143.181 75.3307 143.085 75.6987 142.893 76.04C142.712 76.3707 142.429 76.6373 142.045 76.84C141.672 77.032 141.192 77.128 140.605 77.128Z" fill="black"/>
<path d="M297.64 65.432C298.803 65.432 299.715 65.672 300.376 66.152C301.048 66.6213 301.384 67.3573 301.384 68.36C301.384 68.968 301.245 69.496 300.968 69.944C300.691 70.392 300.301 70.744 299.8 71C299.309 71.256 298.728 71.4 298.056 71.432L297.832 70.632C298.611 70.6533 299.309 70.792 299.928 71.048C300.547 71.304 301.037 71.6613 301.4 72.12C301.763 72.5787 301.944 73.1227 301.944 73.752C301.944 74.328 301.837 74.824 301.624 75.24C301.411 75.6453 301.123 75.9813 300.76 76.248C300.397 76.504 299.987 76.696 299.528 76.824C299.069 76.9413 298.595 77 298.104 77H294.664V65.432H297.64ZM297.96 70.504C298.6 70.504 299.064 70.328 299.352 69.976C299.64 69.6133 299.784 69.176 299.784 68.664C299.784 68.056 299.597 67.6133 299.224 67.336C298.851 67.0587 298.349 66.92 297.72 66.92H296.216V70.504H297.96ZM298.024 75.56C298.451 75.56 298.84 75.496 299.192 75.368C299.555 75.24 299.837 75.0427 300.04 74.776C300.253 74.5093 300.36 74.1733 300.36 73.768C300.36 73.32 300.237 72.968 299.992 72.712C299.757 72.456 299.453 72.2747 299.08 72.168C298.707 72.0507 298.323 71.992 297.928 71.992H296.216V75.56H298.024ZM306.283 77.256C305.685 77.256 305.189 77.0747 304.795 76.712C304.411 76.3387 304.208 75.8587 304.187 75.272V70.376H305.675V74.744C305.696 75.1067 305.797 75.4 305.979 75.624C306.171 75.848 306.469 75.9653 306.875 75.976C307.248 75.976 307.579 75.8693 307.867 75.656C308.165 75.432 308.405 75.1333 308.587 74.76C308.768 74.376 308.859 73.944 308.859 73.464V70.376H310.347V77H308.987L308.859 75.368L308.939 75.656C308.811 75.9653 308.613 76.2427 308.347 76.488C308.091 76.7227 307.787 76.9093 307.435 77.048C307.083 77.1867 306.699 77.256 306.283 77.256ZM314.777 77.128C314.308 77.128 313.849 77.048 313.401 76.888C312.964 76.7173 312.601 76.4667 312.313 76.136L312.937 75.272C313.214 75.5387 313.497 75.7413 313.785 75.88C314.084 76.008 314.377 76.072 314.665 76.072C314.878 76.072 315.076 76.0453 315.257 75.992C315.438 75.9387 315.582 75.8533 315.689 75.736C315.806 75.608 315.865 75.4373 315.865 75.224C315.865 74.9893 315.785 74.8027 315.625 74.664C315.476 74.5253 315.278 74.4133 315.033 74.328C314.798 74.2427 314.548 74.1627 314.281 74.088C313.737 73.9067 313.321 73.656 313.033 73.336C312.745 73.016 312.601 72.6267 312.601 72.168C312.601 71.816 312.686 71.4907 312.857 71.192C313.038 70.8827 313.3 70.632 313.641 70.44C313.993 70.248 314.425 70.152 314.937 70.152C315.396 70.152 315.806 70.2107 316.169 70.328C316.532 70.4347 316.873 70.616 317.193 70.872L316.601 71.8C316.409 71.5973 316.18 71.448 315.913 71.352C315.646 71.256 315.406 71.2027 315.193 71.192C315.012 71.1813 314.836 71.208 314.665 71.272C314.505 71.336 314.372 71.4267 314.265 71.544C314.158 71.6613 314.105 71.8 314.105 71.96C314.105 72.184 314.18 72.3653 314.329 72.504C314.478 72.6427 314.67 72.7547 314.905 72.84C315.15 72.9147 315.39 72.9947 315.625 73.08C315.956 73.176 316.249 73.304 316.505 73.464C316.761 73.624 316.964 73.8213 317.113 74.056C317.273 74.2907 317.353 74.584 317.353 74.936C317.353 75.3307 317.257 75.6987 317.065 76.04C316.884 76.3707 316.601 76.6373 316.217 76.84C315.844 77.032 315.364 77.128 314.777 77.128ZM319.437 70.376H320.925V77H319.437V70.376ZM319.325 67.976C319.325 67.7413 319.415 67.544 319.597 67.384C319.789 67.224 319.997 67.144 320.221 67.144C320.445 67.144 320.642 67.224 320.813 67.384C320.994 67.544 321.085 67.7413 321.085 67.976C321.085 68.2213 320.994 68.424 320.813 68.584C320.642 68.7333 320.445 68.808 320.221 68.808C319.997 68.808 319.789 68.728 319.597 68.568C319.415 68.408 319.325 68.2107 319.325 67.976ZM324.827 70.376L324.955 71.992L324.891 71.736C325.104 71.2453 325.451 70.856 325.931 70.568C326.411 70.2693 326.966 70.12 327.595 70.12C328.224 70.12 328.736 70.3067 329.131 70.68C329.536 71.0427 329.744 71.5173 329.755 72.104V77H328.251V72.632C328.24 72.2693 328.134 71.976 327.931 71.752C327.739 71.5173 327.435 71.4 327.019 71.4C326.635 71.4 326.288 71.5067 325.979 71.72C325.67 71.9333 325.424 72.2267 325.243 72.6C325.072 72.9733 324.987 73.4053 324.987 73.896V77H323.499V70.376H324.827ZM335.415 77.16C334.658 77.16 334.007 77.0107 333.463 76.712C332.919 76.4027 332.498 75.9867 332.199 75.464C331.911 74.9307 331.767 74.3227 331.767 73.64C331.767 72.9893 331.932 72.3973 332.263 71.864C332.594 71.3307 333.036 70.904 333.591 70.584C334.146 70.264 334.764 70.104 335.447 70.104C336.322 70.104 337.047 70.36 337.623 70.872C338.199 71.384 338.588 72.088 338.791 72.984L333.335 74.904L332.983 74.024L337.463 72.392L337.143 72.6C337.015 72.248 336.802 71.944 336.503 71.688C336.204 71.4213 335.815 71.288 335.335 71.288C334.93 71.288 334.567 71.3893 334.247 71.592C333.927 71.784 333.676 72.0507 333.495 72.392C333.314 72.7333 333.223 73.1227 333.223 73.56C333.223 74.0187 333.319 74.424 333.511 74.776C333.703 75.1173 333.964 75.3893 334.295 75.592C334.636 75.784 335.02 75.88 335.447 75.88C335.735 75.88 336.012 75.8267 336.279 75.72C336.556 75.6133 336.812 75.4747 337.047 75.304L337.735 76.408C337.404 76.632 337.031 76.8133 336.615 76.952C336.21 77.0907 335.81 77.16 335.415 77.16ZM342.511 77.128C342.042 77.128 341.583 77.048 341.135 76.888C340.698 76.7173 340.335 76.4667 340.047 76.136L340.671 75.272C340.949 75.5387 341.231 75.7413 341.519 75.88C341.818 76.008 342.111 76.072 342.399 76.072C342.613 76.072 342.81 76.0453 342.991 75.992C343.173 75.9387 343.317 75.8533 343.423 75.736C343.541 75.608 343.599 75.4373 343.599 75.224C343.599 74.9893 343.519 74.8027 343.359 74.664C343.21 74.5253 343.013 74.4133 342.767 74.328C342.533 74.2427 342.282 74.1627 342.015 74.088C341.471 73.9067 341.055 73.656 340.767 73.336C340.479 73.016 340.335 72.6267 340.335 72.168C340.335 71.816 340.421 71.4907 340.591 71.192C340.773 70.8827 341.034 70.632 341.375 70.44C341.727 70.248 342.159 70.152 342.671 70.152C343.13 70.152 343.541 70.2107 343.903 70.328C344.266 70.4347 344.607 70.616 344.927 70.872L344.335 71.8C344.143 71.5973 343.914 71.448 343.647 71.352C343.381 71.256 343.141 71.2027 342.927 71.192C342.746 71.1813 342.57 71.208 342.399 71.272C342.239 71.336 342.106 71.4267 341.999 71.544C341.893 71.6613 341.839 71.8 341.839 71.96C341.839 72.184 341.914 72.3653 342.063 72.504C342.213 72.6427 342.405 72.7547 342.639 72.84C342.885 72.9147 343.125 72.9947 343.359 73.08C343.69 73.176 343.983 73.304 344.239 73.464C344.495 73.624 344.698 73.8213 344.847 74.056C345.007 74.2907 345.087 74.584 345.087 74.936C345.087 75.3307 344.991 75.6987 344.799 76.04C344.618 76.3707 344.335 76.6373 343.951 76.84C343.578 77.032 343.098 77.128 342.511 77.128ZM349.027 77.128C348.558 77.128 348.099 77.048 347.651 76.888C347.214 76.7173 346.851 76.4667 346.563 76.136L347.187 75.272C347.464 75.5387 347.747 75.7413 348.035 75.88C348.334 76.008 348.627 76.072 348.915 76.072C349.128 76.072 349.326 76.0453 349.507 75.992C349.688 75.9387 349.832 75.8533 349.939 75.736C350.056 75.608 350.115 75.4373 350.115 75.224C350.115 74.9893 350.035 74.8027 349.875 74.664C349.726 74.5253 349.528 74.4133 349.283 74.328C349.048 74.2427 348.798 74.1627 348.531 74.088C347.987 73.9067 347.571 73.656 347.283 73.336C346.995 73.016 346.851 72.6267 346.851 72.168C346.851 71.816 346.936 71.4907 347.107 71.192C347.288 70.8827 347.55 70.632 347.891 70.44C348.243 70.248 348.675 70.152 349.187 70.152C349.646 70.152 350.056 70.2107 350.419 70.328C350.782 70.4347 351.123 70.616 351.443 70.872L350.851 71.8C350.659 71.5973 350.43 71.448 350.163 71.352C349.896 71.256 349.656 71.2027 349.443 71.192C349.262 71.1813 349.086 71.208 348.915 71.272C348.755 71.336 348.622 71.4267 348.515 71.544C348.408 71.6613 348.355 71.8 348.355 71.96C348.355 72.184 348.43 72.3653 348.579 72.504C348.728 72.6427 348.92 72.7547 349.155 72.84C349.4 72.9147 349.64 72.9947 349.875 73.08C350.206 73.176 350.499 73.304 350.755 73.464C351.011 73.624 351.214 73.8213 351.363 74.056C351.523 74.2907 351.603 74.584 351.603 74.936C351.603 75.3307 351.507 75.6987 351.315 76.04C351.134 76.3707 350.851 76.6373 350.467 76.84C350.094 77.032 349.614 77.128 349.027 77.128ZM357.965 77L363.021 64.952H363.117L368.157 77H366.381L362.605 67.384L363.709 66.664L359.485 77H357.965ZM360.925 72.616H365.229L365.741 73.96H360.477L360.925 72.616ZM375.188 76.392C374.889 76.6267 374.532 76.8133 374.116 76.952C373.7 77.0907 373.284 77.16 372.868 77.16C372.142 77.16 371.508 77.016 370.964 76.728C370.42 76.44 369.993 76.04 369.684 75.528C369.385 75.0053 369.236 74.392 369.236 73.688C369.236 72.984 369.396 72.3707 369.716 71.848C370.046 71.3253 370.473 70.9253 370.996 70.648C371.529 70.36 372.1 70.216 372.708 70.216C373.241 70.216 373.716 70.2907 374.132 70.44C374.558 70.5893 374.921 70.792 375.22 71.048L374.484 72.008C374.292 71.8587 374.057 71.7253 373.78 71.608C373.502 71.4907 373.188 71.432 372.836 71.432C372.452 71.432 372.094 71.5333 371.764 71.736C371.444 71.928 371.188 72.1947 370.996 72.536C370.814 72.8773 370.724 73.2613 370.724 73.688C370.724 74.0933 370.82 74.472 371.012 74.824C371.204 75.1653 371.47 75.4373 371.812 75.64C372.153 75.832 372.542 75.928 372.98 75.928C373.268 75.928 373.529 75.8853 373.764 75.8C374.009 75.7147 374.228 75.5973 374.42 75.448L375.188 76.392ZM382.485 76.392C382.186 76.6267 381.829 76.8133 381.413 76.952C380.997 77.0907 380.581 77.16 380.165 77.16C379.439 77.16 378.805 77.016 378.261 76.728C377.717 76.44 377.29 76.04 376.981 75.528C376.682 75.0053 376.533 74.392 376.533 73.688C376.533 72.984 376.693 72.3707 377.013 71.848C377.343 71.3253 377.77 70.9253 378.293 70.648C378.826 70.36 379.397 70.216 380.005 70.216C380.538 70.216 381.013 70.2907 381.429 70.44C381.855 70.5893 382.218 70.792 382.517 71.048L381.781 72.008C381.589 71.8587 381.354 71.7253 381.077 71.608C380.799 71.4907 380.485 71.432 380.133 71.432C379.749 71.432 379.391 71.5333 379.061 71.736C378.741 71.928 378.485 72.1947 378.293 72.536C378.111 72.8773 378.021 73.2613 378.021 73.688C378.021 74.0933 378.117 74.472 378.309 74.824C378.501 75.1653 378.767 75.4373 379.109 75.64C379.45 75.832 379.839 75.928 380.277 75.928C380.565 75.928 380.826 75.8853 381.061 75.8C381.306 75.7147 381.525 75.5973 381.717 75.448L382.485 76.392ZM383.829 73.624C383.829 72.9627 383.984 72.3653 384.293 71.832C384.613 71.2987 385.051 70.8773 385.605 70.568C386.16 70.2587 386.789 70.104 387.493 70.104C388.219 70.104 388.853 70.2587 389.397 70.568C389.941 70.8773 390.363 71.2987 390.661 71.832C390.96 72.3653 391.109 72.9627 391.109 73.624C391.109 74.2853 390.96 74.888 390.661 75.432C390.363 75.9653 389.936 76.3867 389.381 76.696C388.837 77.0053 388.203 77.16 387.477 77.16C386.773 77.16 386.144 77.016 385.589 76.728C385.045 76.4293 384.613 76.0187 384.293 75.496C383.984 74.9627 383.829 74.3387 383.829 73.624ZM385.317 73.64C385.317 74.0667 385.413 74.456 385.605 74.808C385.797 75.1493 386.053 75.4213 386.373 75.624C386.704 75.8267 387.067 75.928 387.461 75.928C387.877 75.928 388.245 75.8267 388.565 75.624C388.896 75.4213 389.152 75.1493 389.333 74.808C389.515 74.456 389.605 74.0667 389.605 73.64C389.605 73.2133 389.515 72.8293 389.333 72.488C389.152 72.136 388.896 71.8587 388.565 71.656C388.245 71.4427 387.877 71.336 387.461 71.336C387.056 71.336 386.688 71.4427 386.357 71.656C386.037 71.8693 385.781 72.152 385.589 72.504C385.408 72.8453 385.317 73.224 385.317 73.64ZM395.22 77.256C394.623 77.256 394.127 77.0747 393.732 76.712C393.348 76.3387 393.145 75.8587 393.124 75.272V70.376H394.612V74.744C394.633 75.1067 394.735 75.4 394.916 75.624C395.108 75.848 395.407 75.9653 395.812 75.976C396.185 75.976 396.516 75.8693 396.804 75.656C397.103 75.432 397.343 75.1333 397.524 74.76C397.705 74.376 397.796 73.944 397.796 73.464V70.376H399.284V77H397.924L397.796 75.368L397.876 75.656C397.748 75.9653 397.551 76.2427 397.284 76.488C397.028 76.7227 396.724 76.9093 396.372 77.048C396.02 77.1867 395.636 77.256 395.22 77.256ZM403.187 70.376L403.315 71.992L403.251 71.736C403.464 71.2453 403.811 70.856 404.291 70.568C404.771 70.2693 405.325 70.12 405.955 70.12C406.584 70.12 407.096 70.3067 407.491 70.68C407.896 71.0427 408.104 71.5173 408.115 72.104V77H406.611V72.632C406.6 72.2693 406.493 71.976 406.291 71.752C406.099 71.5173 405.795 71.4 405.379 71.4C404.995 71.4 404.648 71.5067 404.339 71.72C404.029 71.9333 403.784 72.2267 403.603 72.6C403.432 72.9733 403.347 73.4053 403.347 73.896V77H401.859V70.376H403.187ZM411.342 67.464H412.83V70.408H414.654V71.576H412.83V77H411.342V71.576H410.126V70.408H411.342V67.464Z" fill="black"/>
<path d="M560.16 76.136C559.968 76.264 559.707 76.408 559.376 76.568C559.045 76.728 558.656 76.8613 558.208 76.968C557.771 77.0747 557.291 77.128 556.768 77.128C555.872 77.1173 555.061 76.9573 554.336 76.648C553.621 76.3387 553.013 75.9173 552.512 75.384C552.011 74.8507 551.621 74.2373 551.344 73.544C551.077 72.84 550.944 72.0933 550.944 71.304C550.944 70.44 551.083 69.6453 551.36 68.92C551.648 68.184 552.048 67.5493 552.56 67.016C553.072 66.472 553.675 66.0507 554.368 65.752C555.072 65.4533 555.84 65.304 556.672 65.304C557.365 65.304 557.995 65.4 558.56 65.592C559.125 65.7733 559.611 65.992 560.016 66.248L559.392 67.688C559.072 67.4747 558.683 67.272 558.224 67.08C557.776 66.888 557.275 66.792 556.72 66.792C556.155 66.792 555.621 66.904 555.12 67.128C554.619 67.352 554.176 67.6667 553.792 68.072C553.408 68.4773 553.104 68.952 552.88 69.496C552.667 70.0293 552.56 70.6053 552.56 71.224C552.56 71.8533 552.656 72.44 552.848 72.984C553.051 73.5173 553.333 73.9813 553.696 74.376C554.069 74.7707 554.517 75.08 555.04 75.304C555.563 75.528 556.149 75.64 556.8 75.64C557.387 75.64 557.909 75.5493 558.368 75.368C558.827 75.1867 559.205 74.984 559.504 74.76L560.16 76.136ZM561.829 73.624C561.829 72.9627 561.984 72.3653 562.293 71.832C562.613 71.2987 563.051 70.8773 563.605 70.568C564.16 70.2587 564.789 70.104 565.493 70.104C566.219 70.104 566.853 70.2587 567.397 70.568C567.941 70.8773 568.363 71.2987 568.661 71.832C568.96 72.3653 569.109 72.9627 569.109 73.624C569.109 74.2853 568.96 74.888 568.661 75.432C568.363 75.9653 567.936 76.3867 567.381 76.696C566.837 77.0053 566.203 77.16 565.477 77.16C564.773 77.16 564.144 77.016 563.589 76.728C563.045 76.4293 562.613 76.0187 562.293 75.496C561.984 74.9627 561.829 74.3387 561.829 73.624ZM563.317 73.64C563.317 74.0667 563.413 74.456 563.605 74.808C563.797 75.1493 564.053 75.4213 564.373 75.624C564.704 75.8267 565.067 75.928 565.461 75.928C565.877 75.928 566.245 75.8267 566.565 75.624C566.896 75.4213 567.152 75.1493 567.333 74.808C567.515 74.456 567.605 74.0667 567.605 73.64C567.605 73.2133 567.515 72.8293 567.333 72.488C567.152 72.136 566.896 71.8587 566.565 71.656C566.245 71.4427 565.877 71.336 565.461 71.336C565.056 71.336 564.688 71.4427 564.357 71.656C564.037 71.8693 563.781 72.152 563.589 72.504C563.408 72.8453 563.317 73.224 563.317 73.64ZM572.452 70.376L572.596 72.296L572.516 72.04C572.687 71.6347 572.932 71.2933 573.252 71.016C573.583 70.728 573.924 70.5093 574.276 70.36C574.639 70.2 574.953 70.12 575.22 70.12L575.14 71.592C574.639 71.56 574.196 71.656 573.812 71.88C573.439 72.104 573.14 72.4027 572.916 72.776C572.703 73.1493 572.596 73.5493 572.596 73.976V77H571.124V70.376H572.452ZM579.931 77.16C579.173 77.16 578.523 77.0107 577.979 76.712C577.435 76.4027 577.013 75.9867 576.715 75.464C576.427 74.9307 576.283 74.3227 576.283 73.64C576.283 72.9893 576.448 72.3973 576.779 71.864C577.109 71.3307 577.552 70.904 578.107 70.584C578.661 70.264 579.28 70.104 579.963 70.104C580.837 70.104 581.563 70.36 582.139 70.872C582.715 71.384 583.104 72.088 583.307 72.984L577.851 74.904L577.499 74.024L581.979 72.392L581.659 72.6C581.531 72.248 581.317 71.944 581.019 71.688C580.72 71.4213 580.331 71.288 579.851 71.288C579.445 71.288 579.083 71.3893 578.763 71.592C578.443 71.784 578.192 72.0507 578.011 72.392C577.829 72.7333 577.739 73.1227 577.739 73.56C577.739 74.0187 577.835 74.424 578.027 74.776C578.219 75.1173 578.48 75.3893 578.811 75.592C579.152 75.784 579.536 75.88 579.963 75.88C580.251 75.88 580.528 75.8267 580.795 75.72C581.072 75.6133 581.328 75.4747 581.563 75.304L582.251 76.408C581.92 76.632 581.547 76.8133 581.131 76.952C580.725 77.0907 580.325 77.16 579.931 77.16ZM589.45 77L594.506 64.952H594.602L599.642 77H597.866L594.09 67.384L595.194 66.664L590.97 77H589.45ZM592.41 72.616H596.714L597.226 73.96H591.962L592.41 72.616ZM604.908 65.432C605.751 65.432 606.471 65.576 607.068 65.864C607.666 66.1413 608.124 66.5467 608.444 67.08C608.775 67.6133 608.94 68.2587 608.94 69.016C608.94 69.4747 608.871 69.928 608.732 70.376C608.594 70.8133 608.37 71.2133 608.06 71.576C607.762 71.928 607.367 72.2107 606.876 72.424C606.386 72.6373 605.788 72.744 605.084 72.744H603.372V77H601.82V65.432H604.908ZM605.068 71.256C605.527 71.256 605.906 71.1813 606.204 71.032C606.503 70.8827 606.738 70.696 606.908 70.472C607.079 70.2373 607.202 69.992 607.276 69.736C607.351 69.48 607.388 69.2507 607.388 69.048C607.388 68.8133 607.351 68.5733 607.276 68.328C607.202 68.072 607.074 67.8427 606.892 67.64C606.722 67.4267 606.492 67.256 606.204 67.128C605.927 66.9893 605.58 66.92 605.164 66.92H603.372V71.256H605.068ZM611.336 65.432H612.888V77H611.336V65.432Z" fill="black"/>
<path d="M756.664 63.432H764.184V64.92H758.216V68.44H763.544V69.928H758.216V73.512H764.408V75H756.664V63.432ZM768.062 68.376L768.19 69.864L768.126 69.736C768.371 69.2347 768.718 68.84 769.166 68.552C769.624 68.264 770.147 68.12 770.734 68.12C771.107 68.12 771.438 68.1787 771.726 68.296C772.014 68.4133 772.248 68.584 772.43 68.808C772.622 69.0213 772.744 69.288 772.798 69.608L772.718 69.656C772.974 69.176 773.326 68.8027 773.774 68.536C774.232 68.2587 774.712 68.12 775.214 68.12C775.864 68.12 776.376 68.3067 776.75 68.68C777.134 69.0427 777.331 69.5173 777.342 70.104V75H775.854V70.632C775.843 70.2907 775.758 70.008 775.598 69.784C775.448 69.5493 775.182 69.4213 774.798 69.4C774.414 69.4 774.067 69.5173 773.758 69.752C773.459 69.9867 773.224 70.2907 773.054 70.664C772.883 71.0267 772.792 71.4213 772.782 71.848V75H771.294V70.632C771.283 70.2907 771.192 70.008 771.022 69.784C770.862 69.5493 770.59 69.4213 770.206 69.4C769.811 69.4 769.464 69.5173 769.166 69.752C768.867 69.9867 768.632 70.2907 768.462 70.664C768.302 71.0373 768.222 71.4373 768.222 71.864V75H766.734V68.376H768.062ZM783.969 75.16C783.361 75.16 782.822 75.0267 782.353 74.76C781.894 74.4933 781.526 74.1573 781.249 73.752L781.425 73.288V75H779.937V62.616H781.409V69.896L781.361 69.336C781.627 68.9733 782.006 68.68 782.497 68.456C782.998 68.2213 783.553 68.104 784.161 68.104C784.758 68.104 785.302 68.248 785.793 68.536C786.283 68.824 786.673 69.2293 786.961 69.752C787.259 70.264 787.409 70.8773 787.409 71.592C787.409 72.3387 787.249 72.9787 786.929 73.512C786.619 74.0453 786.203 74.456 785.681 74.744C785.158 75.0213 784.587 75.16 783.969 75.16ZM783.665 73.896C784.091 73.896 784.475 73.7947 784.817 73.592C785.158 73.3893 785.425 73.1173 785.617 72.776C785.809 72.424 785.905 72.024 785.905 71.576C785.905 71.1493 785.803 70.7653 785.601 70.424C785.409 70.072 785.142 69.7947 784.801 69.592C784.47 69.3893 784.091 69.288 783.665 69.288C783.302 69.288 782.966 69.3573 782.657 69.496C782.347 69.6347 782.086 69.8267 781.873 70.072C781.659 70.3067 781.51 70.584 781.425 70.904V72.232C781.51 72.552 781.654 72.84 781.857 73.096C782.059 73.3413 782.315 73.5387 782.625 73.688C782.934 73.8267 783.281 73.896 783.665 73.896ZM792.493 75.16C791.736 75.16 791.085 75.0107 790.541 74.712C789.997 74.4027 789.576 73.9867 789.277 73.464C788.989 72.9307 788.845 72.3227 788.845 71.64C788.845 70.9893 789.01 70.3973 789.341 69.864C789.672 69.3307 790.114 68.904 790.669 68.584C791.224 68.264 791.842 68.104 792.525 68.104C793.4 68.104 794.125 68.36 794.701 68.872C795.277 69.384 795.666 70.088 795.869 70.984L790.413 72.904L790.061 72.024L794.541 70.392L794.221 70.6C794.093 70.248 793.88 69.944 793.581 69.688C793.282 69.4213 792.893 69.288 792.413 69.288C792.008 69.288 791.645 69.3893 791.325 69.592C791.005 69.784 790.754 70.0507 790.573 70.392C790.392 70.7333 790.301 71.1227 790.301 71.56C790.301 72.0187 790.397 72.424 790.589 72.776C790.781 73.1173 791.042 73.3893 791.373 73.592C791.714 73.784 792.098 73.88 792.525 73.88C792.813 73.88 793.09 73.8267 793.357 73.72C793.634 73.6133 793.89 73.4747 794.125 73.304L794.813 74.408C794.482 74.632 794.109 74.8133 793.693 74.952C793.288 75.0907 792.888 75.16 792.493 75.16ZM800.422 75.16C799.814 75.16 799.259 75.016 798.758 74.728C798.267 74.4293 797.878 74.0133 797.59 73.48C797.302 72.936 797.158 72.312 797.158 71.608C797.158 70.872 797.307 70.2427 797.606 69.72C797.915 69.1973 798.331 68.7973 798.854 68.52C799.376 68.2427 799.963 68.104 800.614 68.104C801.136 68.104 801.632 68.216 802.102 68.44C802.582 68.664 802.955 68.9733 803.222 69.368L803.158 69.896V62.616H804.63V75H803.142V73.352L803.302 73.768C802.992 74.1733 802.592 74.5093 802.102 74.776C801.611 75.032 801.051 75.16 800.422 75.16ZM800.886 73.896C801.28 73.896 801.632 73.8267 801.942 73.688C802.251 73.5387 802.507 73.336 802.71 73.08C802.912 72.824 803.056 72.52 803.142 72.168V70.92C803.056 70.6 802.902 70.3227 802.678 70.088C802.464 69.8427 802.203 69.6507 801.894 69.512C801.595 69.3627 801.259 69.288 800.886 69.288C800.48 69.288 800.107 69.3893 799.766 69.592C799.435 69.784 799.168 70.0507 798.966 70.392C798.763 70.7333 798.662 71.128 798.662 71.576C798.662 72.0133 798.763 72.408 798.966 72.76C799.168 73.1013 799.44 73.3787 799.782 73.592C800.123 73.7947 800.491 73.896 800.886 73.896ZM809.906 75.16C809.298 75.16 808.743 75.016 808.242 74.728C807.751 74.4293 807.362 74.0133 807.074 73.48C806.786 72.936 806.642 72.312 806.642 71.608C806.642 70.872 806.791 70.2427 807.09 69.72C807.399 69.1973 807.815 68.7973 808.338 68.52C808.861 68.2427 809.447 68.104 810.098 68.104C810.621 68.104 811.117 68.216 811.586 68.44C812.066 68.664 812.439 68.9733 812.706 69.368L812.642 69.896V62.616H814.114V75H812.626V73.352L812.786 73.768C812.477 74.1733 812.077 74.5093 811.586 74.776C811.095 75.032 810.535 75.16 809.906 75.16ZM810.37 73.896C810.765 73.896 811.117 73.8267 811.426 73.688C811.735 73.5387 811.991 73.336 812.194 73.08C812.397 72.824 812.541 72.52 812.626 72.168V70.92C812.541 70.6 812.386 70.3227 812.162 70.088C811.949 69.8427 811.687 69.6507 811.378 69.512C811.079 69.3627 810.743 69.288 810.37 69.288C809.965 69.288 809.591 69.3893 809.25 69.592C808.919 69.784 808.653 70.0507 808.45 70.392C808.247 70.7333 808.146 71.128 808.146 71.576C808.146 72.0133 808.247 72.408 808.45 72.76C808.653 73.1013 808.925 73.3787 809.266 73.592C809.607 73.7947 809.975 73.896 810.37 73.896ZM819.774 75.16C819.017 75.16 818.366 75.0107 817.822 74.712C817.278 74.4027 816.857 73.9867 816.558 73.464C816.27 72.9307 816.126 72.3227 816.126 71.64C816.126 70.9893 816.292 70.3973 816.622 69.864C816.953 69.3307 817.396 68.904 817.95 68.584C818.505 68.264 819.124 68.104 819.806 68.104C820.681 68.104 821.406 68.36 821.982 68.872C822.558 69.384 822.948 70.088 823.15 70.984L817.694 72.904L817.342 72.024L821.822 70.392L821.502 70.6C821.374 70.248 821.161 69.944 820.862 69.688C820.564 69.4213 820.174 69.288 819.694 69.288C819.289 69.288 818.926 69.3893 818.606 69.592C818.286 69.784 818.036 70.0507 817.854 70.392C817.673 70.7333 817.582 71.1227 817.582 71.56C817.582 72.0187 817.678 72.424 817.87 72.776C818.062 73.1173 818.324 73.3893 818.654 73.592C818.996 73.784 819.38 73.88 819.806 73.88C820.094 73.88 820.372 73.8267 820.638 73.72C820.916 73.6133 821.172 73.4747 821.406 73.304L822.094 74.408C821.764 74.632 821.39 74.8133 820.974 74.952C820.569 75.0907 820.169 75.16 819.774 75.16ZM827.703 75.16C827.095 75.16 826.54 75.016 826.039 74.728C825.548 74.4293 825.159 74.0133 824.871 73.48C824.583 72.936 824.439 72.312 824.439 71.608C824.439 70.872 824.588 70.2427 824.887 69.72C825.196 69.1973 825.612 68.7973 826.135 68.52C826.657 68.2427 827.244 68.104 827.895 68.104C828.417 68.104 828.913 68.216 829.383 68.44C829.863 68.664 830.236 68.9733 830.503 69.368L830.439 69.896V62.616H831.911V75H830.423V73.352L830.583 73.768C830.273 74.1733 829.873 74.5093 829.383 74.776C828.892 75.032 828.332 75.16 827.703 75.16ZM828.167 73.896C828.561 73.896 828.913 73.8267 829.223 73.688C829.532 73.5387 829.788 73.336 829.991 73.08C830.193 72.824 830.337 72.52 830.423 72.168V70.92C830.337 70.6 830.183 70.3227 829.959 70.088C829.745 69.8427 829.484 69.6507 829.175 69.512C828.876 69.3627 828.54 69.288 828.167 69.288C827.761 69.288 827.388 69.3893 827.047 69.592C826.716 69.784 826.449 70.0507 826.247 70.392C826.044 70.7333 825.943 71.128 825.943 71.576C825.943 72.0133 826.044 72.408 826.247 72.76C826.449 73.1013 826.721 73.3787 827.063 73.592C827.404 73.7947 827.772 73.896 828.167 73.896ZM839.93 63.432H846.794V64.92H841.482V68.616H846.138V70.088H841.482V75H839.93V63.432ZM848.702 68.376H850.19V75H848.702V68.376ZM848.59 65.976C848.59 65.7413 848.681 65.544 848.862 65.384C849.054 65.224 849.262 65.144 849.486 65.144C849.71 65.144 849.908 65.224 850.078 65.384C850.26 65.544 850.35 65.7413 850.35 65.976C850.35 66.2213 850.26 66.424 850.078 66.584C849.908 66.7333 849.71 66.808 849.486 66.808C849.262 66.808 849.054 66.728 848.862 66.568C848.681 66.408 848.59 66.2107 848.59 65.976ZM854.093 68.376L854.221 69.992L854.157 69.736C854.37 69.2453 854.717 68.856 855.197 68.568C855.677 68.2693 856.231 68.12 856.861 68.12C857.49 68.12 858.002 68.3067 858.397 68.68C858.802 69.0427 859.01 69.5173 859.021 70.104V75H857.517V70.632C857.506 70.2693 857.399 69.976 857.197 69.752C857.005 69.5173 856.701 69.4 856.285 69.4C855.901 69.4 855.554 69.5067 855.245 69.72C854.935 69.9333 854.69 70.2267 854.509 70.6C854.338 70.9733 854.253 71.4053 854.253 71.896V75H852.765V68.376H854.093ZM864.361 75.16C863.742 75.16 863.177 75.0267 862.664 74.76C862.163 74.4933 861.763 74.104 861.465 73.592C861.177 73.0693 861.033 72.4347 861.033 71.688C861.033 70.952 861.187 70.3173 861.497 69.784C861.806 69.24 862.217 68.824 862.729 68.536C863.251 68.248 863.822 68.104 864.441 68.104C865.059 68.104 865.582 68.248 866.009 68.536C866.435 68.8133 866.761 69.144 866.985 69.528L866.889 69.784L867.033 68.376H868.409V75H866.921V73.272L867.081 73.656C867.038 73.7627 866.942 73.9013 866.793 74.072C866.654 74.232 866.462 74.3973 866.217 74.568C865.982 74.7387 865.71 74.8827 865.401 75C865.091 75.1067 864.745 75.16 864.361 75.16ZM864.761 73.928C865.134 73.928 865.47 73.8587 865.769 73.72C866.067 73.5813 866.313 73.3893 866.505 73.144C866.707 72.888 866.846 72.584 866.921 72.232V70.936C866.835 70.616 866.686 70.3387 866.473 70.104C866.259 69.8587 866.003 69.672 865.705 69.544C865.406 69.4053 865.075 69.336 864.713 69.336C864.318 69.336 863.955 69.432 863.625 69.624C863.294 69.816 863.027 70.0827 862.825 70.424C862.633 70.7653 862.537 71.1653 862.537 71.624C862.537 72.0507 862.638 72.44 862.841 72.792C863.043 73.144 863.315 73.4213 863.657 73.624C863.998 73.8267 864.366 73.928 864.761 73.928ZM872.312 68.376L872.44 69.992L872.376 69.736C872.589 69.2453 872.936 68.856 873.416 68.568C873.896 68.2693 874.45 68.12 875.08 68.12C875.709 68.12 876.221 68.3067 876.616 68.68C877.021 69.0427 877.229 69.5173 877.24 70.104V75H875.736V70.632C875.725 70.2693 875.618 69.976 875.416 69.752C875.224 69.5173 874.92 69.4 874.504 69.4C874.12 69.4 873.773 69.5067 873.464 69.72C873.154 69.9333 872.909 70.2267 872.728 70.6C872.557 70.9733 872.472 71.4053 872.472 71.896V75H870.984V68.376H872.312ZM885.203 74.392C884.905 74.6267 884.547 74.8133 884.131 74.952C883.715 75.0907 883.299 75.16 882.883 75.16C882.158 75.16 881.523 75.016 880.979 74.728C880.435 74.44 880.009 74.04 879.699 73.528C879.401 73.0053 879.251 72.392 879.251 71.688C879.251 70.984 879.411 70.3707 879.731 69.848C880.062 69.3253 880.489 68.9253 881.011 68.648C881.545 68.36 882.115 68.216 882.723 68.216C883.257 68.216 883.731 68.2907 884.147 68.44C884.574 68.5893 884.937 68.792 885.235 69.048L884.499 70.008C884.307 69.8587 884.073 69.7253 883.795 69.608C883.518 69.4907 883.203 69.432 882.851 69.432C882.467 69.432 882.11 69.5333 881.779 69.736C881.459 69.928 881.203 70.1947 881.011 70.536C880.83 70.8773 880.739 71.2613 880.739 71.688C880.739 72.0933 880.835 72.472 881.027 72.824C881.219 73.1653 881.486 73.4373 881.827 73.64C882.169 73.832 882.558 73.928 882.995 73.928C883.283 73.928 883.545 73.8853 883.779 73.8C884.025 73.7147 884.243 73.5973 884.435 73.448L885.203 74.392ZM890.196 75.16C889.439 75.16 888.788 75.0107 888.244 74.712C887.7 74.4027 887.279 73.9867 886.98 73.464C886.692 72.9307 886.548 72.3227 886.548 71.64C886.548 70.9893 886.713 70.3973 887.044 69.864C887.375 69.3307 887.817 68.904 888.372 68.584C888.927 68.264 889.545 68.104 890.228 68.104C891.103 68.104 891.828 68.36 892.404 68.872C892.98 69.384 893.369 70.088 893.572 70.984L888.116 72.904L887.764 72.024L892.244 70.392L891.924 70.6C891.796 70.248 891.583 69.944 891.284 69.688C890.985 69.4213 890.596 69.288 890.116 69.288C889.711 69.288 889.348 69.3893 889.028 69.592C888.708 69.784 888.457 70.0507 888.276 70.392C888.095 70.7333 888.004 71.1227 888.004 71.56C888.004 72.0187 888.1 72.424 888.292 72.776C888.484 73.1173 888.745 73.3893 889.076 73.592C889.417 73.784 889.801 73.88 890.228 73.88C890.516 73.88 890.793 73.8267 891.06 73.72C891.337 73.6133 891.593 73.4747 891.828 73.304L892.516 74.408C892.185 74.632 891.812 74.8133 891.396 74.952C890.991 75.0907 890.591 75.16 890.196 75.16Z" fill="black"/>
<rect x="5" y="83" width="189" height="16" fill="#79E2D5"/>
</svg>
