<svg width="369" height="62" viewBox="0 0 369 62" fill="none" xmlns="http://www.w3.org/2000/svg">
<path d="M112.28 60V35.016H107.384V31.92H112.28V17.736C112.28 13.224 113.048 9.984 114.584 8.016C116.168 6 118.496 4.992 121.568 4.992C122.24 4.992 122.96 5.088 123.728 5.28C124.496 5.424 125.192 5.688 125.816 6.072L124.376 8.52C124.04 8.28 123.656 8.112 123.224 8.016C122.84 7.872 122.384 7.8 121.856 7.8C119.792 7.8 118.232 8.52 117.176 9.96C116.168 11.4 115.664 13.968 115.664 17.664V31.92H125.096V35.016H115.664V60H112.28ZM129.961 45.744C129.961 43.008 130.609 40.512 131.905 38.256C133.249 36 135.049 34.224 137.305 32.928C139.609 31.584 142.177 30.912 145.009 30.912C147.889 30.912 150.457 31.584 152.713 32.928C154.969 34.224 156.745 36 158.041 38.256C159.337 40.512 159.985 43.008 159.985 45.744C159.985 48.48 159.337 50.976 158.041 53.232C156.745 55.488 154.945 57.288 152.641 58.632C150.385 59.928 147.841 60.576 145.009 60.576C142.129 60.576 139.561 59.952 137.305 58.704C135.049 57.408 133.249 55.656 131.905 53.448C130.609 51.192 129.961 48.624 129.961 45.744ZM133.345 45.816C133.345 48.024 133.849 50.04 134.857 51.864C135.913 53.64 137.305 55.056 139.033 56.112C140.809 57.168 142.777 57.696 144.937 57.696C147.097 57.696 149.041 57.168 150.769 56.112C152.545 55.056 153.937 53.64 154.945 51.864C156.001 50.04 156.529 48.024 156.529 45.816C156.529 43.608 156.001 41.616 154.945 39.84C153.937 38.016 152.545 36.576 150.769 35.52C149.041 34.416 147.097 33.864 144.937 33.864C142.729 33.864 140.737 34.44 138.961 35.592C137.233 36.696 135.865 38.16 134.857 39.984C133.849 41.808 133.345 43.752 133.345 45.816ZM167.297 45.744C167.297 43.008 167.945 40.512 169.241 38.256C170.585 36 172.385 34.224 174.641 32.928C176.945 31.584 179.513 30.912 182.345 30.912C185.225 30.912 187.793 31.584 190.049 32.928C192.305 34.224 194.081 36 195.377 38.256C196.673 40.512 197.321 43.008 197.321 45.744C197.321 48.48 196.673 50.976 195.377 53.232C194.081 55.488 192.281 57.288 189.977 58.632C187.721 59.928 185.177 60.576 182.345 60.576C179.465 60.576 176.897 59.952 174.641 58.704C172.385 57.408 170.585 55.656 169.241 53.448C167.945 51.192 167.297 48.624 167.297 45.744ZM170.681 45.816C170.681 48.024 171.185 50.04 172.193 51.864C173.249 53.64 174.641 55.056 176.369 56.112C178.145 57.168 180.113 57.696 182.273 57.696C184.433 57.696 186.377 57.168 188.105 56.112C189.881 55.056 191.273 53.64 192.281 51.864C193.337 50.04 193.865 48.024 193.865 45.816C193.865 43.608 193.337 41.616 192.281 39.84C191.273 38.016 189.881 36.576 188.105 35.52C186.377 34.416 184.433 33.864 182.273 33.864C180.065 33.864 178.073 34.44 176.297 35.592C174.569 36.696 173.201 38.16 172.193 39.984C171.185 41.808 170.681 43.752 170.681 45.816ZM218.889 60.576C216.249 60.576 213.849 59.952 211.689 58.704C209.529 57.408 207.801 55.632 206.505 53.376C205.257 51.12 204.633 48.576 204.633 45.744C204.633 42.72 205.281 40.104 206.577 37.896C207.873 35.688 209.625 33.984 211.833 32.784C214.089 31.584 216.561 30.984 219.249 30.984C221.937 30.984 224.481 31.68 226.881 33.072C229.329 34.464 231.105 36.288 232.209 38.544L231.633 40.128V5.28H235.017V60H231.561V51.36L232.281 52.944C231.081 55.2 229.281 57.048 226.881 58.488C224.481 59.88 221.817 60.576 218.889 60.576ZM219.753 57.624C221.913 57.624 223.857 57.168 225.585 56.256C227.313 55.296 228.705 54.024 229.761 52.44C230.817 50.808 231.417 48.984 231.561 46.968V43.368C231.225 41.544 230.481 39.912 229.329 38.472C228.177 37.032 226.785 35.904 225.153 35.088C223.521 34.224 221.721 33.792 219.753 33.792C217.593 33.792 215.625 34.296 213.849 35.304C212.073 36.312 210.657 37.704 209.601 39.48C208.545 41.256 208.017 43.32 208.017 45.672C208.017 47.88 208.545 49.896 209.601 51.72C210.657 53.496 212.073 54.936 213.849 56.04C215.673 57.096 217.641 57.624 219.753 57.624ZM267.239 60.864C264.599 60.864 262.367 60.432 260.543 59.568C258.767 58.656 257.207 57.48 255.863 56.04L256.655 53.88V60H246.575V3.192H256.583V33.936V30.696C257.831 29.64 259.487 28.752 261.551 28.032C263.615 27.312 265.967 26.952 268.607 26.952C271.343 26.952 273.839 27.6 276.095 28.896C278.351 30.192 280.151 32.088 281.495 34.584C282.887 37.032 283.583 40.032 283.583 43.584C283.583 47.136 282.815 50.208 281.279 52.8C279.791 55.392 277.799 57.384 275.303 58.776C272.807 60.168 270.119 60.864 267.239 60.864ZM265.007 52.368C266.495 52.368 267.863 51.984 269.111 51.216C270.407 50.448 271.439 49.392 272.207 48.048C272.975 46.704 273.359 45.192 273.359 43.512C273.359 41.832 272.975 40.344 272.207 39.048C271.439 37.752 270.407 36.744 269.111 36.024C267.863 35.256 266.495 34.872 265.007 34.872C263.711 34.872 262.487 35.088 261.335 35.52C260.231 35.904 259.271 36.48 258.455 37.248C257.687 37.968 257.087 38.856 256.655 39.912V47.616C257.231 48.672 257.903 49.56 258.671 50.28C259.487 50.952 260.423 51.48 261.479 51.864C262.535 52.2 263.711 52.368 265.007 52.368ZM289.056 43.872C289.056 40.656 289.8 37.776 291.288 35.232C292.824 32.688 294.96 30.696 297.696 29.256C300.432 27.768 303.576 27.024 307.128 27.024C310.728 27.024 313.848 27.768 316.488 29.256C319.128 30.696 321.144 32.688 322.536 35.232C323.976 37.776 324.696 40.656 324.696 43.872C324.696 47.088 323.976 49.992 322.536 52.584C321.144 55.128 319.128 57.144 316.488 58.632C313.848 60.12 310.68 60.864 306.984 60.864C303.528 60.864 300.432 60.192 297.696 58.848C295.008 57.504 292.896 55.56 291.36 53.016C289.824 50.472 289.056 47.424 289.056 43.872ZM299.208 43.944C299.208 45.576 299.544 47.064 300.216 48.408C300.888 49.704 301.8 50.736 302.952 51.504C304.104 52.272 305.4 52.656 306.84 52.656C308.424 52.656 309.792 52.272 310.944 51.504C312.096 50.736 312.984 49.704 313.608 48.408C314.232 47.064 314.544 45.576 314.544 43.944C314.544 42.264 314.232 40.776 313.608 39.48C312.984 38.184 312.096 37.152 310.944 36.384C309.792 35.616 308.424 35.232 306.84 35.232C305.4 35.232 304.104 35.616 302.952 36.384C301.8 37.152 300.888 38.184 300.216 39.48C299.544 40.776 299.208 42.264 299.208 43.944ZM330.189 43.872C330.189 40.656 330.933 37.776 332.421 35.232C333.957 32.688 336.093 30.696 338.829 29.256C341.565 27.768 344.709 27.024 348.261 27.024C351.861 27.024 354.981 27.768 357.621 29.256C360.261 30.696 362.277 32.688 363.669 35.232C365.109 37.776 365.829 40.656 365.829 43.872C365.829 47.088 365.109 49.992 363.669 52.584C362.277 55.128 360.261 57.144 357.621 58.632C354.981 60.12 351.813 60.864 348.117 60.864C344.661 60.864 341.565 60.192 338.829 58.848C336.141 57.504 334.029 55.56 332.493 53.016C330.957 50.472 330.189 47.424 330.189 43.872ZM340.341 43.944C340.341 45.576 340.677 47.064 341.349 48.408C342.021 49.704 342.933 50.736 344.085 51.504C345.237 52.272 346.533 52.656 347.973 52.656C349.557 52.656 350.925 52.272 352.077 51.504C353.229 50.736 354.117 49.704 354.741 48.408C355.365 47.064 355.677 45.576 355.677 43.944C355.677 42.264 355.365 40.776 354.741 39.48C354.117 38.184 353.229 37.152 352.077 36.384C350.925 35.616 349.557 35.232 347.973 35.232C346.533 35.232 345.237 35.616 344.085 36.384C342.933 37.152 342.021 38.184 341.349 39.48C340.677 40.776 340.341 42.264 340.341 43.944Z" fill="black"/>
<path d="M51.6523 36.9301V19.4785H58.3707C59.7471 19.4789 61.1093 19.7438 62.3748 20.2573V31.8758C62.3761 32.297 62.5531 32.7005 62.867 32.9983C63.1809 33.2962 63.6063 33.464 64.0502 33.4652H77.2858C77.9754 34.7838 78.3311 36.2369 78.3246 37.7089V52.5062H71.6733C71.6253 50.7196 70.8434 49.0215 69.4945 47.774C68.1455 46.5265 66.3362 45.8283 64.4523 45.8283C62.5685 45.8283 60.7592 46.5265 59.4102 47.774C58.0612 49.0215 57.2794 50.7196 57.2314 52.5062H51.6859V36.9301H51.6523Z" fill="white"/>
<path d="M77.286 33.4652H64.0504C63.6064 33.464 63.181 33.2961 62.8671 32.9983C62.5532 32.7005 62.3763 32.297 62.375 31.8758V20.2573C63.4149 20.6864 64.3719 21.2773 65.2064 22.0057L75.108 30.6997C76.0064 31.4872 76.7446 32.4246 77.286 33.4652Z" fill="white"/>
<path d="M71.6733 52.5065V52.6814C71.6733 54.4982 70.9126 56.2406 69.5584 57.5253C68.2042 58.8099 66.3675 59.5317 64.4524 59.5317C62.5373 59.5317 60.7006 58.8099 59.3464 57.5253C57.9922 56.2406 57.2314 54.4982 57.2314 52.6814V52.5065C57.2794 50.7199 58.0613 49.0218 59.4102 47.7743C60.7592 46.5268 62.5685 45.8286 64.4524 45.8286C66.3362 45.8286 68.1456 46.5268 69.4945 47.7743C70.8435 49.0218 71.6253 50.7199 71.6733 52.5065V52.5065ZM67.5184 52.6814C67.5184 52.1029 67.3376 51.5375 66.9988 51.0566C66.6601 50.5757 66.1786 50.2008 65.6153 49.9795C65.052 49.7581 64.4322 49.7002 63.8342 49.8131C63.2362 49.9259 62.6869 50.2044 62.2558 50.6134C61.8247 51.0224 61.5311 51.5435 61.4121 52.1108C61.2932 52.6781 61.3542 53.2661 61.5876 53.8005C61.8209 54.3349 62.216 54.7916 62.723 55.113C63.2299 55.4343 63.8259 55.6058 64.4356 55.6058C64.8408 55.6069 65.2421 55.5319 65.6166 55.3853C65.9911 55.2387 66.3313 55.0233 66.6178 54.7515C66.9043 54.4798 67.1313 54.157 67.2859 53.8017C67.4404 53.4464 67.5194 53.0657 67.5184 52.6814V52.6814Z" fill="#FFC529"/>
<path d="M64.4353 49.7568C65.045 49.7568 65.641 49.9284 66.1479 50.2497C66.6549 50.5711 67.05 51.0278 67.2833 51.5622C67.5167 52.0965 67.5777 52.6846 67.4588 53.2518C67.3398 53.8191 67.0462 54.3402 66.6151 54.7492C66.184 55.1582 65.6347 55.4367 65.0367 55.5496C64.4387 55.6624 63.8189 55.6045 63.2556 55.3832C62.6923 55.1618 62.2108 54.787 61.8721 54.3061C61.5333 53.8251 61.3525 53.2597 61.3525 52.6813C61.3515 52.297 61.4305 51.9162 61.585 51.561C61.7396 51.2057 61.9666 50.8829 62.2531 50.6112C62.5396 50.3394 62.8798 50.124 63.2543 49.9774C63.6288 49.8308 64.0301 49.7558 64.4353 49.7568V49.7568Z" fill="#FFC529"/>
<path d="M51.6517 36.9302V52.5063H22.902C22.854 50.7197 22.0722 49.0216 20.7232 47.7741C19.3743 46.5266 17.5649 45.8284 15.6811 45.8284C13.7972 45.8284 11.9879 46.5266 10.6389 47.7741C9.28999 49.0216 8.50815 50.7197 8.46014 52.5063H1.6748V36.9302H51.6517Z" fill="white"/>
<path d="M51.6518 35.1341V36.946H1.6748V16.9196C1.67456 16.0846 1.84774 15.2578 2.18444 14.4864C2.52114 13.7149 3.01476 13.014 3.63711 12.4236C4.25946 11.8332 4.99833 11.3649 5.81151 11.0455C6.62469 10.7261 7.49624 10.5618 8.37637 10.562H44.9502C45.8303 10.5618 46.7019 10.7261 47.515 11.0455C48.3282 11.3649 49.0671 11.8332 49.6894 12.4236C50.3118 13.014 50.8054 13.7149 51.1421 14.4864C51.4788 15.2578 51.652 16.0846 51.6518 16.9196V35.1341ZM8.46014 52.5062C8.50815 50.7197 9.28999 49.0216 10.6389 47.774C11.9879 46.5265 13.7972 45.8283 15.6811 45.8283C17.5649 45.8283 19.3743 46.5265 20.7232 47.774C22.0722 49.0216 22.854 50.7197 22.902 52.5062V52.6811C22.902 54.5 22.1404 56.2444 20.7846 57.5306C19.4288 58.8168 17.59 59.5393 15.6727 59.5393C13.7554 59.5393 11.9166 58.8168 10.5608 57.5306C9.20505 56.2444 8.44339 54.5 8.44339 52.6811C8.45726 52.6238 8.4629 52.565 8.46014 52.5062ZM18.7638 52.6811C18.7638 52.1027 18.583 51.5373 18.2443 51.0563C17.9055 50.5754 17.4241 50.2005 16.8608 49.9792C16.2975 49.7579 15.6777 49.6999 15.0797 49.8128C14.4817 49.9256 13.9324 50.2042 13.5013 50.6131C13.0701 51.0221 12.7765 51.5432 12.6576 52.1105C12.5386 52.6778 12.5997 53.2659 12.833 53.8002C13.0663 54.3346 13.4615 54.7914 13.9684 55.1127C14.4754 55.4341 15.0714 55.6056 15.6811 55.6056C16.0862 55.6066 16.4876 55.5316 16.862 55.385C17.2365 55.2384 17.5768 55.023 17.8633 54.7513C18.1497 54.4795 18.3768 54.1567 18.5313 53.8014C18.6859 53.4462 18.7649 53.0654 18.7638 52.6811Z" fill="#FFC529"/>
<path d="M15.6814 49.7568C16.2911 49.7568 16.8871 49.9284 17.394 50.2497C17.901 50.5711 18.2961 51.0278 18.5294 51.5622C18.7627 52.0965 18.8238 52.6846 18.7048 53.2518C18.5859 53.8191 18.2923 54.3402 17.8612 54.7492C17.43 55.1582 16.8808 55.4367 16.2828 55.5496C15.6848 55.6624 15.0649 55.6045 14.5017 55.3832C13.9384 55.1618 13.4569 54.787 13.1182 54.3061C12.7794 53.8251 12.5986 53.2597 12.5986 52.6813C12.5976 52.297 12.6766 51.9162 12.8311 51.561C12.9857 51.2057 13.2127 50.8829 13.4992 50.6112C13.7857 50.3394 14.1259 50.124 14.5004 49.9774C14.8749 49.8308 15.2762 49.7558 15.6814 49.7568V49.7568Z" fill="#FFC529"/>
<path d="M76.2471 29.5393L66.3456 20.8453C65.3726 19.9932 64.2573 19.3003 63.045 18.7949C61.5753 18.1888 59.9901 17.875 58.3874 17.8731H53.3277V16.9035C53.3269 14.7961 52.4441 12.7752 50.8733 11.285C49.3025 9.79481 47.1722 8.9573 44.9508 8.95654H8.37696C6.1555 8.9573 4.02525 9.79481 2.45444 11.285C0.883626 12.7752 0.000799295 14.7961 0 16.9035V52.4902C0.00128188 52.9114 0.178207 53.3149 0.492127 53.6127C0.806047 53.9105 1.23145 54.0784 1.67539 54.0796H6.90262C7.25282 56.0482 8.32672 57.8354 9.93381 59.1242C11.5409 60.4131 13.5773 61.1203 15.6817 61.1203C17.7861 61.1203 19.8225 60.4131 21.4295 59.1242C23.0366 57.8354 24.1105 56.0482 24.4607 54.0796H55.6565C56.0067 56.0482 57.0806 57.8354 58.6877 59.1242C60.2948 60.4131 62.3312 61.1203 64.4356 61.1203C66.54 61.1203 68.5764 60.4131 70.1835 59.1242C71.7906 57.8354 72.8645 56.0482 73.2147 54.0796H78.3246C78.7686 54.0784 79.1939 53.9105 79.5079 53.6127C79.8218 53.3149 79.9987 52.9114 80 52.4902V37.6929C79.9994 35.9778 79.5808 34.2861 78.777 32.7499C78.1489 31.5412 77.2913 30.4528 76.2471 29.5393ZM73.9686 31.8757H64.0503V23.1658L64.067 23.1817L73.9686 31.8757ZM8.37696 12.1512H44.9508C46.2826 12.1549 47.5588 12.6585 48.5005 13.5519C49.4423 14.4453 49.9731 15.656 49.977 16.9194V35.3565H3.35079V16.9194C3.35467 15.656 3.88547 14.4453 4.82722 13.5519C5.76896 12.6585 7.04513 12.1549 8.37696 12.1512V12.1512ZM15.6817 57.9577C14.2114 57.9561 12.8019 57.4013 11.7623 56.415C10.7227 55.4288 10.1379 54.0916 10.1361 52.6968V52.5538C10.1827 51.1843 10.786 49.885 11.8197 48.928C12.8534 47.9711 14.2374 47.4307 15.6817 47.42C17.132 47.4118 18.5273 47.946 19.5653 48.907C20.6033 49.8679 21.2004 51.1781 21.2272 52.5538V52.6809C21.2294 53.3731 21.0876 54.059 20.8099 54.6991C20.5322 55.3392 20.1241 55.921 19.6089 56.4112C19.0937 56.9014 18.4817 57.2904 17.8077 57.5558C17.1338 57.8211 16.4113 57.9577 15.6817 57.9577V57.9577ZM21.9141 46.6412C20.7736 45.5885 19.3567 44.8446 17.8107 44.4869C16.2647 44.1291 14.6459 44.1706 13.1225 44.6069C11.5991 45.0432 10.2266 45.8585 9.14758 46.9681C8.06854 48.0777 7.32231 49.4411 6.98639 50.9167H3.35079V38.5194H49.977V50.9167H24.3937C24.0248 49.2925 23.1628 47.8062 21.9141 46.6412V46.6412ZM64.4356 57.9577C62.9654 57.9561 61.5558 57.4013 60.5162 56.415C59.4766 55.4288 58.8918 54.0916 58.8901 52.6968V52.5538C58.9197 51.179 59.5176 49.8703 60.555 48.9099C61.5924 47.9496 62.9861 47.4145 64.4356 47.42C65.8807 47.428 67.2663 47.9676 68.3006 48.9251C69.3349 49.8826 69.9374 51.1834 69.9811 52.5538V52.6809C69.9834 53.3731 69.8415 54.059 69.5638 54.6991C69.2861 55.3392 68.878 55.921 68.3628 56.4112C67.8477 56.9014 67.2356 57.2904 66.5617 57.5558C65.8878 57.8211 65.1653 57.9577 64.4356 57.9577V57.9577ZM76.666 50.9167H73.1644C72.7342 49.0279 71.635 47.3359 70.0499 46.1223C68.4648 44.9088 66.4893 44.2469 64.4524 44.2469C62.4154 44.2469 60.44 44.9088 58.8548 46.1223C57.2697 47.3359 56.1705 49.0279 55.7403 50.9167H53.3445V21.0678H58.4042C59.1868 21.0698 59.9652 21.1768 60.7162 21.3856V31.8757C60.7188 32.718 61.0727 33.5251 61.7005 34.1207C62.3284 34.7163 63.1791 35.052 64.067 35.0545H76.1969C76.5178 35.9063 76.6821 36.8042 76.6827 37.7088V50.9167H76.666Z" fill="black"/>
</svg>
