<svg width="550" height="350" viewBox="0 0 550 350" fill="none" xmlns="http://www.w3.org/2000/svg">
<path d="M539 273.829L539 243.986C539 241.777 537.209 239.986 535 239.986L278.439 239.986C276.23 239.986 274.439 238.196 274.439 235.986L274.439 201.636" stroke="#ADB0B3" stroke-width="1.5"/>
<path d="M10.093 273.829L10.093 243.986C10.093 241.777 11.8839 239.986 14.093 239.986L270.654 239.986C272.863 239.986 274.654 238.196 274.654 235.986L274.654 201.636" stroke="#ADB0B3" stroke-width="1.5"/>
<path d="M290.875 4.5H257.125C254.02 4.50288 251.503 7.01958 251.5 10.125V43.875C251.503 46.9804 254.02 49.4971 257.125 49.5H290.875C293.98 49.4971 296.497 46.9804 296.5 43.875V10.125C296.497 7.01958 293.98 4.50288 290.875 4.5ZM257.125 47.25C255.262 47.2479 253.752 45.7381 253.75 43.875V32.1196L262.216 23.6536C263.755 22.1199 266.245 22.1199 267.784 23.6536L291.336 47.2032C291.184 47.2243 291.033 47.2499 290.875 47.25H257.125ZM294.25 43.875C294.249 44.7263 293.923 45.4948 293.402 46.0883L277.841 30.5284L280.216 28.1536C281.755 26.6199 284.245 26.6199 285.784 28.1536L294.25 36.6196V43.875ZM294.25 33.4381L287.375 26.5629C284.957 24.1503 281.043 24.1503 278.625 26.5629L276.25 28.9377L269.375 22.0627C266.927 19.7249 263.073 19.7249 260.625 22.0627L253.75 28.938V10.125C253.752 8.26186 255.262 6.75206 257.125 6.75H290.875C292.738 6.75206 294.248 8.26186 294.25 10.125V33.4381Z" fill="#F7F9FC"/>
<path d="M273.47 141.53C273.763 141.823 274.237 141.823 274.53 141.53L279.303 136.757C279.596 136.464 279.596 135.99 279.303 135.697C279.01 135.404 278.536 135.404 278.243 135.697L274 139.939L269.757 135.697C269.464 135.404 268.99 135.404 268.697 135.697C268.404 135.99 268.404 136.464 268.697 136.757L273.47 141.53ZM273.25 63L273.25 141L274.75 141L274.75 63L273.25 63Z" fill="#ADB0B3"/>
<path d="M68.875 260.5H35.125C32.0196 260.503 29.5029 263.019 29.5 266.125V299.875C29.5029 302.98 32.0196 305.497 35.125 305.5H68.875C71.9804 305.497 74.4971 302.98 74.5 299.875V266.125C74.4971 263.019 71.9804 260.503 68.875 260.5ZM35.125 303.25C33.2619 303.248 31.7521 301.738 31.75 299.875V288.119L40.2161 279.653C41.7551 278.12 44.2449 278.12 45.7839 279.653L69.3357 303.203C69.1837 303.224 69.0328 303.25 68.875 303.25H35.125ZM72.25 299.875C72.249 300.726 71.9227 301.495 71.4024 302.088L55.8411 286.528L58.2161 284.153C59.7551 282.62 62.2449 282.62 63.7839 284.153L72.25 292.619V299.875ZM72.25 289.438L65.3748 282.563C62.9572 280.15 59.0428 280.15 56.6252 282.563L54.2504 284.937L47.3748 278.062C44.9267 275.725 41.0733 275.725 38.6252 278.062L31.75 284.938V266.125C31.7521 264.262 33.2619 262.752 35.125 262.75H68.875C70.7381 262.752 72.2479 264.262 72.25 266.125V289.438Z" fill="#F7F9FC"/>
<g clip-path="url(#clip0_541_14482)">
<rect x="35" y="318" width="30" height="21.4286" rx="2.35714" fill="white"/>
<mask id="mask0_541_14482" style="mask-type:luminance" maskUnits="userSpaceOnUse" x="35" y="318" width="30" height="22">
<rect x="35" y="318" width="30" height="21.4286" rx="2.35714" fill="white"/>
</mask>
<g mask="url(#mask0_541_14482)">
<rect x="35" y="318" width="30" height="21.4286" fill="#0A17A7"/>
<path d="M35 317.607H33.938L34.7443 318.298L39.6071 322.466V323.512L34.7717 326.966L34.6071 327.084V327.286V328V328.709L35.2082 328.333L40.827 324.821H42.017L46.8529 328.276C46.9596 328.352 47.0874 328.393 47.2186 328.393C47.8026 328.393 48.0714 327.666 47.628 327.286L43.25 323.534V322.488L47.921 319.151C48.1275 319.004 48.25 318.766 48.25 318.512V318V317.291L47.6489 317.667L42.0302 321.179H40.8402L35.9426 317.68L35.8402 317.607H35.7143H35Z" fill="#FF2E3B" stroke="white" stroke-width="0.785714"/>
<path fill-rule="evenodd" clip-rule="evenodd" d="M35 321.571V324.429H40V327.929C40 328.363 40.3518 328.714 40.7857 328.714H42.0714C42.5054 328.714 42.8571 328.363 42.8571 327.929V324.429H47.7857C48.2197 324.429 48.5714 324.077 48.5714 323.643V322.357C48.5714 321.923 48.2197 321.571 47.7857 321.571H42.8571V318H40V321.571H35Z" fill="url(#paint0_linear_541_14482)"/>
<path fill-rule="evenodd" clip-rule="evenodd" d="M35 322.286H40.7143V321.571V318H42.1429V321.571V322.286H47.8571V323.714H42.1429V324.429V328H40.7143V324.429V323.714H35V322.286Z" fill="url(#paint1_linear_541_14482)"/>
<path fill-rule="evenodd" clip-rule="evenodd" d="M41.4286 335.5L40.1691 336.162L40.4096 334.76L39.3906 333.766L40.7988 333.562L41.4286 332.286L42.0584 333.562L43.4666 333.766L42.4476 334.76L42.6881 336.162L41.4286 335.5Z" fill="white"/>
<path fill-rule="evenodd" clip-rule="evenodd" d="M56.4286 336.571L55.4185 336.867L55.7143 335.857L55.4185 334.847L56.4286 335.143L57.4388 334.847L57.1429 335.857L57.4388 336.867L56.4286 336.571Z" fill="white"/>
<path fill-rule="evenodd" clip-rule="evenodd" d="M56.4286 323L55.4185 323.296L55.7143 322.286L55.4185 321.276L56.4286 321.572L57.4388 321.276L57.1429 322.286L57.4388 323.296L56.4286 323Z" fill="white"/>
<path fill-rule="evenodd" clip-rule="evenodd" d="M60.7143 327.285L59.7041 327.581L60 326.571L59.7041 325.561L60.7143 325.857L61.7244 325.561L61.4285 326.571L61.7244 327.581L60.7143 327.285Z" fill="white"/>
<path fill-rule="evenodd" clip-rule="evenodd" d="M52.143 328.714L51.1328 329.01L51.4287 328L51.1328 326.99L52.143 327.286L53.1531 326.99L52.8573 328L53.1531 329.01L52.143 328.714Z" fill="white"/>
<path fill-rule="evenodd" clip-rule="evenodd" d="M58.5715 330.5L58.0664 330.648L58.2143 330.143L58.0664 329.638L58.5715 329.786L59.0766 329.638L58.9286 330.143L59.0766 330.648L58.5715 330.5Z" fill="white"/>
</g>
</g>
<path d="M142.875 260.5H109.125C106.02 260.503 103.503 263.019 103.5 266.125V299.875C103.503 302.98 106.02 305.497 109.125 305.5H142.875C145.98 305.497 148.497 302.98 148.5 299.875V266.125C148.497 263.019 145.98 260.503 142.875 260.5ZM109.125 303.25C107.262 303.248 105.752 301.738 105.75 299.875V288.119L114.216 279.653C115.755 278.12 118.245 278.12 119.784 279.653L143.336 303.203C143.184 303.224 143.033 303.25 142.875 303.25H109.125ZM146.25 299.875C146.249 300.726 145.923 301.495 145.402 302.088L129.841 286.528L132.216 284.153C133.755 282.62 136.245 282.62 137.784 284.153L146.25 292.619V299.875ZM146.25 289.438L139.375 282.563C136.957 280.15 133.043 280.15 130.625 282.563L128.25 284.937L121.375 278.062C118.927 275.725 115.073 275.725 112.625 278.062L105.75 284.938V266.125C105.752 264.262 107.262 262.752 109.125 262.75H142.875C144.738 262.752 146.248 264.262 146.25 266.125V289.438Z" fill="#F7F9FC"/>
<path d="M216.875 260.5H183.125C180.02 260.503 177.503 263.019 177.5 266.125V299.875C177.503 302.98 180.02 305.497 183.125 305.5H216.875C219.98 305.497 222.497 302.98 222.5 299.875V266.125C222.497 263.019 219.98 260.503 216.875 260.5ZM183.125 303.25C181.262 303.248 179.752 301.738 179.75 299.875V288.119L188.216 279.653C189.755 278.12 192.245 278.12 193.784 279.653L217.336 303.203C217.184 303.224 217.033 303.25 216.875 303.25H183.125ZM220.25 299.875C220.249 300.726 219.923 301.495 219.402 302.088L203.841 286.528L206.216 284.153C207.755 282.62 210.245 282.62 211.784 284.153L220.25 292.619V299.875ZM220.25 289.438L213.375 282.563C210.957 280.15 207.043 280.15 204.625 282.563L202.25 284.937L195.375 278.062C192.927 275.725 189.073 275.725 186.625 278.062L179.75 284.938V266.125C179.752 264.262 181.262 262.752 183.125 262.75H216.875C218.738 262.752 220.248 264.262 220.25 266.125V289.438Z" fill="#F7F9FC"/>
<g clip-path="url(#clip1_541_14482)">
<rect x="183" y="318" width="30" height="21.8182" rx="1.38311" fill="white"/>
<rect x="183.173" y="318.173" width="29.6542" height="21.4724" rx="1.21023" fill="white" stroke="#F5F5F5" stroke-width="0.345779"/>
<mask id="mask1_541_14482" style="mask-type:luminance" maskUnits="userSpaceOnUse" x="183" y="318" width="30" height="22">
<rect x="183.173" y="318.173" width="29.6542" height="21.4724" rx="1.21023" fill="white" stroke="white" stroke-width="0.345779"/>
</mask>
<g mask="url(#mask1_541_14482)">
<rect x="204.429" y="318" width="8.57143" height="21.8182" fill="#FF3131"/>
<path fill-rule="evenodd" clip-rule="evenodd" d="M183 339.818H191.571V318H183V339.818Z" fill="#FF3131"/>
<path fill-rule="evenodd" clip-rule="evenodd" d="M199.967 328.36C199.807 328.524 199.533 328.379 199.577 328.154L200.143 325.273L198.714 326L198 323.818L197.286 326L195.857 325.273L196.423 328.154C196.467 328.379 196.193 328.524 196.033 328.36L195.307 327.622C195.217 327.53 195.069 327.53 194.978 327.622L194.429 328.182L193 327.454L193.714 328.909L193.159 329.475C193.071 329.564 193.071 329.708 193.159 329.798L195.143 331.818H197.286L197.643 334H198.357L198.714 331.818H200.857L202.841 329.798C202.929 329.708 202.929 329.564 202.841 329.475L202.286 328.909L203 327.454L201.571 328.182L201.022 327.622C200.931 327.53 200.783 327.53 200.693 327.622L199.967 328.36Z" fill="#FF3131"/>
</g>
</g>
<path d="M290.875 260.5H257.125C254.02 260.503 251.503 263.019 251.5 266.125V299.875C251.503 302.98 254.02 305.497 257.125 305.5H290.875C293.98 305.497 296.497 302.98 296.5 299.875V266.125C296.497 263.019 293.98 260.503 290.875 260.5ZM257.125 303.25C255.262 303.248 253.752 301.738 253.75 299.875V288.119L262.216 279.653C263.755 278.12 266.245 278.12 267.784 279.653L291.336 303.203C291.184 303.224 291.033 303.25 290.875 303.25H257.125ZM294.25 299.875C294.249 300.726 293.923 301.495 293.402 302.088L277.841 286.528L280.216 284.153C281.755 282.62 284.245 282.62 285.784 284.153L294.25 292.619V299.875ZM294.25 289.438L287.375 282.563C284.957 280.15 281.043 280.15 278.625 282.563L276.25 284.937L269.375 278.062C266.927 275.725 263.073 275.725 260.625 278.062L253.75 284.938V266.125C253.752 264.262 255.262 262.752 257.125 262.75H290.875C292.738 262.752 294.248 264.262 294.25 266.125V289.438Z" fill="#F7F9FC"/>
<g clip-path="url(#clip2_541_14482)">
<rect x="257" y="318" width="30" height="21.8182" rx="1.38311" fill="white"/>
<rect x="257" y="318" width="30" height="21.8182" rx="1.38311" fill="white"/>
<rect x="257" y="318" width="30" height="21.8182" rx="1.38311" fill="white"/>
<rect x="257.173" y="318.173" width="29.6542" height="21.4724" rx="1.21023" fill="white" stroke="#F5F5F5" stroke-width="0.345779"/>
<mask id="mask2_541_14482" style="mask-type:luminance" maskUnits="userSpaceOnUse" x="257" y="318" width="30" height="22">
<rect x="257.173" y="318.173" width="29.6542" height="21.4724" rx="1.21023" fill="white" stroke="white" stroke-width="0.345779"/>
</mask>
<g mask="url(#mask2_541_14482)">
<path fill-rule="evenodd" clip-rule="evenodd" d="M257 329.636H287V318H257V329.636Z" fill="#E12237"/>
<path fill-rule="evenodd" clip-rule="evenodd" d="M265.571 320.182C266.01 320.182 266.431 320.262 266.819 320.41C266.086 319.812 265.155 319.455 264.143 319.455C261.776 319.455 259.857 321.408 259.857 323.818C259.857 326.228 261.776 328.182 264.143 328.182C265.155 328.182 266.086 327.824 266.819 327.226C266.431 327.374 266.01 327.454 265.571 327.454C263.599 327.454 262 325.826 262 323.818C262 321.81 263.599 320.182 265.571 320.182ZM264.857 323.818C265.252 323.818 265.571 323.493 265.571 323.091C265.571 322.689 265.252 322.364 264.857 322.364C264.463 322.364 264.143 322.689 264.143 323.091C264.143 323.493 264.463 323.818 264.857 323.818ZM267 326C267 326.402 266.68 326.727 266.286 326.727C265.891 326.727 265.571 326.402 265.571 326C265.571 325.598 265.891 325.273 266.286 325.273C266.68 325.273 267 325.598 267 326ZM269.143 326.727C269.537 326.727 269.857 326.402 269.857 326C269.857 325.598 269.537 325.273 269.143 325.273C268.748 325.273 268.429 325.598 268.429 326C268.429 326.402 268.748 326.727 269.143 326.727ZM271.286 323.091C271.286 323.493 270.966 323.818 270.571 323.818C270.177 323.818 269.857 323.493 269.857 323.091C269.857 322.689 270.177 322.364 270.571 322.364C270.966 322.364 271.286 322.689 271.286 323.091ZM267.714 321.637C268.109 321.637 268.429 321.311 268.429 320.909C268.429 320.508 268.109 320.182 267.714 320.182C267.32 320.182 267 320.508 267 320.909C267 321.311 267.32 321.637 267.714 321.637Z" fill="white"/>
</g>
</g>
<path d="M364.875 260.5H331.125C328.02 260.503 325.503 263.019 325.5 266.125V299.875C325.503 302.98 328.02 305.497 331.125 305.5H364.875C367.98 305.497 370.497 302.98 370.5 299.875V266.125C370.497 263.019 367.98 260.503 364.875 260.5ZM331.125 303.25C329.262 303.248 327.752 301.738 327.75 299.875V288.119L336.216 279.653C337.755 278.12 340.245 278.12 341.784 279.653L365.336 303.203C365.184 303.224 365.033 303.25 364.875 303.25H331.125ZM368.25 299.875C368.249 300.726 367.923 301.495 367.402 302.088L351.841 286.528L354.216 284.153C355.755 282.62 358.245 282.62 359.784 284.153L368.25 292.619V299.875ZM368.25 289.438L361.375 282.563C358.957 280.15 355.043 280.15 352.625 282.563L350.25 284.937L343.375 278.062C340.927 275.725 337.073 275.725 334.625 278.062L327.75 284.938V266.125C327.752 264.262 329.262 262.752 331.125 262.75H364.875C366.738 262.752 368.248 264.262 368.25 266.125V289.438Z" fill="#F7F9FC"/>
<g clip-path="url(#clip3_541_14482)">
<rect x="332" y="319" width="30" height="21" rx="1.52143" fill="white"/>
<rect x="332" y="319" width="30" height="21" rx="1.52143" fill="white"/>
<mask id="mask3_541_14482" style="mask-type:luminance" maskUnits="userSpaceOnUse" x="332" y="319" width="30" height="21">
<rect x="332" y="319" width="30" height="21" rx="1.52143" fill="white"/>
</mask>
<g mask="url(#mask3_541_14482)">
<rect x="332" y="319" width="30" height="21" fill="#0A17A7"/>
<path fill-rule="evenodd" clip-rule="evenodd" d="M330.626 316.988L343.428 325.451V317.6H350.571V325.45L363.374 316.988L364.971 319.309L354.849 326H362V333H354.849L364.971 339.691L363.374 342.012L350.571 333.549V341.4H343.428V333.549L330.626 342.012L329.028 339.691L339.15 333H332V326H339.15L329.028 319.309L330.626 316.988Z" fill="white"/>
<path d="M352.001 325.649L365.571 316.9" stroke="#DB1F35" stroke-width="0.507142" stroke-linecap="round"/>
<path d="M353.442 333.382L365.607 341.418" stroke="#DB1F35" stroke-width="0.507142" stroke-linecap="round"/>
<path d="M340.578 325.626L327.889 317.246" stroke="#DB1F35" stroke-width="0.507142" stroke-linecap="round"/>
<path d="M341.954 333.285L327.889 342.426" stroke="#DB1F35" stroke-width="0.507142" stroke-linecap="round"/>
<path fill-rule="evenodd" clip-rule="evenodd" d="M332 331.6H344.857V340H349.143V331.6H362V327.4H349.143V319H344.857V327.4H332V331.6Z" fill="#E6273E"/>
</g>
</g>
<path d="M438.875 260.5H405.125C402.02 260.503 399.503 263.019 399.5 266.125V299.875C399.503 302.98 402.02 305.497 405.125 305.5H438.875C441.98 305.497 444.497 302.98 444.5 299.875V266.125C444.497 263.019 441.98 260.503 438.875 260.5ZM405.125 303.25C403.262 303.248 401.752 301.738 401.75 299.875V288.119L410.216 279.653C411.755 278.12 414.245 278.12 415.784 279.653L439.336 303.203C439.184 303.224 439.033 303.25 438.875 303.25H405.125ZM442.25 299.875C442.249 300.726 441.923 301.495 441.402 302.088L425.841 286.528L428.216 284.153C429.755 282.62 432.245 282.62 433.784 284.153L442.25 292.619V299.875ZM442.25 289.438L435.375 282.563C432.957 280.15 429.043 280.15 426.625 282.563L424.25 284.937L417.375 278.062C414.927 275.725 411.073 275.725 408.625 278.062L401.75 284.938V266.125C401.752 264.262 403.262 262.752 405.125 262.75H438.875C440.738 262.752 442.248 264.262 442.25 266.125V289.438Z" fill="#F7F9FC"/>
<g clip-path="url(#clip4_541_14482)">
<rect x="407" y="319" width="30.0001" height="21.4286" rx="2.14286" fill="white"/>
<rect x="407" y="319" width="30.0001" height="21.4286" rx="2.14286" fill="white"/>
<mask id="mask4_541_14482" style="mask-type:luminance" maskUnits="userSpaceOnUse" x="407" y="319" width="30" height="22">
<rect x="407" y="319" width="30.0001" height="21.4286" rx="2.14286" fill="white"/>
</mask>
<g mask="url(#mask4_541_14482)">
<path fill-rule="evenodd" clip-rule="evenodd" d="M407 340.429H437V319H407V340.429Z" fill="#F0371D"/>
<path fill-rule="evenodd" clip-rule="evenodd" d="M422.628 323.431C423.378 323.675 423.591 325.089 423.104 326.59C422.616 328.09 421.613 329.109 420.862 328.865C420.112 328.622 419.899 327.207 420.386 325.707C420.874 324.206 421.878 323.187 422.628 323.431ZM415.959 327.363C416.423 326.725 417.834 326.959 419.111 327.887C420.387 328.814 421.046 330.084 420.582 330.722C420.119 331.36 418.708 331.126 417.431 330.198C416.155 329.271 415.496 328.002 415.959 327.363ZM425.572 329.986C427.15 329.986 428.429 329.347 428.429 328.558C428.429 327.769 427.15 327.129 425.572 327.129C423.994 327.129 422.715 327.769 422.715 328.558C422.715 329.347 423.994 329.986 425.572 329.986ZM425.928 329C426.126 329 426.286 328.84 426.286 328.643C426.286 328.446 426.126 328.286 425.928 328.286C425.731 328.286 425.571 328.446 425.571 328.643C425.571 328.84 425.731 329 425.928 329ZM425.345 335.659C424.595 335.902 423.592 334.883 423.104 333.383C422.616 331.882 422.829 330.468 423.58 330.224C424.33 329.98 425.334 330.999 425.821 332.5C426.309 334.001 426.096 335.415 425.345 335.659ZM424.152 333.418C424.213 333.605 424.415 333.708 424.602 333.647C424.79 333.586 424.892 333.385 424.832 333.197C424.771 333.009 424.569 332.907 424.382 332.968C424.194 333.029 424.091 333.23 424.152 333.418ZM417.639 334.921C417.175 334.282 417.834 333.013 419.111 332.085C420.387 331.158 421.798 330.923 422.262 331.562C422.726 332.2 422.067 333.469 420.79 334.397C419.514 335.324 418.103 335.559 417.639 334.921ZM419.402 333.093C419.242 333.209 419.207 333.432 419.323 333.592C419.439 333.752 419.662 333.787 419.822 333.671C419.981 333.555 420.017 333.332 419.901 333.172C419.785 333.013 419.562 332.977 419.402 333.093ZM418.242 328.475C418.083 328.359 417.859 328.394 417.743 328.554C417.628 328.713 417.663 328.937 417.822 329.053C417.982 329.169 418.205 329.133 418.321 328.974C418.437 328.814 418.402 328.591 418.242 328.475ZM422.276 325.945C422.337 325.758 422.234 325.556 422.047 325.495C421.859 325.434 421.658 325.537 421.597 325.725C421.536 325.912 421.638 326.114 421.826 326.175C422.014 326.236 422.215 326.133 422.276 325.945Z" fill="white"/>
</g>
</g>
<path d="M512.875 260.5H479.125C476.02 260.503 473.503 263.019 473.5 266.125V299.875C473.503 302.98 476.02 305.497 479.125 305.5H512.875C515.98 305.497 518.497 302.98 518.5 299.875V266.125C518.497 263.019 515.98 260.503 512.875 260.5ZM479.125 303.25C477.262 303.248 475.752 301.738 475.75 299.875V288.119L484.216 279.653C485.755 278.12 488.245 278.12 489.784 279.653L513.336 303.203C513.184 303.224 513.033 303.25 512.875 303.25H479.125ZM516.25 299.875C516.249 300.726 515.923 301.495 515.402 302.088L499.841 286.528L502.216 284.153C503.755 282.62 506.245 282.62 507.784 284.153L516.25 292.619V299.875ZM516.25 289.438L509.375 282.563C506.957 280.15 503.043 280.15 500.625 282.563L498.25 284.937L491.375 278.062C488.927 275.725 485.073 275.725 482.625 278.062L475.75 284.938V266.125C475.752 264.262 477.262 262.752 479.125 262.75H512.875C514.738 262.752 516.248 264.262 516.25 266.125V289.438Z" fill="#F7F9FC"/>
<rect x="481" y="318" width="30.4512" height="21.7508" rx="1.9032" fill="white"/>
<rect x="481" y="318" width="30.4512" height="21.7508" rx="1.9032" fill="white"/>
<mask id="mask5_541_14482" style="mask-type:luminance" maskUnits="userSpaceOnUse" x="481" y="318" width="31" height="22">
<rect x="481" y="318" width="30.4512" height="21.7508" rx="1.9032" fill="white"/>
</mask>
<g mask="url(#mask5_541_14482)">
<rect x="481" y="318" width="30.4512" height="21.7508" fill="#043CAE"/>
<path fill-rule="evenodd" clip-rule="evenodd" d="M495.2 322.65L496.225 322.35L497.251 322.65L496.95 321.625L497.251 320.6L496.225 320.9L495.2 320.6L495.5 321.625L495.2 322.65ZM495.2 337.151L496.225 336.85L497.251 337.151L496.95 336.125L497.251 335.1L496.225 335.4L495.2 335.1L495.5 336.125L495.2 337.151ZM503.476 329.6L502.45 329.901L502.751 328.875L502.45 327.85L503.476 328.15L504.501 327.85L504.201 328.875L504.501 329.901L503.476 329.6ZM487.95 329.901L488.975 329.6L490 329.901L489.7 328.875L490 327.85L488.975 328.15L487.95 327.85L488.25 328.875L487.95 329.901ZM502.504 325.975L501.479 326.275L501.779 325.25L501.479 324.225L502.504 324.525L503.53 324.225L503.229 325.25L503.53 326.275L502.504 325.975ZM488.921 333.526L489.946 333.225L490.972 333.526L490.671 332.5L490.972 331.475L489.946 331.775L488.921 331.475L489.221 332.5L488.921 333.526ZM499.851 323.321L498.825 323.622L499.126 322.596L498.825 321.571L499.851 321.871L500.876 321.571L500.576 322.596L500.876 323.622L499.851 323.321ZM491.575 336.179L492.6 335.879L493.626 336.179L493.325 335.154L493.626 334.129L492.6 334.429L491.575 334.129L491.875 335.154L491.575 336.179ZM502.504 333.225L501.479 333.526L501.779 332.5L501.479 331.475L502.504 331.775L503.53 331.475L503.229 332.5L503.53 333.526L502.504 333.225ZM488.921 326.275L489.946 325.975L490.972 326.275L490.671 325.25L490.972 324.225L489.946 324.525L488.921 324.225L489.221 325.25L488.921 326.275ZM499.851 335.879L498.825 336.179L499.126 335.154L498.825 334.129L499.851 334.429L500.876 334.129L500.576 335.154L500.876 336.179L499.851 335.879ZM491.575 323.622L492.6 323.321L493.626 323.622L493.325 322.596L493.626 321.571L492.6 321.871L491.575 321.571L491.875 322.596L491.575 323.622Z" fill="#FFD429"/>
</g>
<rect x="173" y="146" width="201" height="64" fill="#4D0308"/>
<path d="M209.672 184.08C209.565 184.08 209.48 184.053 209.416 184C209.363 183.957 209.336 183.904 209.336 183.84C209.336 183.765 209.368 183.701 209.432 183.648C209.496 183.584 209.576 183.536 209.672 183.504C210.035 183.408 210.291 183.296 210.44 183.168C210.6 183.04 210.68 182.811 210.68 182.48V175.152C210.68 174.917 210.653 174.736 210.6 174.608C210.547 174.48 210.445 174.379 210.296 174.304C210.147 174.229 209.928 174.16 209.64 174.096C209.416 174.043 209.304 173.931 209.304 173.76C209.304 173.685 209.336 173.627 209.4 173.584C209.464 173.541 209.539 173.52 209.624 173.52C209.869 173.52 210.125 173.525 210.392 173.536C210.669 173.547 210.936 173.563 211.192 173.584C211.459 173.595 211.699 173.6 211.912 173.6C212.136 173.6 212.387 173.595 212.664 173.584C212.941 173.573 213.224 173.563 213.512 173.552C213.811 173.541 214.077 173.536 214.312 173.536C214.408 173.536 214.477 173.557 214.52 173.6C214.573 173.632 214.6 173.685 214.6 173.76C214.6 173.867 214.568 173.941 214.504 173.984C214.451 174.027 214.371 174.064 214.264 174.096C213.827 174.213 213.528 174.341 213.368 174.48C213.219 174.608 213.144 174.832 213.144 175.152V182.352C213.144 182.651 213.208 182.864 213.336 182.992C213.475 183.12 213.699 183.184 214.008 183.184H215.64C215.875 183.184 216.083 183.147 216.264 183.072C216.456 182.987 216.627 182.88 216.776 182.752C216.957 182.581 217.117 182.389 217.256 182.176C217.395 181.952 217.517 181.723 217.624 181.488C217.731 181.275 217.811 181.136 217.864 181.072C217.928 181.008 217.992 180.976 218.056 180.976C218.141 180.976 218.2 181.013 218.232 181.088C218.264 181.163 218.28 181.232 218.28 181.296C218.28 181.317 218.269 181.365 218.248 181.44C218.227 181.515 218.216 181.573 218.216 181.616C218.141 181.925 218.072 182.197 218.008 182.432C217.944 182.656 217.891 182.875 217.848 183.088C217.816 183.291 217.784 183.52 217.752 183.776C217.741 183.851 217.715 183.92 217.672 183.984C217.64 184.048 217.581 184.08 217.496 184.08C217.272 184.08 216.947 184.075 216.52 184.064C216.093 184.053 215.613 184.043 215.08 184.032C214.557 184.032 214.019 184.027 213.464 184.016C212.92 184.005 212.413 184 211.944 184C211.72 184 211.464 184.005 211.176 184.016C210.888 184.027 210.605 184.037 210.328 184.048C210.061 184.069 209.843 184.08 209.672 184.08ZM222.433 184.224C221.793 184.224 221.217 184.08 220.705 183.792C220.193 183.504 219.782 183.109 219.473 182.608C219.174 182.096 219.025 181.52 219.025 180.88C219.025 180.368 219.121 179.883 219.313 179.424C219.505 178.965 219.771 178.56 220.113 178.208C220.454 177.856 220.854 177.579 221.313 177.376C221.771 177.173 222.262 177.072 222.785 177.072C223.446 177.072 224.043 177.227 224.577 177.536C225.11 177.845 225.531 178.256 225.841 178.768C226.161 179.269 226.321 179.819 226.321 180.416C226.321 181.099 226.171 181.733 225.873 182.32C225.585 182.896 225.153 183.36 224.577 183.712C224.011 184.053 223.297 184.224 222.433 184.224ZM222.753 183.52C222.977 183.52 223.169 183.477 223.329 183.392C223.499 183.296 223.638 183.157 223.745 182.976C223.873 182.763 223.958 182.475 224.001 182.112C224.054 181.739 224.081 181.301 224.081 180.8C224.081 180.224 224.017 179.712 223.889 179.264C223.761 178.805 223.579 178.443 223.345 178.176C223.121 177.909 222.854 177.776 222.545 177.776C222.374 177.776 222.219 177.808 222.081 177.872C221.942 177.925 221.819 178.005 221.713 178.112C221.531 178.325 221.403 178.629 221.329 179.024C221.265 179.419 221.233 179.904 221.233 180.48C221.233 180.992 221.297 181.483 221.425 181.952C221.563 182.411 221.745 182.789 221.969 183.088C222.203 183.376 222.465 183.52 222.753 183.52ZM230.064 184.224C229.498 184.224 228.986 184.075 228.528 183.776C228.08 183.467 227.722 183.056 227.456 182.544C227.2 182.021 227.072 181.435 227.072 180.784C227.072 180.091 227.232 179.467 227.552 178.912C227.872 178.357 228.298 177.915 228.832 177.584C229.376 177.253 229.978 177.088 230.64 177.088C231.514 177.088 232.24 177.376 232.816 177.952C232.912 178.059 232.96 178.155 232.96 178.24C232.96 178.304 232.912 178.4 232.816 178.528C232.72 178.645 232.613 178.752 232.496 178.848C232.378 178.944 232.277 178.992 232.192 178.992C232.096 178.992 232 178.965 231.904 178.912C231.818 178.848 231.733 178.779 231.648 178.704C231.37 178.469 231.088 178.283 230.799 178.144C230.522 177.995 230.282 177.92 230.08 177.92C229.674 177.92 229.365 178.091 229.152 178.432C228.949 178.763 228.848 179.307 228.848 180.064C228.848 180.587 228.928 181.04 229.088 181.424C229.258 181.797 229.498 182.085 229.808 182.288C230.117 182.491 230.49 182.592 230.928 182.592C231.248 182.592 231.525 182.544 231.76 182.448C231.994 182.341 232.24 182.181 232.496 181.968C232.549 181.936 232.592 181.904 232.624 181.872C232.666 181.84 232.714 181.824 232.768 181.824C232.896 181.824 232.96 181.909 232.96 182.08C232.96 182.123 232.949 182.187 232.928 182.272C232.917 182.347 232.885 182.432 232.832 182.528C232.736 182.741 232.549 182.981 232.272 183.248C232.005 183.515 231.685 183.744 231.312 183.936C230.938 184.128 230.522 184.224 230.064 184.224ZM235.095 184.224C234.807 184.224 234.541 184.155 234.295 184.016C234.05 183.877 233.853 183.696 233.703 183.472C233.565 183.248 233.495 183.003 233.495 182.736C233.495 182.373 233.607 182.069 233.831 181.824C234.066 181.579 234.407 181.36 234.855 181.168L236.279 180.544C236.493 180.448 236.621 180.363 236.663 180.288C236.717 180.213 236.743 180.075 236.743 179.872L236.759 178.96C236.77 178.661 236.717 178.427 236.599 178.256C236.482 178.075 236.306 177.984 236.071 177.984C235.933 177.984 235.794 178.016 235.655 178.08C235.517 178.133 235.41 178.197 235.335 178.272C235.303 178.315 235.277 178.368 235.255 178.432C235.245 178.485 235.239 178.544 235.239 178.608C235.239 178.672 235.245 178.752 235.255 178.848C235.266 178.933 235.271 179.008 235.271 179.072C235.271 179.136 235.186 179.221 235.015 179.328C234.845 179.424 234.647 179.515 234.423 179.6C234.199 179.675 234.007 179.712 233.847 179.712C233.773 179.712 233.703 179.68 233.639 179.616C233.586 179.552 233.559 179.472 233.559 179.376C233.559 179.205 233.618 179.04 233.735 178.88C233.853 178.709 234.045 178.517 234.311 178.304C234.589 178.069 234.893 177.861 235.223 177.68C235.554 177.499 235.879 177.355 236.199 177.248C236.53 177.141 236.807 177.088 237.031 177.088C237.607 177.088 238.066 177.275 238.407 177.648C238.749 178.011 238.909 178.496 238.887 179.104L238.807 182.336C238.797 182.581 238.839 182.789 238.935 182.96C239.031 183.131 239.149 183.216 239.287 183.216C239.49 183.216 239.666 183.147 239.815 183.008C239.847 182.976 239.879 182.96 239.911 182.96C239.965 182.96 240.007 182.976 240.039 183.008C240.082 183.04 240.103 183.083 240.103 183.136C240.103 183.264 240.007 183.429 239.815 183.632C239.613 183.824 239.399 183.968 239.175 184.064C238.951 184.171 238.717 184.224 238.471 184.224C237.874 184.224 237.378 183.92 236.983 183.312H236.951C236.599 183.632 236.279 183.861 235.991 184C235.714 184.149 235.415 184.224 235.095 184.224ZM236.055 183.184C236.173 183.184 236.269 183.168 236.343 183.136C236.418 183.093 236.493 183.029 236.567 182.944C236.599 182.901 236.626 182.848 236.647 182.784C236.669 182.709 236.679 182.624 236.679 182.528L236.727 181.376C236.727 181.269 236.711 181.2 236.679 181.168C236.647 181.136 236.61 181.12 236.567 181.12C236.546 181.12 236.519 181.125 236.487 181.136C236.455 181.147 236.418 181.163 236.375 181.184C236.066 181.333 235.837 181.488 235.687 181.648C235.538 181.797 235.463 182.043 235.463 182.384C235.463 182.693 235.527 182.907 235.655 183.024C235.783 183.131 235.917 183.184 236.055 183.184ZM240.623 184.048C240.527 184.048 240.447 184.032 240.383 184C240.33 183.957 240.303 183.899 240.303 183.824C240.303 183.739 240.335 183.675 240.399 183.632C240.463 183.579 240.554 183.536 240.671 183.504C240.831 183.451 240.97 183.392 241.087 183.328C241.215 183.264 241.279 183.12 241.279 182.896V175.2C241.279 174.912 241.236 174.661 241.151 174.448C241.076 174.235 240.906 174.101 240.639 174.048C240.532 174.027 240.479 173.947 240.479 173.808C240.479 173.669 240.527 173.589 240.623 173.568C240.9 173.515 241.199 173.44 241.519 173.344C241.839 173.237 242.143 173.131 242.431 173.024C242.719 172.907 242.943 172.821 243.103 172.768C243.188 172.736 243.258 172.72 243.311 172.72C243.375 172.72 243.418 172.741 243.439 172.784C243.46 172.816 243.471 172.859 243.471 172.912C243.471 172.987 243.455 173.125 243.423 173.328C243.402 173.531 243.386 173.76 243.375 174.016V182.864C243.375 183.099 243.434 183.248 243.551 183.312C243.679 183.365 243.823 183.419 243.983 183.472C244.1 183.515 244.191 183.557 244.255 183.6C244.319 183.643 244.351 183.707 244.351 183.792C244.351 183.867 244.319 183.925 244.255 183.968C244.202 184 244.127 184.016 244.031 184.016C243.828 184.016 243.626 184.011 243.423 184C243.231 183.989 243.039 183.984 242.847 183.984C242.666 183.973 242.479 183.968 242.287 183.968C242.106 183.968 241.924 183.973 241.743 183.984C241.572 183.995 241.396 184.005 241.215 184.016C241.034 184.037 240.836 184.048 240.623 184.048ZM245.201 184.048C245.137 184.048 245.079 184.032 245.025 184C244.972 183.957 244.945 183.904 244.945 183.84C244.945 183.755 244.972 183.685 245.025 183.632C245.079 183.579 245.148 183.541 245.233 183.52C245.511 183.456 245.703 183.387 245.809 183.312C245.927 183.227 245.985 183.099 245.985 182.928V179.472C245.985 179.109 245.927 178.853 245.809 178.704C245.703 178.544 245.532 178.448 245.297 178.416C245.233 178.405 245.185 178.373 245.153 178.32C245.121 178.267 245.105 178.203 245.105 178.128C245.105 177.968 245.164 177.877 245.281 177.856C245.836 177.749 246.327 177.6 246.753 177.408C247.191 177.216 247.527 177.067 247.761 176.96C247.932 176.875 248.039 176.832 248.081 176.832C248.22 176.832 248.289 176.896 248.289 177.024C248.279 177.205 248.252 177.435 248.209 177.712C248.177 177.979 248.145 178.256 248.113 178.544C248.092 178.832 248.081 179.109 248.081 179.376V182.912C248.081 183.061 248.135 183.179 248.241 183.264C248.359 183.349 248.561 183.435 248.849 183.52C248.935 183.552 249.004 183.589 249.057 183.632C249.111 183.675 249.137 183.739 249.137 183.824C249.137 183.963 249.057 184.032 248.897 184.032C248.695 184.032 248.481 184.027 248.257 184.016C248.033 184.005 247.815 183.995 247.601 183.984C247.399 183.973 247.201 183.968 247.009 183.968C246.828 183.968 246.636 183.973 246.433 183.984C246.241 183.995 246.039 184.005 245.825 184.016C245.623 184.037 245.415 184.048 245.201 184.048ZM246.961 176.112C246.631 176.112 246.337 175.989 246.081 175.744C245.836 175.499 245.713 175.205 245.713 174.864C245.713 174.501 245.836 174.197 246.081 173.952C246.337 173.707 246.631 173.584 246.961 173.584C247.335 173.584 247.644 173.707 247.889 173.952C248.135 174.197 248.257 174.501 248.257 174.864C248.257 175.205 248.135 175.499 247.889 175.744C247.644 175.989 247.335 176.112 246.961 176.112ZM250.032 184.08C249.989 184.08 249.915 184.032 249.808 183.936C249.712 183.829 249.664 183.728 249.664 183.632C249.664 183.568 249.701 183.472 249.776 183.344C249.861 183.216 249.957 183.083 250.064 182.944C250.171 182.795 250.256 182.667 250.32 182.56C250.576 182.155 250.805 181.797 251.008 181.488C251.221 181.168 251.424 180.859 251.616 180.56C251.819 180.251 252.032 179.915 252.256 179.552C252.48 179.179 252.747 178.741 253.056 178.24C253.077 178.197 253.088 178.155 253.088 178.112C253.088 178.069 253.024 178.048 252.896 178.048L252.016 178.032C251.867 178.032 251.733 178.053 251.616 178.096C251.509 178.139 251.403 178.219 251.296 178.336C251.253 178.379 251.179 178.469 251.072 178.608C250.976 178.736 250.875 178.88 250.768 179.04C250.661 179.2 250.56 179.344 250.464 179.472C250.379 179.6 250.315 179.685 250.272 179.728C250.208 179.803 250.107 179.819 249.968 179.776C249.829 179.733 249.765 179.664 249.776 179.568C249.808 179.451 249.856 179.264 249.92 179.008C249.984 178.741 250.043 178.464 250.096 178.176C250.149 177.877 250.176 177.627 250.176 177.424C250.176 177.307 250.213 177.211 250.288 177.136C250.373 177.051 250.459 177.008 250.544 177.008C250.629 177.008 250.731 177.061 250.848 177.168C250.901 177.211 250.997 177.243 251.136 177.264C251.285 177.275 251.445 177.28 251.616 177.28C251.733 177.28 251.851 177.28 251.968 177.28C252.096 177.269 252.197 177.264 252.272 177.264C252.784 177.264 253.339 177.259 253.936 177.248C254.533 177.237 255.099 177.221 255.632 177.2C255.717 177.2 255.787 177.243 255.84 177.328C255.893 177.403 255.931 177.488 255.952 177.584C255.973 177.68 255.963 177.76 255.92 177.824C255.792 177.963 255.68 178.101 255.584 178.24C255.488 178.368 255.376 178.517 255.248 178.688L252.592 182.976C252.549 183.051 252.539 183.109 252.56 183.152C252.592 183.195 252.677 183.216 252.816 183.216H253.824C253.973 183.216 254.112 183.189 254.24 183.136C254.368 183.083 254.496 182.987 254.624 182.848C254.795 182.667 254.933 182.491 255.04 182.32C255.147 182.139 255.296 181.877 255.488 181.536C255.563 181.408 255.675 181.36 255.824 181.392C255.973 181.424 256.048 181.504 256.048 181.632C256.048 181.696 256.032 181.813 256 181.984C255.968 182.155 255.925 182.347 255.872 182.56C255.819 182.773 255.76 182.992 255.696 183.216C255.643 183.44 255.584 183.643 255.52 183.824C255.477 183.995 255.376 184.08 255.216 184.08C254.96 184.08 254.507 184.064 253.856 184.032C253.205 184 252.4 183.984 251.44 183.984C251.195 183.984 250.933 184 250.656 184.032C250.389 184.064 250.181 184.08 250.032 184.08ZM258.377 184.224C258.089 184.224 257.822 184.155 257.577 184.016C257.331 183.877 257.134 183.696 256.985 183.472C256.846 183.248 256.777 183.003 256.777 182.736C256.777 182.373 256.889 182.069 257.113 181.824C257.347 181.579 257.689 181.36 258.137 181.168L259.561 180.544C259.774 180.448 259.902 180.363 259.945 180.288C259.998 180.213 260.025 180.075 260.025 179.872L260.041 178.96C260.051 178.661 259.998 178.427 259.881 178.256C259.763 178.075 259.587 177.984 259.353 177.984C259.214 177.984 259.075 178.016 258.937 178.08C258.798 178.133 258.691 178.197 258.617 178.272C258.585 178.315 258.558 178.368 258.537 178.432C258.526 178.485 258.521 178.544 258.521 178.608C258.521 178.672 258.526 178.752 258.537 178.848C258.547 178.933 258.553 179.008 258.553 179.072C258.553 179.136 258.467 179.221 258.297 179.328C258.126 179.424 257.929 179.515 257.705 179.6C257.481 179.675 257.289 179.712 257.129 179.712C257.054 179.712 256.985 179.68 256.921 179.616C256.867 179.552 256.84 179.472 256.84 179.376C256.84 179.205 256.899 179.04 257.017 178.88C257.134 178.709 257.326 178.517 257.593 178.304C257.87 178.069 258.174 177.861 258.505 177.68C258.835 177.499 259.161 177.355 259.481 177.248C259.811 177.141 260.089 177.088 260.312 177.088C260.889 177.088 261.347 177.275 261.689 177.648C262.03 178.011 262.19 178.496 262.169 179.104L262.089 182.336C262.078 182.581 262.121 182.789 262.217 182.96C262.313 183.131 262.43 183.216 262.569 183.216C262.771 183.216 262.947 183.147 263.097 183.008C263.129 182.976 263.161 182.96 263.193 182.96C263.246 182.96 263.289 182.976 263.321 183.008C263.363 183.04 263.385 183.083 263.385 183.136C263.385 183.264 263.289 183.429 263.097 183.632C262.894 183.824 262.681 183.968 262.457 184.064C262.233 184.171 261.998 184.224 261.753 184.224C261.155 184.224 260.659 183.92 260.265 183.312H260.233C259.881 183.632 259.561 183.861 259.273 184C258.995 184.149 258.697 184.224 258.377 184.224ZM259.337 183.184C259.454 183.184 259.55 183.168 259.625 183.136C259.699 183.093 259.774 183.029 259.849 182.944C259.881 182.901 259.907 182.848 259.929 182.784C259.95 182.709 259.961 182.624 259.961 182.528L260.009 181.376C260.009 181.269 259.993 181.2 259.961 181.168C259.929 181.136 259.891 181.12 259.849 181.12C259.827 181.12 259.801 181.125 259.769 181.136C259.737 181.147 259.699 181.163 259.657 181.184C259.347 181.333 259.118 181.488 258.969 181.648C258.819 181.797 258.745 182.043 258.745 182.384C258.745 182.693 258.809 182.907 258.937 183.024C259.065 183.131 259.198 183.184 259.337 183.184ZM266.832 184.224C266.128 184.224 265.6 184.048 265.248 183.696C264.896 183.333 264.72 182.827 264.72 182.176V178.496C264.72 178.4 264.683 178.331 264.608 178.288C264.544 178.245 264.416 178.219 264.224 178.208H264.016C263.941 178.208 263.877 178.149 263.824 178.032C263.781 177.904 263.76 177.792 263.76 177.696C263.76 177.675 263.765 177.648 263.776 177.616C263.797 177.573 263.824 177.547 263.856 177.536C264.112 177.44 264.384 177.296 264.672 177.104C264.971 176.901 265.253 176.688 265.52 176.464C265.797 176.24 266.021 176.053 266.192 175.904C266.267 175.851 266.331 175.803 266.384 175.76C266.437 175.717 266.507 175.696 266.592 175.696C266.688 175.696 266.757 175.717 266.8 175.76C266.843 175.792 266.853 175.877 266.832 176.016L266.736 176.96C266.725 177.088 266.752 177.179 266.816 177.232C266.891 177.275 266.992 177.296 267.12 177.296H269.024C269.056 177.296 269.088 177.333 269.12 177.408C269.152 177.483 269.168 177.552 269.168 177.616C269.168 177.765 269.147 177.909 269.104 178.048C269.061 178.187 269.013 178.256 268.96 178.256H267.472C267.227 178.256 267.056 178.288 266.96 178.352C266.875 178.405 266.832 178.507 266.832 178.656V181.68C266.832 182.171 266.923 182.539 267.104 182.784C267.296 183.019 267.547 183.136 267.856 183.136C268.165 183.136 268.389 183.104 268.528 183.04C268.677 182.976 268.811 182.923 268.928 182.88C268.971 182.859 269.003 182.848 269.024 182.848C269.077 182.848 269.12 182.88 269.152 182.944C269.184 183.008 269.2 183.083 269.2 183.168C269.2 183.232 269.088 183.349 268.864 183.52C268.64 183.691 268.347 183.851 267.984 184C267.632 184.149 267.248 184.224 266.832 184.224ZM269.92 184.048C269.856 184.048 269.797 184.032 269.744 184C269.691 183.957 269.664 183.904 269.664 183.84C269.664 183.755 269.691 183.685 269.744 183.632C269.797 183.579 269.867 183.541 269.952 183.52C270.229 183.456 270.421 183.387 270.528 183.312C270.645 183.227 270.704 183.099 270.704 182.928V179.472C270.704 179.109 270.645 178.853 270.528 178.704C270.421 178.544 270.251 178.448 270.016 178.416C269.952 178.405 269.904 178.373 269.872 178.32C269.84 178.267 269.824 178.203 269.824 178.128C269.824 177.968 269.883 177.877 270 177.856C270.555 177.749 271.045 177.6 271.472 177.408C271.909 177.216 272.245 177.067 272.48 176.96C272.651 176.875 272.757 176.832 272.8 176.832C272.939 176.832 273.008 176.896 273.008 177.024C272.997 177.205 272.971 177.435 272.928 177.712C272.896 177.979 272.864 178.256 272.832 178.544C272.811 178.832 272.8 179.109 272.8 179.376V182.912C272.8 183.061 272.853 183.179 272.96 183.264C273.077 183.349 273.28 183.435 273.568 183.52C273.653 183.552 273.723 183.589 273.776 183.632C273.829 183.675 273.856 183.739 273.856 183.824C273.856 183.963 273.776 184.032 273.616 184.032C273.413 184.032 273.2 184.027 272.976 184.016C272.752 184.005 272.533 183.995 272.32 183.984C272.117 183.973 271.92 183.968 271.728 183.968C271.547 183.968 271.355 183.973 271.152 183.984C270.96 183.995 270.757 184.005 270.544 184.016C270.341 184.037 270.133 184.048 269.92 184.048ZM271.68 176.112C271.349 176.112 271.056 175.989 270.8 175.744C270.555 175.499 270.432 175.205 270.432 174.864C270.432 174.501 270.555 174.197 270.8 173.952C271.056 173.707 271.349 173.584 271.68 173.584C272.053 173.584 272.363 173.707 272.608 173.952C272.853 174.197 272.976 174.501 272.976 174.864C272.976 175.205 272.853 175.499 272.608 175.744C272.363 175.989 272.053 176.112 271.68 176.112ZM277.839 184.224C277.199 184.224 276.623 184.08 276.111 183.792C275.599 183.504 275.188 183.109 274.879 182.608C274.58 182.096 274.431 181.52 274.431 180.88C274.431 180.368 274.527 179.883 274.719 179.424C274.911 178.965 275.178 178.56 275.519 178.208C275.86 177.856 276.26 177.579 276.719 177.376C277.178 177.173 277.668 177.072 278.191 177.072C278.852 177.072 279.45 177.227 279.983 177.536C280.516 177.845 280.938 178.256 281.247 178.768C281.567 179.269 281.727 179.819 281.727 180.416C281.727 181.099 281.578 181.733 281.279 182.32C280.991 182.896 280.559 183.36 279.983 183.712C279.418 184.053 278.703 184.224 277.839 184.224ZM278.159 183.52C278.383 183.52 278.575 183.477 278.735 183.392C278.906 183.296 279.044 183.157 279.151 182.976C279.279 182.763 279.364 182.475 279.407 182.112C279.46 181.739 279.487 181.301 279.487 180.8C279.487 180.224 279.423 179.712 279.295 179.264C279.167 178.805 278.986 178.443 278.751 178.176C278.527 177.909 278.26 177.776 277.951 177.776C277.78 177.776 277.626 177.808 277.487 177.872C277.348 177.925 277.226 178.005 277.119 178.112C276.938 178.325 276.81 178.629 276.735 179.024C276.671 179.419 276.639 179.904 276.639 180.48C276.639 180.992 276.703 181.483 276.831 181.952C276.97 182.411 277.151 182.789 277.375 183.088C277.61 183.376 277.871 183.52 278.159 183.52ZM282.75 184.048C282.675 184.048 282.6 184.032 282.526 184C282.462 183.957 282.43 183.899 282.43 183.824C282.43 183.739 282.467 183.675 282.542 183.632C282.616 183.579 282.702 183.536 282.798 183.504C282.958 183.451 283.096 183.392 283.214 183.328C283.342 183.253 283.406 183.109 283.406 182.896V179.232C283.406 178.997 283.368 178.8 283.294 178.64C283.23 178.48 283.102 178.379 282.91 178.336C282.867 178.325 282.824 178.299 282.782 178.256C282.75 178.213 282.734 178.144 282.734 178.048C282.734 177.899 282.787 177.808 282.894 177.776C283.256 177.691 283.651 177.579 284.078 177.44C284.515 177.291 284.888 177.136 285.198 176.976C285.24 176.955 285.288 176.928 285.342 176.896C285.395 176.864 285.443 176.848 285.486 176.848C285.55 176.848 285.587 176.869 285.598 176.912C285.619 176.944 285.63 176.987 285.63 177.04C285.63 177.125 285.614 177.264 285.582 177.456C285.56 177.637 285.55 177.803 285.55 177.952C285.55 177.995 285.55 178.043 285.55 178.096C285.56 178.149 285.571 178.181 285.582 178.192C285.944 177.84 286.312 177.568 286.686 177.376C287.059 177.184 287.491 177.088 287.982 177.088C288.536 177.088 289 177.296 289.374 177.712C289.758 178.117 289.95 178.672 289.95 179.376V182.896C289.95 183.109 290.008 183.253 290.126 183.328C290.254 183.392 290.398 183.451 290.558 183.504C290.643 183.536 290.718 183.579 290.782 183.632C290.846 183.675 290.878 183.739 290.878 183.824C290.878 183.899 290.846 183.957 290.782 184C290.728 184.032 290.67 184.048 290.606 184.048C290.392 184.048 290.19 184.037 289.998 184.016C289.816 184.005 289.635 183.995 289.454 183.984C289.283 183.973 289.102 183.968 288.91 183.968C288.728 183.968 288.547 183.973 288.366 183.984C288.184 183.995 288.003 184.005 287.822 184.016C287.64 184.037 287.443 184.048 287.23 184.048C287.166 184.048 287.102 184.032 287.038 184C286.984 183.957 286.958 183.899 286.958 183.824C286.958 183.739 286.99 183.675 287.054 183.632C287.118 183.579 287.192 183.536 287.278 183.504C287.438 183.451 287.571 183.392 287.678 183.328C287.784 183.253 287.838 183.109 287.838 182.896V179.712C287.838 179.307 287.742 178.992 287.55 178.768C287.368 178.533 287.123 178.411 286.814 178.4C286.579 178.4 286.371 178.437 286.19 178.512C286.008 178.587 285.822 178.688 285.63 178.816C285.587 178.859 285.555 178.907 285.534 178.96C285.512 179.013 285.502 179.067 285.502 179.12V182.896C285.502 183.109 285.56 183.253 285.678 183.328C285.795 183.392 285.928 183.451 286.078 183.504C286.291 183.568 286.398 183.675 286.398 183.824C286.398 183.888 286.371 183.941 286.318 183.984C286.264 184.027 286.2 184.048 286.126 184.048C285.912 184.048 285.715 184.037 285.534 184.016C285.352 184.005 285.182 183.995 285.022 183.984C284.862 183.973 284.686 183.968 284.494 183.968C284.312 183.968 284.126 183.973 283.934 183.984C283.752 183.995 283.56 184.005 283.358 184.016C283.166 184.037 282.963 184.048 282.75 184.048ZM295.529 188.192C295.454 188.192 295.38 188.171 295.305 188.128C295.241 188.096 295.209 188.043 295.209 187.968C295.209 187.883 295.241 187.813 295.305 187.76C295.38 187.717 295.47 187.68 295.577 187.648C295.801 187.573 295.956 187.493 296.041 187.408C296.137 187.333 296.185 187.211 296.185 187.04V179.376C296.185 179.237 296.158 179.104 296.105 178.976C296.052 178.848 295.977 178.736 295.881 178.64C295.785 178.533 295.662 178.469 295.513 178.448C295.449 178.427 295.401 178.4 295.369 178.368C295.337 178.325 295.321 178.256 295.321 178.16C295.321 178.075 295.337 178.011 295.369 177.968C295.401 177.925 295.444 177.899 295.497 177.888C295.87 177.803 296.27 177.691 296.697 177.552C297.124 177.413 297.492 177.269 297.801 177.12C297.844 177.099 297.886 177.077 297.929 177.056C297.982 177.024 298.03 177.008 298.073 177.008C298.137 177.008 298.174 177.029 298.185 177.072C298.206 177.104 298.217 177.147 298.217 177.2C298.217 177.285 298.201 177.429 298.169 177.632C298.148 177.824 298.137 177.989 298.137 178.128C298.137 178.235 298.148 178.299 298.169 178.32C298.276 178.213 298.462 178.069 298.729 177.888C299.006 177.707 299.321 177.547 299.673 177.408C300.025 177.269 300.366 177.2 300.697 177.2C301.273 177.2 301.758 177.355 302.153 177.664C302.558 177.963 302.868 178.352 303.081 178.832C303.294 179.301 303.401 179.797 303.401 180.32C303.401 180.821 303.305 181.307 303.113 181.776C302.932 182.245 302.67 182.672 302.329 183.056C301.988 183.429 301.593 183.728 301.145 183.952C300.697 184.176 300.217 184.288 299.705 184.288C299.588 184.288 299.444 184.272 299.273 184.24C299.113 184.208 298.948 184.165 298.777 184.112C298.617 184.059 298.468 184.005 298.329 183.952C298.318 183.952 298.308 183.968 298.297 184C298.286 184.032 298.276 184.069 298.265 184.112C298.265 184.155 298.265 184.197 298.265 184.24V186.896C298.265 187.035 298.297 187.152 298.361 187.248C298.436 187.344 298.537 187.419 298.665 187.472C298.793 187.536 298.948 187.595 299.129 187.648C299.236 187.68 299.321 187.717 299.385 187.76C299.449 187.813 299.481 187.883 299.481 187.968C299.481 188.032 299.449 188.085 299.385 188.128C299.332 188.171 299.273 188.192 299.209 188.192C298.889 188.192 298.553 188.176 298.201 188.144C297.86 188.123 297.55 188.112 297.273 188.112C297.092 188.112 296.905 188.117 296.713 188.128C296.532 188.139 296.34 188.149 296.137 188.16C295.945 188.181 295.742 188.192 295.529 188.192ZM299.657 183.552C299.774 183.552 299.913 183.509 300.073 183.424C300.244 183.328 300.409 183.179 300.569 182.976C300.74 182.773 300.878 182.501 300.985 182.16C301.102 181.819 301.161 181.397 301.161 180.896C301.161 180.309 301.102 179.845 300.985 179.504C300.868 179.152 300.724 178.891 300.553 178.72C300.382 178.549 300.206 178.437 300.025 178.384C299.854 178.32 299.705 178.288 299.577 178.288C299.385 178.288 299.188 178.331 298.985 178.416C298.782 178.501 298.617 178.603 298.489 178.72C298.361 178.837 298.297 178.944 298.297 179.04C298.297 179.125 298.297 179.291 298.297 179.536C298.297 179.781 298.292 180.053 298.281 180.352C298.281 180.651 298.276 180.923 298.265 181.168C298.265 181.413 298.265 181.584 298.265 181.68C298.265 181.925 298.318 182.197 298.425 182.496C298.542 182.784 298.702 183.035 298.905 183.248C299.118 183.451 299.369 183.552 299.657 183.552ZM304.107 184.048C304.011 184.048 303.931 184.032 303.867 184C303.814 183.957 303.787 183.899 303.787 183.824C303.787 183.739 303.819 183.675 303.883 183.632C303.947 183.579 304.038 183.536 304.155 183.504C304.315 183.451 304.454 183.392 304.571 183.328C304.699 183.264 304.763 183.12 304.763 182.896V175.2C304.763 174.912 304.721 174.661 304.635 174.448C304.561 174.235 304.39 174.101 304.123 174.048C304.017 174.027 303.963 173.947 303.963 173.808C303.963 173.669 304.011 173.589 304.107 173.568C304.385 173.515 304.683 173.44 305.003 173.344C305.323 173.237 305.627 173.131 305.915 173.024C306.203 172.907 306.427 172.821 306.587 172.768C306.673 172.736 306.742 172.72 306.795 172.72C306.859 172.72 306.902 172.741 306.923 172.784C306.945 172.816 306.955 172.859 306.955 172.912C306.955 172.987 306.939 173.125 306.907 173.328C306.886 173.531 306.87 173.76 306.859 174.016V182.864C306.859 183.099 306.918 183.248 307.035 183.312C307.163 183.365 307.307 183.419 307.467 183.472C307.585 183.515 307.675 183.557 307.739 183.6C307.803 183.643 307.835 183.707 307.835 183.792C307.835 183.867 307.803 183.925 307.739 183.968C307.686 184 307.611 184.016 307.515 184.016C307.313 184.016 307.11 184.011 306.907 184C306.715 183.989 306.523 183.984 306.331 183.984C306.15 183.973 305.963 183.968 305.771 183.968C305.59 183.968 305.409 183.973 305.227 183.984C305.057 183.995 304.881 184.005 304.699 184.016C304.518 184.037 304.321 184.048 304.107 184.048ZM313.505 184.336C313.419 184.336 313.377 184.283 313.377 184.176C313.377 184.048 313.387 183.877 313.409 183.664C313.441 183.451 313.457 183.285 313.457 183.168C313.457 183.125 313.451 183.088 313.441 183.056C313.441 183.024 313.435 183.003 313.425 182.992C313.137 183.344 312.769 183.643 312.321 183.888C311.873 184.123 311.398 184.24 310.897 184.24C310.566 184.24 310.267 184.144 310.001 183.952C309.734 183.749 309.521 183.477 309.361 183.136C309.211 182.795 309.137 182.411 309.137 181.984V178.992C309.137 178.747 309.089 178.549 308.993 178.4C308.907 178.251 308.742 178.149 308.497 178.096C308.433 178.085 308.374 178.059 308.321 178.016C308.278 177.963 308.257 177.888 308.257 177.792C308.257 177.717 308.278 177.659 308.321 177.616C308.363 177.563 308.422 177.531 308.497 177.52C308.945 177.499 309.35 177.456 309.713 177.392C310.075 177.317 310.443 177.232 310.817 177.136C310.87 177.125 310.923 177.115 310.977 177.104C311.041 177.083 311.099 177.072 311.153 177.072C311.302 177.072 311.371 177.147 311.361 177.296C311.318 177.541 311.286 177.749 311.265 177.92C311.243 178.08 311.233 178.283 311.233 178.528V181.6C311.233 181.856 311.275 182.08 311.361 182.272C311.446 182.464 311.563 182.613 311.713 182.72C311.862 182.827 312.027 182.885 312.209 182.896C312.379 182.896 312.545 182.875 312.705 182.832C312.875 182.789 313.035 182.693 313.185 182.544C313.249 182.491 313.318 182.384 313.393 182.224C313.467 182.053 313.505 181.829 313.505 181.552V178.976C313.505 178.784 313.467 178.629 313.393 178.512C313.318 178.384 313.217 178.283 313.089 178.208C312.961 178.133 312.811 178.091 312.641 178.08C312.523 178.069 312.427 178.043 312.353 178C312.289 177.947 312.257 177.856 312.257 177.728C312.257 177.621 312.294 177.541 312.369 177.488C312.443 177.435 312.534 177.408 312.641 177.408C313.185 177.376 313.617 177.349 313.937 177.328C314.257 177.296 314.518 177.264 314.721 177.232C314.923 177.2 315.126 177.163 315.329 177.12C315.361 177.109 315.398 177.099 315.441 177.088C315.483 177.077 315.515 177.072 315.537 177.072C315.697 177.072 315.777 177.136 315.777 177.264C315.777 177.296 315.771 177.333 315.761 177.376C315.75 177.419 315.734 177.461 315.713 177.504C315.702 177.547 315.686 177.643 315.665 177.792C315.654 177.931 315.638 178.08 315.617 178.24C315.606 178.4 315.601 178.528 315.601 178.624V182.336C315.601 182.581 315.627 182.747 315.681 182.832C315.745 182.907 315.814 182.944 315.889 182.944C315.942 182.944 316.022 182.949 316.129 182.96C316.235 182.96 316.305 182.96 316.337 182.96C316.433 182.96 316.507 182.987 316.561 183.04C316.614 183.093 316.641 183.163 316.641 183.248C316.641 183.344 316.619 183.424 316.577 183.488C316.545 183.541 316.475 183.573 316.369 183.584C315.857 183.627 315.393 183.717 314.977 183.856C314.571 183.984 314.219 184.107 313.921 184.224C313.857 184.245 313.787 184.267 313.713 184.288C313.638 184.32 313.569 184.336 313.505 184.336ZM320.237 188.624C319.192 188.624 318.376 188.459 317.789 188.128C317.213 187.808 316.925 187.365 316.925 186.8C316.925 186.48 316.963 186.219 317.037 186.016C317.112 185.824 317.283 185.632 317.549 185.44C317.752 185.291 317.949 185.141 318.141 184.992C318.333 184.843 318.499 184.72 318.637 184.624L319.421 184.896C319.091 185.088 318.829 185.296 318.637 185.52C318.456 185.744 318.365 186.005 318.365 186.304C318.365 186.741 318.547 187.104 318.909 187.392C319.283 187.68 319.747 187.824 320.301 187.824C321.037 187.824 321.56 187.68 321.869 187.392C322.061 187.2 322.216 186.981 322.333 186.736C322.451 186.501 322.509 186.261 322.509 186.016C322.509 185.845 322.451 185.707 322.333 185.6C322.216 185.493 322.003 185.403 321.693 185.328C321.395 185.253 320.973 185.189 320.429 185.136C319.32 185.029 318.531 184.821 318.061 184.512C317.592 184.203 317.357 183.792 317.357 183.28C317.357 183.184 317.384 183.088 317.437 182.992C317.501 182.885 317.619 182.773 317.789 182.656C317.96 182.528 318.115 182.416 318.253 182.32C318.392 182.213 318.509 182.117 318.605 182.032C318.701 181.936 318.765 181.851 318.797 181.776L319.597 182.048C319.384 182.123 319.208 182.224 319.069 182.352C318.941 182.48 318.877 182.592 318.877 182.688C318.877 182.805 318.947 182.901 319.085 182.976C319.224 183.051 319.459 183.115 319.789 183.168C320.12 183.211 320.573 183.253 321.149 183.296C322.301 183.392 323.139 183.573 323.661 183.84C324.184 184.096 324.445 184.475 324.445 184.976C324.445 185.413 324.323 185.845 324.077 186.272C323.832 186.709 323.507 187.104 323.101 187.456C322.696 187.819 322.243 188.101 321.741 188.304C321.251 188.517 320.749 188.624 320.237 188.624ZM320.445 181.76C320.787 181.76 321.053 181.573 321.245 181.2C321.448 180.816 321.549 180.315 321.549 179.696C321.549 179.301 321.496 178.96 321.389 178.672C321.293 178.373 321.16 178.144 320.989 177.984C320.819 177.813 320.616 177.728 320.381 177.728C320.179 177.728 319.992 177.813 319.821 177.984C319.651 178.155 319.512 178.384 319.405 178.672C319.309 178.949 319.261 179.275 319.261 179.648C319.261 180.043 319.315 180.4 319.421 180.72C319.528 181.04 319.672 181.296 319.853 181.488C320.035 181.669 320.232 181.76 320.445 181.76ZM320.269 182.464C319.8 182.464 319.336 182.352 318.877 182.128C318.429 181.893 318.056 181.573 317.757 181.168C317.469 180.763 317.325 180.309 317.325 179.808C317.325 179.275 317.475 178.8 317.773 178.384C318.083 177.968 318.483 177.648 318.973 177.424C319.475 177.189 320.003 177.072 320.557 177.072C320.888 177.072 321.197 177.109 321.485 177.184C321.784 177.259 322.109 177.323 322.461 177.376C322.664 177.419 322.867 177.451 323.069 177.472C323.272 177.493 323.496 177.504 323.741 177.504C323.901 177.504 324.061 177.499 324.221 177.488C324.381 177.467 324.515 177.456 324.621 177.456C324.792 177.456 324.877 177.573 324.877 177.808C324.877 178.011 324.808 178.203 324.669 178.384C324.605 178.459 324.536 178.496 324.461 178.496H324.029C323.752 178.496 323.565 178.539 323.469 178.624C323.448 178.645 323.432 178.672 323.421 178.704C323.411 178.725 323.4 178.784 323.389 178.88C323.389 178.965 323.389 179.131 323.389 179.376C323.389 179.931 323.245 180.443 322.957 180.912C322.669 181.381 322.291 181.76 321.821 182.048C321.352 182.325 320.835 182.464 320.269 182.464ZM325.373 184.048C325.309 184.048 325.251 184.032 325.197 184C325.144 183.957 325.117 183.904 325.117 183.84C325.117 183.755 325.144 183.685 325.197 183.632C325.251 183.579 325.32 183.541 325.405 183.52C325.683 183.456 325.875 183.387 325.981 183.312C326.099 183.227 326.157 183.099 326.157 182.928V179.472C326.157 179.109 326.099 178.853 325.981 178.704C325.875 178.544 325.704 178.448 325.469 178.416C325.405 178.405 325.357 178.373 325.325 178.32C325.293 178.267 325.277 178.203 325.277 178.128C325.277 177.968 325.336 177.877 325.453 177.856C326.008 177.749 326.499 177.6 326.925 177.408C327.363 177.216 327.699 177.067 327.933 176.96C328.104 176.875 328.211 176.832 328.253 176.832C328.392 176.832 328.461 176.896 328.461 177.024C328.451 177.205 328.424 177.435 328.381 177.712C328.349 177.979 328.317 178.256 328.285 178.544C328.264 178.832 328.253 179.109 328.253 179.376V182.912C328.253 183.061 328.307 183.179 328.413 183.264C328.531 183.349 328.733 183.435 329.021 183.52C329.107 183.552 329.176 183.589 329.229 183.632C329.283 183.675 329.309 183.739 329.309 183.824C329.309 183.963 329.229 184.032 329.069 184.032C328.867 184.032 328.653 184.027 328.429 184.016C328.205 184.005 327.987 183.995 327.773 183.984C327.571 183.973 327.373 183.968 327.181 183.968C327 183.968 326.808 183.973 326.605 183.984C326.413 183.995 326.211 184.005 325.997 184.016C325.795 184.037 325.587 184.048 325.373 184.048ZM327.133 176.112C326.803 176.112 326.509 175.989 326.253 175.744C326.008 175.499 325.885 175.205 325.885 174.864C325.885 174.501 326.008 174.197 326.253 173.952C326.509 173.707 326.803 173.584 327.133 173.584C327.507 173.584 327.816 173.707 328.061 173.952C328.307 174.197 328.429 174.501 328.429 174.864C328.429 175.205 328.307 175.499 328.061 175.744C327.816 175.989 327.507 176.112 327.133 176.112ZM330.156 184.048C330.081 184.048 330.007 184.032 329.932 184C329.868 183.957 329.836 183.899 329.836 183.824C329.836 183.739 329.873 183.675 329.948 183.632C330.023 183.579 330.108 183.536 330.204 183.504C330.364 183.451 330.503 183.392 330.62 183.328C330.748 183.253 330.812 183.109 330.812 182.896V179.232C330.812 178.997 330.775 178.8 330.7 178.64C330.636 178.48 330.508 178.379 330.316 178.336C330.273 178.325 330.231 178.299 330.188 178.256C330.156 178.213 330.14 178.144 330.14 178.048C330.14 177.899 330.193 177.808 330.3 177.776C330.663 177.691 331.057 177.579 331.484 177.44C331.921 177.291 332.295 177.136 332.604 176.976C332.647 176.955 332.695 176.928 332.748 176.896C332.801 176.864 332.849 176.848 332.892 176.848C332.956 176.848 332.993 176.869 333.004 176.912C333.025 176.944 333.036 176.987 333.036 177.04C333.036 177.125 333.02 177.264 332.988 177.456C332.967 177.637 332.956 177.803 332.956 177.952C332.956 177.995 332.956 178.043 332.956 178.096C332.967 178.149 332.977 178.181 332.988 178.192C333.351 177.84 333.719 177.568 334.092 177.376C334.465 177.184 334.897 177.088 335.388 177.088C335.943 177.088 336.407 177.296 336.78 177.712C337.164 178.117 337.356 178.672 337.356 179.376V182.896C337.356 183.109 337.415 183.253 337.532 183.328C337.66 183.392 337.804 183.451 337.964 183.504C338.049 183.536 338.124 183.579 338.188 183.632C338.252 183.675 338.284 183.739 338.284 183.824C338.284 183.899 338.252 183.957 338.188 184C338.135 184.032 338.076 184.048 338.012 184.048C337.799 184.048 337.596 184.037 337.404 184.016C337.223 184.005 337.041 183.995 336.86 183.984C336.689 183.973 336.508 183.968 336.316 183.968C336.135 183.968 335.953 183.973 335.772 183.984C335.591 183.995 335.409 184.005 335.228 184.016C335.047 184.037 334.849 184.048 334.636 184.048C334.572 184.048 334.508 184.032 334.444 184C334.391 183.957 334.364 183.899 334.364 183.824C334.364 183.739 334.396 183.675 334.46 183.632C334.524 183.579 334.599 183.536 334.684 183.504C334.844 183.451 334.977 183.392 335.084 183.328C335.191 183.253 335.244 183.109 335.244 182.896V179.712C335.244 179.307 335.148 178.992 334.956 178.768C334.775 178.533 334.529 178.411 334.22 178.4C333.985 178.4 333.777 178.437 333.596 178.512C333.415 178.587 333.228 178.688 333.036 178.816C332.993 178.859 332.961 178.907 332.94 178.96C332.919 179.013 332.908 179.067 332.908 179.12V182.896C332.908 183.109 332.967 183.253 333.084 183.328C333.201 183.392 333.335 183.451 333.484 183.504C333.697 183.568 333.804 183.675 333.804 183.824C333.804 183.888 333.777 183.941 333.724 183.984C333.671 184.027 333.607 184.048 333.532 184.048C333.319 184.048 333.121 184.037 332.94 184.016C332.759 184.005 332.588 183.995 332.428 183.984C332.268 183.973 332.092 183.968 331.9 183.968C331.719 183.968 331.532 183.973 331.34 183.984C331.159 183.995 330.967 184.005 330.764 184.016C330.572 184.037 330.369 184.048 330.156 184.048Z" fill="#F7F9FC"/>
<g clip-path="url(#clip5_541_14482)">
<rect x="109" y="318" width="30" height="21.4286" rx="2.35714" fill="white"/>
<rect x="109" y="318" width="30" height="21.4286" rx="2.35714" fill="white"/>
<mask id="mask6_541_14482" style="mask-type:luminance" maskUnits="userSpaceOnUse" x="109" y="318" width="30" height="22">
<rect x="109" y="318" width="30" height="21.4286" rx="2.35714" fill="white"/>
</mask>
<g mask="url(#mask6_541_14482)">
<path fill-rule="evenodd" clip-rule="evenodd" d="M139 318H109V319.429H139V318ZM139 320.857H109V322.286H139V320.857ZM109 323.714H139V325.143H109V323.714ZM139 326.571H109V328H139V326.571ZM109 329.429H139V330.857H109V329.429ZM139 332.286H109V333.714H139V332.286ZM109 335.143H139V336.571H109V335.143ZM139 338H109V339.429H139V338Z" fill="#D02F44"/>
<rect x="109" y="318" width="12.8571" height="10" fill="#46467F"/>
<g filter="url(#filter0_d_541_14482)">
<path fill-rule="evenodd" clip-rule="evenodd" d="M114 320.857C114.394 320.857 114.714 320.537 114.714 320.143C114.714 319.749 114.394 319.429 114 319.429C113.605 319.429 113.286 319.749 113.286 320.143C113.286 320.537 113.605 320.857 114 320.857ZM111.143 320.857C111.537 320.857 111.857 320.538 111.857 320.143C111.857 319.749 111.537 319.429 111.143 319.429C110.748 319.429 110.428 319.749 110.428 320.143C110.428 320.538 110.748 320.857 111.143 320.857ZM117.571 320.143C117.571 320.537 117.252 320.857 116.857 320.857C116.463 320.857 116.143 320.537 116.143 320.143C116.143 319.749 116.463 319.429 116.857 319.429C117.252 319.429 117.571 319.749 117.571 320.143ZM119.714 320.857C120.109 320.857 120.429 320.537 120.429 320.143C120.429 319.749 120.109 319.429 119.714 319.429C119.32 319.429 119 319.749 119 320.143C119 320.537 119.32 320.857 119.714 320.857ZM113.285 321.572C113.285 321.966 112.965 322.286 112.571 322.286C112.176 322.286 111.857 321.966 111.857 321.572C111.857 321.177 112.176 320.857 112.571 320.857C112.965 320.857 113.285 321.177 113.285 321.572ZM115.428 322.286C115.823 322.286 116.142 321.966 116.142 321.572C116.142 321.177 115.823 320.857 115.428 320.857C115.034 320.857 114.714 321.177 114.714 321.572C114.714 321.966 115.034 322.286 115.428 322.286ZM119 321.572C119 321.966 118.68 322.286 118.285 322.286C117.891 322.286 117.571 321.966 117.571 321.572C117.571 321.177 117.891 320.857 118.285 320.857C118.68 320.857 119 321.177 119 321.572ZM119.714 323.715C120.109 323.715 120.429 323.395 120.429 323C120.429 322.606 120.109 322.286 119.714 322.286C119.32 322.286 119 322.606 119 323C119 323.395 119.32 323.715 119.714 323.715ZM117.571 323C117.571 323.395 117.252 323.715 116.857 323.715C116.463 323.715 116.143 323.395 116.143 323C116.143 322.606 116.463 322.286 116.857 322.286C117.252 322.286 117.571 322.606 117.571 323ZM114 323.715C114.394 323.715 114.714 323.395 114.714 323C114.714 322.606 114.394 322.286 114 322.286C113.605 322.286 113.286 322.606 113.286 323C113.286 323.395 113.605 323.715 114 323.715ZM111.857 323C111.857 323.395 111.537 323.715 111.143 323.715C110.748 323.715 110.428 323.395 110.428 323C110.428 322.606 110.748 322.286 111.143 322.286C111.537 322.286 111.857 322.606 111.857 323ZM112.571 325.143C112.965 325.143 113.285 324.823 113.285 324.429C113.285 324.034 112.965 323.715 112.571 323.715C112.176 323.715 111.857 324.034 111.857 324.429C111.857 324.823 112.176 325.143 112.571 325.143ZM116.142 324.429C116.142 324.823 115.823 325.143 115.428 325.143C115.034 325.143 114.714 324.823 114.714 324.429C114.714 324.034 115.034 323.715 115.428 323.715C115.823 323.715 116.142 324.034 116.142 324.429ZM118.285 325.143C118.68 325.143 119 324.823 119 324.429C119 324.034 118.68 323.715 118.285 323.715C117.891 323.715 117.571 324.034 117.571 324.429C117.571 324.823 117.891 325.143 118.285 325.143ZM120.429 325.857C120.429 326.252 120.109 326.571 119.714 326.571C119.32 326.571 119 326.252 119 325.857C119 325.463 119.32 325.143 119.714 325.143C120.109 325.143 120.429 325.463 120.429 325.857ZM116.857 326.571C117.252 326.571 117.571 326.252 117.571 325.857C117.571 325.463 117.252 325.143 116.857 325.143C116.463 325.143 116.143 325.463 116.143 325.857C116.143 326.252 116.463 326.571 116.857 326.571ZM114.714 325.857C114.714 326.252 114.394 326.571 114 326.571C113.605 326.571 113.286 326.252 113.286 325.857C113.286 325.463 113.605 325.143 114 325.143C114.394 325.143 114.714 325.463 114.714 325.857ZM111.143 326.571C111.537 326.571 111.857 326.252 111.857 325.857C111.857 325.463 111.537 325.143 111.143 325.143C110.748 325.143 110.428 325.463 110.428 325.857C110.428 326.252 110.748 326.571 111.143 326.571Z" fill="url(#paint2_linear_541_14482)"/>
</g>
</g>
</g>
<defs>
<filter id="filter0_d_541_14482" x="110.428" y="319.429" width="10.0005" height="8.32139" filterUnits="userSpaceOnUse" color-interpolation-filters="sRGB">
<feFlood flood-opacity="0" result="BackgroundImageFix"/>
<feColorMatrix in="SourceAlpha" type="matrix" values="0 0 0 0 0 0 0 0 0 0 0 0 0 0 0 0 0 0 127 0" result="hardAlpha"/>
<feOffset dy="1.17857"/>
<feColorMatrix type="matrix" values="0 0 0 0 0 0 0 0 0 0 0 0 0 0 0 0 0 0 0.06 0"/>
<feBlend mode="normal" in2="BackgroundImageFix" result="effect1_dropShadow_541_14482"/>
<feBlend mode="normal" in="SourceGraphic" in2="effect1_dropShadow_541_14482" result="shape"/>
</filter>
<linearGradient id="paint0_linear_541_14482" x1="35" y1="318" x2="35" y2="328.714" gradientUnits="userSpaceOnUse">
<stop stop-color="white"/>
<stop offset="1" stop-color="#F0F0F0"/>
</linearGradient>
<linearGradient id="paint1_linear_541_14482" x1="35" y1="318" x2="35" y2="328" gradientUnits="userSpaceOnUse">
<stop stop-color="#FF2E3B"/>
<stop offset="1" stop-color="#FC0D1B"/>
</linearGradient>
<linearGradient id="paint2_linear_541_14482" x1="110.428" y1="319.429" x2="110.428" y2="326.571" gradientUnits="userSpaceOnUse">
<stop stop-color="white"/>
<stop offset="1" stop-color="#F0F0F0"/>
</linearGradient>
<clipPath id="clip0_541_14482">
<rect x="35" y="318" width="30" height="21.4286" rx="2.35714" fill="white"/>
</clipPath>
<clipPath id="clip1_541_14482">
<rect x="183" y="318" width="30" height="21.8182" rx="1.38311" fill="white"/>
</clipPath>
<clipPath id="clip2_541_14482">
<rect x="257" y="318" width="30" height="21.8182" rx="1.38311" fill="white"/>
</clipPath>
<clipPath id="clip3_541_14482">
<rect x="332" y="319" width="30" height="21" rx="1.52143" fill="white"/>
</clipPath>
<clipPath id="clip4_541_14482">
<rect x="407" y="319" width="30.0001" height="21.4286" rx="2.14286" fill="white"/>
</clipPath>
<clipPath id="clip5_541_14482">
<rect x="109" y="318" width="30" height="21.4286" rx="2.35714" fill="white"/>
</clipPath>
</defs>
</svg>
