<svg width="550" height="350" viewBox="0 0 550 350" fill="none" xmlns="http://www.w3.org/2000/svg">
<path d="M539 273.829L539 243.986C539 241.777 537.209 239.986 535 239.986L278.439 239.986C276.23 239.986 274.439 238.196 274.439 235.986L274.439 201.636" stroke="#ADB0B3" stroke-width="1.5"/>
<path d="M10.093 273.829L10.093 243.986C10.093 241.777 11.8839 239.986 14.093 239.986L270.654 239.986C272.863 239.986 274.654 238.196 274.654 235.986L274.654 201.636" stroke="#ADB0B3" stroke-width="1.5"/>
<path d="M290.875 4.5H257.125C254.02 4.50288 251.503 7.01958 251.5 10.125V43.875C251.503 46.9804 254.02 49.4971 257.125 49.5H290.875C293.98 49.4971 296.497 46.9804 296.5 43.875V10.125C296.497 7.01958 293.98 4.50288 290.875 4.5ZM257.125 47.25C255.262 47.2479 253.752 45.7381 253.75 43.875V32.1196L262.216 23.6536C263.755 22.1199 266.245 22.1199 267.784 23.6536L291.336 47.2032C291.184 47.2243 291.033 47.2499 290.875 47.25H257.125ZM294.25 43.875C294.249 44.7263 293.923 45.4948 293.402 46.0883L277.841 30.5284L280.216 28.1536C281.755 26.6199 284.245 26.6199 285.784 28.1536L294.25 36.6196V43.875ZM294.25 33.4381L287.375 26.5629C284.957 24.1503 281.043 24.1503 278.625 26.5629L276.25 28.9377L269.375 22.0627C266.927 19.7249 263.073 19.7249 260.625 22.0627L253.75 28.938V10.125C253.752 8.26186 255.262 6.75206 257.125 6.75H290.875C292.738 6.75206 294.248 8.26186 294.25 10.125V33.4381Z" fill="#F7F9FC"/>
<path d="M273.47 141.53C273.763 141.823 274.237 141.823 274.53 141.53L279.303 136.757C279.596 136.464 279.596 135.99 279.303 135.697C279.01 135.404 278.536 135.404 278.243 135.697L274 139.939L269.757 135.697C269.464 135.404 268.99 135.404 268.697 135.697C268.404 135.99 268.404 136.464 268.697 136.757L273.47 141.53ZM273.25 63L273.25 141L274.75 141L274.75 63L273.25 63Z" fill="#ADB0B3"/>
<path d="M68.875 260.5H35.125C32.0196 260.503 29.5029 263.02 29.5 266.125V299.875C29.5029 302.98 32.0196 305.497 35.125 305.5H68.875C71.9804 305.497 74.4971 302.98 74.5 299.875V266.125C74.4971 263.02 71.9804 260.503 68.875 260.5ZM35.125 303.25C33.2619 303.248 31.7521 301.738 31.75 299.875V288.12L40.2161 279.654C41.7551 278.12 44.2449 278.12 45.7839 279.654L69.3357 303.203C69.1837 303.224 69.0328 303.25 68.875 303.25H35.125ZM72.25 299.875C72.249 300.726 71.9227 301.495 71.4024 302.088L55.8411 286.528L58.2161 284.154C59.7551 282.62 62.2449 282.62 63.7839 284.154L72.25 292.62V299.875ZM72.25 289.438L65.3748 282.563C62.9572 280.15 59.0428 280.15 56.6252 282.563L54.2504 284.938L47.3748 278.063C44.9267 275.725 41.0733 275.725 38.6252 278.063L31.75 284.938V266.125C31.7521 264.262 33.2619 262.752 35.125 262.75H68.875C70.7381 262.752 72.2479 264.262 72.25 266.125V289.438Z" fill="#F7F9FC"/>
<g clip-path="url(#clip0_375_7275)">
<rect x="35" y="318" width="30" height="21.4286" rx="2.35714" fill="white"/>
<mask id="mask0_375_7275" style="mask-type:luminance" maskUnits="userSpaceOnUse" x="35" y="318" width="30" height="22">
<rect x="35" y="318" width="30" height="21.4286" rx="2.35714" fill="white"/>
</mask>
<g mask="url(#mask0_375_7275)">
<rect x="35" y="318" width="30" height="21.4286" fill="#0A17A7"/>
<path d="M35 317.607H33.938L34.7443 318.298L39.6071 322.466V323.512L34.7717 326.966L34.6071 327.084V327.286V328V328.709L35.2082 328.333L40.827 324.821H42.017L46.8529 328.276C46.9596 328.352 47.0874 328.393 47.2186 328.393C47.8026 328.393 48.0714 327.666 47.628 327.286L43.25 323.534V322.488L47.921 319.151C48.1275 319.004 48.25 318.766 48.25 318.512V318V317.291L47.6489 317.667L42.0302 321.179H40.8402L35.9426 317.68L35.8402 317.607H35.7143H35Z" fill="#FF2E3B" stroke="white" stroke-width="0.785714"/>
<path fill-rule="evenodd" clip-rule="evenodd" d="M35 321.571V324.429H40V327.929C40 328.363 40.3518 328.714 40.7857 328.714H42.0714C42.5054 328.714 42.8571 328.363 42.8571 327.929V324.429H47.7857C48.2197 324.429 48.5714 324.077 48.5714 323.643V322.357C48.5714 321.923 48.2197 321.571 47.7857 321.571H42.8571V318H40V321.571H35Z" fill="url(#paint0_linear_375_7275)"/>
<path fill-rule="evenodd" clip-rule="evenodd" d="M35 322.286H40.7143V321.571V318H42.1429V321.571V322.286H47.8571V323.714H42.1429V324.429V328H40.7143V324.429V323.714H35V322.286Z" fill="url(#paint1_linear_375_7275)"/>
<path fill-rule="evenodd" clip-rule="evenodd" d="M41.4286 335.5L40.1691 336.162L40.4096 334.76L39.3906 333.766L40.7988 333.562L41.4286 332.286L42.0584 333.562L43.4666 333.766L42.4476 334.76L42.6881 336.162L41.4286 335.5Z" fill="white"/>
<path fill-rule="evenodd" clip-rule="evenodd" d="M56.4286 336.572L55.4185 336.867L55.7143 335.857L55.4185 334.847L56.4286 335.143L57.4388 334.847L57.1429 335.857L57.4388 336.867L56.4286 336.572Z" fill="white"/>
<path fill-rule="evenodd" clip-rule="evenodd" d="M56.4286 323L55.4185 323.296L55.7143 322.286L55.4185 321.275L56.4286 321.571L57.4388 321.275L57.1429 322.286L57.4388 323.296L56.4286 323Z" fill="white"/>
<path fill-rule="evenodd" clip-rule="evenodd" d="M60.7143 327.285L59.7041 327.581L60 326.571L59.7041 325.561L60.7143 325.857L61.7244 325.561L61.4285 326.571L61.7244 327.581L60.7143 327.285Z" fill="white"/>
<path fill-rule="evenodd" clip-rule="evenodd" d="M52.143 328.715L51.1328 329.011L51.4287 328L51.1328 326.99L52.143 327.286L53.1531 326.99L52.8573 328L53.1531 329.011L52.143 328.715Z" fill="white"/>
<path fill-rule="evenodd" clip-rule="evenodd" d="M58.5715 330.5L58.0664 330.648L58.2143 330.143L58.0664 329.638L58.5715 329.786L59.0766 329.638L58.9286 330.143L59.0766 330.648L58.5715 330.5Z" fill="white"/>
</g>
</g>
<path d="M142.875 260.5H109.125C106.02 260.503 103.503 263.02 103.5 266.125V299.875C103.503 302.98 106.02 305.497 109.125 305.5H142.875C145.98 305.497 148.497 302.98 148.5 299.875V266.125C148.497 263.02 145.98 260.503 142.875 260.5ZM109.125 303.25C107.262 303.248 105.752 301.738 105.75 299.875V288.12L114.216 279.654C115.755 278.12 118.245 278.12 119.784 279.654L143.336 303.203C143.184 303.224 143.033 303.25 142.875 303.25H109.125ZM146.25 299.875C146.249 300.726 145.923 301.495 145.402 302.088L129.841 286.528L132.216 284.154C133.755 282.62 136.245 282.62 137.784 284.154L146.25 292.62V299.875ZM146.25 289.438L139.375 282.563C136.957 280.15 133.043 280.15 130.625 282.563L128.25 284.938L121.375 278.063C118.927 275.725 115.073 275.725 112.625 278.063L105.75 284.938V266.125C105.752 264.262 107.262 262.752 109.125 262.75H142.875C144.738 262.752 146.248 264.262 146.25 266.125V289.438Z" fill="#F7F9FC"/>
<path d="M216.875 260.5H183.125C180.02 260.503 177.503 263.02 177.5 266.125V299.875C177.503 302.98 180.02 305.497 183.125 305.5H216.875C219.98 305.497 222.497 302.98 222.5 299.875V266.125C222.497 263.02 219.98 260.503 216.875 260.5ZM183.125 303.25C181.262 303.248 179.752 301.738 179.75 299.875V288.12L188.216 279.654C189.755 278.12 192.245 278.12 193.784 279.654L217.336 303.203C217.184 303.224 217.033 303.25 216.875 303.25H183.125ZM220.25 299.875C220.249 300.726 219.923 301.495 219.402 302.088L203.841 286.528L206.216 284.154C207.755 282.62 210.245 282.62 211.784 284.154L220.25 292.62V299.875ZM220.25 289.438L213.375 282.563C210.957 280.15 207.043 280.15 204.625 282.563L202.25 284.938L195.375 278.063C192.927 275.725 189.073 275.725 186.625 278.063L179.75 284.938V266.125C179.752 264.262 181.262 262.752 183.125 262.75H216.875C218.738 262.752 220.248 264.262 220.25 266.125V289.438Z" fill="#F7F9FC"/>
<g clip-path="url(#clip1_375_7275)">
<rect x="183" y="318" width="30" height="21.8182" rx="1.38311" fill="white"/>
<rect x="183.173" y="318.173" width="29.6542" height="21.4724" rx="1.21023" fill="white" stroke="#F5F5F5" stroke-width="0.345779"/>
<mask id="mask1_375_7275" style="mask-type:luminance" maskUnits="userSpaceOnUse" x="183" y="318" width="30" height="22">
<rect x="183.173" y="318.173" width="29.6542" height="21.4724" rx="1.21023" fill="white" stroke="white" stroke-width="0.345779"/>
</mask>
<g mask="url(#mask1_375_7275)">
<rect x="204.429" y="318" width="8.57143" height="21.8182" fill="#FF3131"/>
<path fill-rule="evenodd" clip-rule="evenodd" d="M183 339.818H191.571V318H183V339.818Z" fill="#FF3131"/>
<path fill-rule="evenodd" clip-rule="evenodd" d="M199.967 328.361C199.807 328.524 199.533 328.379 199.577 328.155L200.143 325.273L198.714 326L198 323.818L197.286 326L195.857 325.273L196.423 328.155C196.467 328.379 196.193 328.524 196.033 328.361L195.307 327.622C195.217 327.53 195.069 327.53 194.978 327.622L194.429 328.182L193 327.455L193.714 328.909L193.159 329.475C193.071 329.565 193.071 329.708 193.159 329.798L195.143 331.818H197.286L197.643 334H198.357L198.714 331.818H200.857L202.841 329.798C202.929 329.708 202.929 329.565 202.841 329.475L202.286 328.909L203 327.455L201.571 328.182L201.022 327.622C200.931 327.53 200.783 327.53 200.693 327.622L199.967 328.361Z" fill="#FF3131"/>
</g>
</g>
<path d="M290.875 260.5H257.125C254.02 260.503 251.503 263.02 251.5 266.125V299.875C251.503 302.98 254.02 305.497 257.125 305.5H290.875C293.98 305.497 296.497 302.98 296.5 299.875V266.125C296.497 263.02 293.98 260.503 290.875 260.5ZM257.125 303.25C255.262 303.248 253.752 301.738 253.75 299.875V288.12L262.216 279.654C263.755 278.12 266.245 278.12 267.784 279.654L291.336 303.203C291.184 303.224 291.033 303.25 290.875 303.25H257.125ZM294.25 299.875C294.249 300.726 293.923 301.495 293.402 302.088L277.841 286.528L280.216 284.154C281.755 282.62 284.245 282.62 285.784 284.154L294.25 292.62V299.875ZM294.25 289.438L287.375 282.563C284.957 280.15 281.043 280.15 278.625 282.563L276.25 284.938L269.375 278.063C266.927 275.725 263.073 275.725 260.625 278.063L253.75 284.938V266.125C253.752 264.262 255.262 262.752 257.125 262.75H290.875C292.738 262.752 294.248 264.262 294.25 266.125V289.438Z" fill="#F7F9FC"/>
<g clip-path="url(#clip2_375_7275)">
<rect x="257" y="318" width="30" height="21.8182" rx="1.38311" fill="white"/>
<rect x="257" y="318" width="30" height="21.8182" rx="1.38311" fill="white"/>
<rect x="257" y="318" width="30" height="21.8182" rx="1.38311" fill="white"/>
<rect x="257.173" y="318.173" width="29.6542" height="21.4724" rx="1.21023" fill="white" stroke="#F5F5F5" stroke-width="0.345779"/>
<mask id="mask2_375_7275" style="mask-type:luminance" maskUnits="userSpaceOnUse" x="257" y="318" width="30" height="22">
<rect x="257.173" y="318.173" width="29.6542" height="21.4724" rx="1.21023" fill="white" stroke="white" stroke-width="0.345779"/>
</mask>
<g mask="url(#mask2_375_7275)">
<path fill-rule="evenodd" clip-rule="evenodd" d="M257 329.636H287V318H257V329.636Z" fill="#E12237"/>
<path fill-rule="evenodd" clip-rule="evenodd" d="M265.571 320.182C266.01 320.182 266.431 320.263 266.819 320.41C266.086 319.812 265.155 319.455 264.143 319.455C261.776 319.455 259.857 321.408 259.857 323.818C259.857 326.228 261.776 328.182 264.143 328.182C265.155 328.182 266.086 327.824 266.819 327.227C266.431 327.374 266.01 327.455 265.571 327.455C263.599 327.455 262 325.827 262 323.818C262 321.81 263.599 320.182 265.571 320.182ZM264.857 323.818C265.252 323.818 265.571 323.493 265.571 323.091C265.571 322.689 265.252 322.364 264.857 322.364C264.463 322.364 264.143 322.689 264.143 323.091C264.143 323.493 264.463 323.818 264.857 323.818ZM267 326C267 326.402 266.68 326.727 266.286 326.727C265.891 326.727 265.571 326.402 265.571 326C265.571 325.599 265.891 325.273 266.286 325.273C266.68 325.273 267 325.599 267 326ZM269.143 326.727C269.537 326.727 269.857 326.402 269.857 326C269.857 325.599 269.537 325.273 269.143 325.273C268.748 325.273 268.429 325.599 268.429 326C268.429 326.402 268.748 326.727 269.143 326.727ZM271.286 323.091C271.286 323.493 270.966 323.818 270.571 323.818C270.177 323.818 269.857 323.493 269.857 323.091C269.857 322.689 270.177 322.364 270.571 322.364C270.966 322.364 271.286 322.689 271.286 323.091ZM267.714 321.637C268.109 321.637 268.429 321.311 268.429 320.909C268.429 320.508 268.109 320.182 267.714 320.182C267.32 320.182 267 320.508 267 320.909C267 321.311 267.32 321.637 267.714 321.637Z" fill="white"/>
</g>
</g>
<path d="M364.875 260.5H331.125C328.02 260.503 325.503 263.02 325.5 266.125V299.875C325.503 302.98 328.02 305.497 331.125 305.5H364.875C367.98 305.497 370.497 302.98 370.5 299.875V266.125C370.497 263.02 367.98 260.503 364.875 260.5ZM331.125 303.25C329.262 303.248 327.752 301.738 327.75 299.875V288.12L336.216 279.654C337.755 278.12 340.245 278.12 341.784 279.654L365.336 303.203C365.184 303.224 365.033 303.25 364.875 303.25H331.125ZM368.25 299.875C368.249 300.726 367.923 301.495 367.402 302.088L351.841 286.528L354.216 284.154C355.755 282.62 358.245 282.62 359.784 284.154L368.25 292.62V299.875ZM368.25 289.438L361.375 282.563C358.957 280.15 355.043 280.15 352.625 282.563L350.25 284.938L343.375 278.063C340.927 275.725 337.073 275.725 334.625 278.063L327.75 284.938V266.125C327.752 264.262 329.262 262.752 331.125 262.75H364.875C366.738 262.752 368.248 264.262 368.25 266.125V289.438Z" fill="#F7F9FC"/>
<g clip-path="url(#clip3_375_7275)">
<rect x="332" y="319" width="30" height="21" rx="1.52143" fill="white"/>
<rect x="332" y="319" width="30" height="21" rx="1.52143" fill="white"/>
<mask id="mask3_375_7275" style="mask-type:luminance" maskUnits="userSpaceOnUse" x="332" y="319" width="30" height="21">
<rect x="332" y="319" width="30" height="21" rx="1.52143" fill="white"/>
</mask>
<g mask="url(#mask3_375_7275)">
<rect x="332" y="319" width="30" height="21" fill="#0A17A7"/>
<path fill-rule="evenodd" clip-rule="evenodd" d="M330.626 316.988L343.428 325.451V317.6H350.571V325.451L363.374 316.988L364.971 319.309L354.85 326H362V333H354.849L364.971 339.691L363.374 342.012L350.571 333.55V341.4H343.428V333.549L330.626 342.012L329.028 339.691L339.15 333H332V326H339.15L329.028 319.309L330.626 316.988Z" fill="white"/>
<path d="M352.001 325.649L365.571 316.9" stroke="#DB1F35" stroke-width="0.507142" stroke-linecap="round"/>
<path d="M353.442 333.382L365.607 341.418" stroke="#DB1F35" stroke-width="0.507142" stroke-linecap="round"/>
<path d="M340.578 325.626L327.889 317.245" stroke="#DB1F35" stroke-width="0.507142" stroke-linecap="round"/>
<path d="M341.954 333.285L327.889 342.426" stroke="#DB1F35" stroke-width="0.507142" stroke-linecap="round"/>
<path fill-rule="evenodd" clip-rule="evenodd" d="M332 331.6H344.857V340H349.143V331.6H362V327.4H349.143V319H344.857V327.4H332V331.6Z" fill="#E6273E"/>
</g>
</g>
<path d="M438.875 260.5H405.125C402.02 260.503 399.503 263.02 399.5 266.125V299.875C399.503 302.98 402.02 305.497 405.125 305.5H438.875C441.98 305.497 444.497 302.98 444.5 299.875V266.125C444.497 263.02 441.98 260.503 438.875 260.5ZM405.125 303.25C403.262 303.248 401.752 301.738 401.75 299.875V288.12L410.216 279.654C411.755 278.12 414.245 278.12 415.784 279.654L439.336 303.203C439.184 303.224 439.033 303.25 438.875 303.25H405.125ZM442.25 299.875C442.249 300.726 441.923 301.495 441.402 302.088L425.841 286.528L428.216 284.154C429.755 282.62 432.245 282.62 433.784 284.154L442.25 292.62V299.875ZM442.25 289.438L435.375 282.563C432.957 280.15 429.043 280.15 426.625 282.563L424.25 284.938L417.375 278.063C414.927 275.725 411.073 275.725 408.625 278.063L401.75 284.938V266.125C401.752 264.262 403.262 262.752 405.125 262.75H438.875C440.738 262.752 442.248 264.262 442.25 266.125V289.438Z" fill="#F7F9FC"/>
<g clip-path="url(#clip4_375_7275)">
<rect x="407" y="319" width="30.0001" height="21.4286" rx="2.14286" fill="white"/>
<rect x="407" y="319" width="30.0001" height="21.4286" rx="2.14286" fill="white"/>
<mask id="mask4_375_7275" style="mask-type:luminance" maskUnits="userSpaceOnUse" x="407" y="319" width="30" height="22">
<rect x="407" y="319" width="30.0001" height="21.4286" rx="2.14286" fill="white"/>
</mask>
<g mask="url(#mask4_375_7275)">
<path fill-rule="evenodd" clip-rule="evenodd" d="M407 340.429H437V319H407V340.429Z" fill="#F0371D"/>
<path fill-rule="evenodd" clip-rule="evenodd" d="M422.628 323.431C423.378 323.675 423.591 325.089 423.104 326.59C422.616 328.091 421.613 329.109 420.862 328.866C420.112 328.622 419.899 327.208 420.387 325.707C420.874 324.206 421.878 323.187 422.628 323.431ZM415.959 327.364C416.423 326.725 417.834 326.96 419.111 327.887C420.387 328.815 421.046 330.084 420.582 330.722C420.119 331.361 418.708 331.126 417.431 330.199C416.155 329.271 415.496 328.002 415.959 327.364ZM425.572 329.987C427.15 329.987 428.429 329.347 428.429 328.558C428.429 327.769 427.15 327.129 425.572 327.129C423.994 327.129 422.715 327.769 422.715 328.558C422.715 329.347 423.994 329.987 425.572 329.987ZM425.928 329C426.126 329 426.286 328.84 426.286 328.643C426.286 328.446 426.126 328.286 425.928 328.286C425.731 328.286 425.571 328.446 425.571 328.643C425.571 328.84 425.731 329 425.928 329ZM425.345 335.659C424.595 335.903 423.592 334.884 423.104 333.383C422.616 331.882 422.829 330.468 423.58 330.224C424.33 329.98 425.334 330.999 425.821 332.5C426.309 334.001 426.096 335.415 425.345 335.659ZM424.152 333.418C424.213 333.605 424.415 333.708 424.602 333.647C424.79 333.586 424.892 333.385 424.832 333.197C424.771 333.009 424.569 332.907 424.382 332.968C424.194 333.029 424.091 333.23 424.152 333.418ZM417.639 334.921C417.175 334.282 417.834 333.013 419.111 332.086C420.387 331.158 421.798 330.924 422.262 331.562C422.726 332.2 422.067 333.47 420.79 334.397C419.514 335.325 418.103 335.559 417.639 334.921ZM419.402 333.094C419.242 333.21 419.207 333.433 419.323 333.593C419.439 333.752 419.662 333.788 419.822 333.672C419.981 333.556 420.017 333.332 419.901 333.173C419.785 333.013 419.562 332.978 419.402 333.094ZM418.242 328.476C418.083 328.36 417.86 328.395 417.744 328.555C417.628 328.714 417.663 328.937 417.823 329.053C417.982 329.169 418.206 329.134 418.321 328.974C418.437 328.815 418.402 328.591 418.242 328.476ZM422.276 325.945C422.337 325.758 422.234 325.556 422.047 325.495C421.859 325.434 421.658 325.537 421.597 325.725C421.536 325.912 421.638 326.114 421.826 326.175C422.014 326.236 422.215 326.133 422.276 325.945Z" fill="white"/>
</g>
</g>
<path d="M512.875 260.5H479.125C476.02 260.503 473.503 263.02 473.5 266.125V299.875C473.503 302.98 476.02 305.497 479.125 305.5H512.875C515.98 305.497 518.497 302.98 518.5 299.875V266.125C518.497 263.02 515.98 260.503 512.875 260.5ZM479.125 303.25C477.262 303.248 475.752 301.738 475.75 299.875V288.12L484.216 279.654C485.755 278.12 488.245 278.12 489.784 279.654L513.336 303.203C513.184 303.224 513.033 303.25 512.875 303.25H479.125ZM516.25 299.875C516.249 300.726 515.923 301.495 515.402 302.088L499.841 286.528L502.216 284.154C503.755 282.62 506.245 282.62 507.784 284.154L516.25 292.62V299.875ZM516.25 289.438L509.375 282.563C506.957 280.15 503.043 280.15 500.625 282.563L498.25 284.938L491.375 278.063C488.927 275.725 485.073 275.725 482.625 278.063L475.75 284.938V266.125C475.752 264.262 477.262 262.752 479.125 262.75H512.875C514.738 262.752 516.248 264.262 516.25 266.125V289.438Z" fill="#F7F9FC"/>
<rect x="481" y="318" width="30.4512" height="21.7508" rx="1.9032" fill="white"/>
<rect x="481" y="318" width="30.4512" height="21.7508" rx="1.9032" fill="white"/>
<mask id="mask5_375_7275" style="mask-type:luminance" maskUnits="userSpaceOnUse" x="481" y="318" width="31" height="22">
<rect x="481" y="318" width="30.4512" height="21.7508" rx="1.9032" fill="white"/>
</mask>
<g mask="url(#mask5_375_7275)">
<rect x="481" y="318" width="30.4512" height="21.7508" fill="#043CAE"/>
<path fill-rule="evenodd" clip-rule="evenodd" d="M495.2 322.65L496.225 322.35L497.251 322.65L496.95 321.625L497.251 320.6L496.225 320.9L495.2 320.6L495.5 321.625L495.2 322.65ZM495.2 337.151L496.225 336.851L497.251 337.151L496.95 336.126L497.251 335.1L496.225 335.401L495.2 335.1L495.5 336.126L495.2 337.151ZM503.476 329.6L502.45 329.901L502.751 328.875L502.45 327.85L503.476 328.15L504.501 327.85L504.201 328.875L504.501 329.901L503.476 329.6ZM487.95 329.901L488.975 329.6L490 329.901L489.7 328.875L490 327.85L488.975 328.15L487.95 327.85L488.25 328.875L487.95 329.901ZM502.504 325.975L501.479 326.275L501.779 325.25L501.479 324.225L502.504 324.525L503.53 324.225L503.229 325.25L503.53 326.275L502.504 325.975ZM488.921 333.526L489.946 333.226L490.972 333.526L490.671 332.501L490.972 331.475L489.946 331.775L488.921 331.475L489.221 332.501L488.921 333.526ZM499.851 323.321L498.825 323.621L499.126 322.596L498.825 321.571L499.851 321.871L500.876 321.571L500.576 322.596L500.876 323.621L499.851 323.321ZM491.575 336.179L492.6 335.879L493.626 336.179L493.325 335.154L493.626 334.129L492.6 334.429L491.575 334.129L491.875 335.154L491.575 336.179ZM502.504 333.226L501.479 333.526L501.779 332.501L501.479 331.475L502.504 331.775L503.53 331.475L503.229 332.501L503.53 333.526L502.504 333.226ZM488.921 326.275L489.946 325.975L490.972 326.275L490.671 325.25L490.972 324.225L489.946 324.525L488.921 324.225L489.221 325.25L488.921 326.275ZM499.851 335.879L498.825 336.179L499.126 335.154L498.825 334.129L499.851 334.429L500.876 334.129L500.576 335.154L500.876 336.179L499.851 335.879ZM491.575 323.621L492.6 323.321L493.626 323.621L493.325 322.596L493.626 321.571L492.6 321.871L491.575 321.571L491.875 322.596L491.575 323.621Z" fill="#FFD429"/>
</g>
<rect x="173" y="146" width="201" height="64" fill="#04A591"/>
<path d="M201.52 170.224H203.84V179.76H209.376V182H201.52V170.224ZM210.858 178.416C210.858 177.701 211.023 177.061 211.354 176.496C211.695 175.931 212.17 175.488 212.778 175.168C213.386 174.837 214.085 174.672 214.874 174.672C215.674 174.672 216.367 174.837 216.954 175.168C217.541 175.488 217.989 175.931 218.298 176.496C218.618 177.061 218.778 177.701 218.778 178.416C218.778 179.131 218.618 179.776 218.298 180.352C217.989 180.917 217.541 181.365 216.954 181.696C216.367 182.027 215.663 182.192 214.842 182.192C214.074 182.192 213.386 182.043 212.778 181.744C212.181 181.445 211.711 181.013 211.37 180.448C211.029 179.883 210.858 179.205 210.858 178.416ZM213.114 178.432C213.114 178.795 213.189 179.125 213.338 179.424C213.487 179.712 213.69 179.941 213.946 180.112C214.202 180.283 214.49 180.368 214.81 180.368C215.162 180.368 215.466 180.283 215.722 180.112C215.978 179.941 216.175 179.712 216.314 179.424C216.453 179.125 216.522 178.795 216.522 178.432C216.522 178.059 216.453 177.728 216.314 177.44C216.175 177.152 215.978 176.923 215.722 176.752C215.466 176.581 215.162 176.496 214.81 176.496C214.49 176.496 214.202 176.581 213.946 176.752C213.69 176.923 213.487 177.152 213.338 177.44C213.189 177.728 213.114 178.059 213.114 178.432ZM226.479 181.376C226.169 181.621 225.78 181.819 225.311 181.968C224.852 182.117 224.399 182.192 223.951 182.192C223.151 182.192 222.452 182.048 221.855 181.76C221.268 181.461 220.809 181.04 220.479 180.496C220.159 179.941 219.999 179.275 219.999 178.496C219.999 177.717 220.175 177.056 220.527 176.512C220.879 175.957 221.337 175.536 221.903 175.248C222.479 174.96 223.081 174.816 223.711 174.816C224.34 174.816 224.884 174.901 225.343 175.072C225.812 175.243 226.212 175.467 226.543 175.744L225.455 177.184C225.305 177.067 225.097 176.949 224.831 176.832C224.575 176.704 224.271 176.64 223.919 176.64C223.609 176.64 223.327 176.72 223.071 176.88C222.815 177.04 222.612 177.259 222.463 177.536C222.313 177.813 222.239 178.133 222.239 178.496C222.239 178.837 222.319 179.152 222.479 179.44C222.639 179.728 222.857 179.957 223.135 180.128C223.423 180.288 223.759 180.368 224.143 180.368C224.388 180.368 224.612 180.336 224.815 180.272C225.028 180.197 225.209 180.096 225.359 179.968L226.479 181.376ZM231.143 182.192C230.492 182.192 229.9 182.064 229.367 181.808C228.844 181.541 228.428 181.136 228.119 180.592C227.81 180.048 227.655 179.355 227.655 178.512C227.655 177.723 227.815 177.04 228.135 176.464C228.455 175.888 228.876 175.445 229.399 175.136C229.922 174.816 230.476 174.656 231.063 174.656C231.756 174.656 232.279 174.773 232.631 175.008C232.994 175.232 233.292 175.483 233.527 175.76L233.431 176.032L233.639 175.008H235.719V182H233.479V180.48L233.655 180.96C233.634 180.96 233.57 181.024 233.463 181.152C233.356 181.269 233.196 181.413 232.983 181.584C232.78 181.744 232.524 181.883 232.215 182C231.916 182.128 231.559 182.192 231.143 182.192ZM231.783 180.368C232.05 180.368 232.29 180.331 232.503 180.256C232.716 180.171 232.903 180.053 233.063 179.904C233.223 179.744 233.362 179.547 233.479 179.312V177.6C233.394 177.365 233.266 177.168 233.095 177.008C232.924 176.837 232.722 176.709 232.487 176.624C232.252 176.528 231.991 176.48 231.703 176.48C231.383 176.48 231.084 176.565 230.807 176.736C230.54 176.896 230.327 177.12 230.167 177.408C230.007 177.696 229.927 178.027 229.927 178.4C229.927 178.773 230.012 179.109 230.183 179.408C230.354 179.707 230.578 179.941 230.855 180.112C231.143 180.283 231.452 180.368 231.783 180.368ZM238.027 169.376H240.267V182H238.027V169.376ZM242.574 175.008H244.814V182H242.574V175.008ZM242.526 172.528C242.526 172.197 242.654 171.925 242.91 171.712C243.177 171.499 243.459 171.392 243.758 171.392C244.057 171.392 244.329 171.499 244.574 171.712C244.83 171.925 244.958 172.197 244.958 172.528C244.958 172.859 244.83 173.131 244.574 173.344C244.329 173.547 244.057 173.648 243.758 173.648C243.459 173.648 243.177 173.547 242.91 173.344C242.654 173.131 242.526 172.859 242.526 172.528ZM248.209 176.832C247.825 176.832 247.489 176.693 247.201 176.416C246.913 176.139 246.769 175.765 246.769 175.296V174.336H248.449V174.56C248.449 174.784 248.486 174.917 248.561 174.96C248.646 174.992 248.79 175.008 248.993 175.008H253.425L249.553 180.64L249.137 180.176H253.377V182H246.289L250.273 176.192L250.609 176.832H248.209ZM258.424 182.192C257.773 182.192 257.181 182.064 256.648 181.808C256.125 181.541 255.709 181.136 255.4 180.592C255.091 180.048 254.936 179.355 254.936 178.512C254.936 177.723 255.096 177.04 255.416 176.464C255.736 175.888 256.157 175.445 256.68 175.136C257.203 174.816 257.757 174.656 258.344 174.656C259.037 174.656 259.56 174.773 259.912 175.008C260.275 175.232 260.573 175.483 260.808 175.76L260.712 176.032L260.92 175.008H263V182H260.76V180.48L260.936 180.96C260.915 180.96 260.851 181.024 260.744 181.152C260.637 181.269 260.477 181.413 260.264 181.584C260.061 181.744 259.805 181.883 259.496 182C259.197 182.128 258.84 182.192 258.424 182.192ZM259.064 180.368C259.331 180.368 259.571 180.331 259.784 180.256C259.997 180.171 260.184 180.053 260.344 179.904C260.504 179.744 260.643 179.547 260.76 179.312V177.6C260.675 177.365 260.547 177.168 260.376 177.008C260.205 176.837 260.003 176.709 259.768 176.624C259.533 176.528 259.272 176.48 258.984 176.48C258.664 176.48 258.365 176.565 258.088 176.736C257.821 176.896 257.608 177.12 257.448 177.408C257.288 177.696 257.208 178.027 257.208 178.4C257.208 178.773 257.293 179.109 257.464 179.408C257.635 179.707 257.859 179.941 258.136 180.112C258.424 180.283 258.733 180.368 259.064 180.368ZM265.964 171.936H268.204V174.976H269.9V176.72H268.204V182H265.964V176.72H264.876V174.976H265.964V171.936ZM271.605 175.008H273.845V182H271.605V175.008ZM271.557 172.528C271.557 172.197 271.685 171.925 271.941 171.712C272.208 171.499 272.49 171.392 272.789 171.392C273.088 171.392 273.36 171.499 273.605 171.712C273.861 171.925 273.989 172.197 273.989 172.528C273.989 172.859 273.861 173.131 273.605 173.344C273.36 173.547 273.088 173.648 272.789 173.648C272.49 173.648 272.208 173.547 271.941 173.344C271.685 173.131 271.557 172.859 271.557 172.528ZM275.608 178.416C275.608 177.701 275.773 177.061 276.104 176.496C276.445 175.931 276.92 175.488 277.528 175.168C278.136 174.837 278.835 174.672 279.624 174.672C280.424 174.672 281.117 174.837 281.704 175.168C282.291 175.488 282.739 175.931 283.048 176.496C283.368 177.061 283.528 177.701 283.528 178.416C283.528 179.131 283.368 179.776 283.048 180.352C282.739 180.917 282.291 181.365 281.704 181.696C281.117 182.027 280.413 182.192 279.592 182.192C278.824 182.192 278.136 182.043 277.528 181.744C276.931 181.445 276.461 181.013 276.12 180.448C275.779 179.883 275.608 179.205 275.608 178.416ZM277.864 178.432C277.864 178.795 277.939 179.125 278.088 179.424C278.237 179.712 278.44 179.941 278.696 180.112C278.952 180.283 279.24 180.368 279.56 180.368C279.912 180.368 280.216 180.283 280.472 180.112C280.728 179.941 280.925 179.712 281.064 179.424C281.203 179.125 281.272 178.795 281.272 178.432C281.272 178.059 281.203 177.728 281.064 177.44C280.925 177.152 280.728 176.923 280.472 176.752C280.216 176.581 279.912 176.496 279.56 176.496C279.24 176.496 278.952 176.581 278.696 176.752C278.44 176.923 278.237 177.152 278.088 177.44C277.939 177.728 277.864 178.059 277.864 178.432ZM287.325 175.008L287.501 176.256L287.469 176.144C287.714 175.707 288.061 175.355 288.509 175.088C288.957 174.811 289.506 174.672 290.157 174.672C290.818 174.672 291.367 174.869 291.805 175.264C292.253 175.648 292.482 176.149 292.493 176.768V182H290.253V177.6C290.242 177.291 290.157 177.045 289.997 176.864C289.847 176.672 289.591 176.576 289.229 176.576C288.887 176.576 288.589 176.688 288.333 176.912C288.077 177.136 287.879 177.44 287.741 177.824C287.602 178.208 287.533 178.651 287.533 179.152V182H285.293V175.008H287.325ZM304.38 182.192C303.964 182.192 303.553 182.117 303.148 181.968C302.753 181.808 302.422 181.584 302.156 181.296L302.22 180.64V185.36H299.996V174.848H301.916L302.236 176.208L302.06 175.728C302.422 175.419 302.828 175.163 303.276 174.96C303.724 174.757 304.241 174.656 304.828 174.656C305.478 174.656 306.06 174.811 306.572 175.12C307.084 175.419 307.484 175.856 307.772 176.432C308.07 176.997 308.22 177.68 308.22 178.48C308.22 179.269 308.054 179.941 307.724 180.496C307.393 181.051 306.94 181.472 306.364 181.76C305.788 182.048 305.126 182.192 304.38 182.192ZM303.932 180.432C304.294 180.432 304.625 180.352 304.924 180.192C305.233 180.032 305.478 179.808 305.66 179.52C305.852 179.221 305.948 178.885 305.948 178.512C305.948 178.117 305.862 177.776 305.692 177.488C305.532 177.189 305.308 176.96 305.02 176.8C304.742 176.629 304.433 176.544 304.092 176.544C303.793 176.544 303.526 176.587 303.292 176.672C303.068 176.747 302.865 176.864 302.684 177.024C302.513 177.173 302.364 177.365 302.236 177.6V179.312C302.321 179.536 302.444 179.733 302.604 179.904C302.764 180.075 302.956 180.208 303.18 180.304C303.414 180.389 303.665 180.432 303.932 180.432ZM309.98 169.376H312.22V182H309.98V169.376ZM316.783 182.336C316.154 182.336 315.626 182.144 315.199 181.76C314.772 181.365 314.548 180.859 314.527 180.24V175.008H316.767V179.408C316.788 179.717 316.868 179.968 317.007 180.16C317.146 180.341 317.38 180.432 317.711 180.432C318.042 180.432 318.324 180.32 318.559 180.096C318.804 179.872 318.991 179.568 319.119 179.184C319.258 178.789 319.327 178.347 319.327 177.856V175.008H321.567V182H319.535L319.359 180.72L319.391 180.864C319.231 181.152 319.028 181.408 318.783 181.632C318.538 181.856 318.244 182.027 317.903 182.144C317.572 182.272 317.199 182.336 316.783 182.336ZM327.487 185.52C326.857 185.52 326.324 185.445 325.887 185.296C325.46 185.147 325.097 184.965 324.799 184.752C324.5 184.539 324.233 184.336 323.999 184.144L325.311 182.608C325.556 182.832 325.839 183.045 326.159 183.248C326.489 183.461 326.921 183.568 327.455 183.568C327.807 183.568 328.132 183.504 328.431 183.376C328.74 183.259 328.985 183.083 329.167 182.848C329.359 182.613 329.455 182.32 329.455 181.968V180.432L329.535 180.832C329.364 181.195 329.055 181.515 328.607 181.792C328.159 182.059 327.572 182.192 326.847 182.192C326.217 182.192 325.631 182.032 325.087 181.712C324.553 181.381 324.127 180.939 323.807 180.384C323.487 179.819 323.327 179.179 323.327 178.464C323.327 177.728 323.497 177.077 323.839 176.512C324.18 175.936 324.623 175.483 325.167 175.152C325.711 174.821 326.287 174.656 326.895 174.656C327.503 174.656 328.025 174.747 328.463 174.928C328.911 175.099 329.247 175.312 329.471 175.568L329.391 175.776L329.631 175.008H331.695V182C331.695 182.683 331.503 183.285 331.119 183.808C330.735 184.341 330.223 184.757 329.583 185.056C328.953 185.365 328.255 185.52 327.487 185.52ZM325.583 178.4C325.583 178.773 325.668 179.109 325.839 179.408C326.009 179.707 326.239 179.941 326.527 180.112C326.825 180.283 327.156 180.368 327.519 180.368C327.828 180.368 328.1 180.331 328.335 180.256C328.58 180.171 328.793 180.053 328.975 179.904C329.167 179.744 329.327 179.547 329.455 179.312V177.6C329.359 177.365 329.215 177.168 329.023 177.008C328.831 176.837 328.607 176.709 328.351 176.624C328.105 176.528 327.828 176.48 327.519 176.48C327.156 176.48 326.825 176.565 326.527 176.736C326.239 176.896 326.009 177.12 325.839 177.408C325.668 177.696 325.583 178.027 325.583 178.4ZM333.996 175.008H336.236V182H333.996V175.008ZM333.948 172.528C333.948 172.197 334.076 171.925 334.332 171.712C334.598 171.499 334.881 171.392 335.18 171.392C335.478 171.392 335.75 171.499 335.996 171.712C336.252 171.925 336.38 172.197 336.38 172.528C336.38 172.859 336.252 173.131 335.996 173.344C335.75 173.547 335.478 173.648 335.18 173.648C334.881 173.648 334.598 173.547 334.332 173.344C334.076 173.131 333.948 172.859 333.948 172.528ZM340.575 175.008L340.751 176.256L340.719 176.144C340.964 175.707 341.311 175.355 341.759 175.088C342.207 174.811 342.756 174.672 343.407 174.672C344.068 174.672 344.617 174.869 345.055 175.264C345.503 175.648 345.732 176.149 345.743 176.768V182H343.503V177.6C343.492 177.291 343.407 177.045 343.247 176.864C343.097 176.672 342.841 176.576 342.479 176.576C342.137 176.576 341.839 176.688 341.583 176.912C341.327 177.136 341.129 177.44 340.991 177.824C340.852 178.208 340.783 178.651 340.783 179.152V182H338.543V175.008H340.575Z" fill="#F7F9FC"/>
<g clip-path="url(#clip5_375_7275)">
<rect x="109" y="318" width="30" height="21.4286" rx="2.35714" fill="white"/>
<rect x="109" y="318" width="30" height="21.4286" rx="2.35714" fill="white"/>
<mask id="mask6_375_7275" style="mask-type:luminance" maskUnits="userSpaceOnUse" x="109" y="318" width="30" height="22">
<rect x="109" y="318" width="30" height="21.4286" rx="2.35714" fill="white"/>
</mask>
<g mask="url(#mask6_375_7275)">
<path fill-rule="evenodd" clip-rule="evenodd" d="M139 318H109V319.429H139V318ZM139 320.857H109V322.286H139V320.857ZM109 323.714H139V325.143H109V323.714ZM139 326.572H109V328H139V326.572ZM109 329.428H139V330.857H109V329.428ZM139 332.286H109V333.714H139V332.286ZM109 335.143H139V336.571H109V335.143ZM139 338H109V339.429H139V338Z" fill="#D02F44"/>
<rect x="109" y="318" width="12.8571" height="10" fill="#46467F"/>
<g filter="url(#filter0_d_375_7275)">
<path fill-rule="evenodd" clip-rule="evenodd" d="M111.143 320.857C111.537 320.857 111.857 320.537 111.857 320.143C111.857 319.748 111.537 319.428 111.143 319.428C110.748 319.428 110.428 319.748 110.428 320.143C110.428 320.537 110.748 320.857 111.143 320.857ZM114 320.857C114.394 320.857 114.714 320.537 114.714 320.143C114.714 319.748 114.394 319.428 114 319.428C113.605 319.428 113.286 319.748 113.286 320.143C113.286 320.537 113.605 320.857 114 320.857ZM117.571 320.143C117.571 320.537 117.252 320.857 116.857 320.857C116.463 320.857 116.143 320.537 116.143 320.143C116.143 319.748 116.463 319.428 116.857 319.428C117.252 319.428 117.571 319.748 117.571 320.143ZM119.714 320.857C120.109 320.857 120.429 320.537 120.429 320.143C120.429 319.748 120.109 319.428 119.714 319.428C119.32 319.428 119 319.748 119 320.143C119 320.537 119.32 320.857 119.714 320.857ZM113.285 321.571C113.285 321.965 112.965 322.285 112.571 322.285C112.176 322.285 111.857 321.965 111.857 321.571C111.857 321.176 112.176 320.857 112.571 320.857C112.965 320.857 113.285 321.176 113.285 321.571ZM115.428 322.285C115.823 322.285 116.142 321.965 116.142 321.571C116.142 321.176 115.823 320.857 115.428 320.857C115.034 320.857 114.714 321.176 114.714 321.571C114.714 321.965 115.034 322.285 115.428 322.285ZM119 321.571C119 321.965 118.68 322.285 118.285 322.285C117.891 322.285 117.571 321.965 117.571 321.571C117.571 321.176 117.891 320.857 118.285 320.857C118.68 320.857 119 321.176 119 321.571ZM119.714 323.714C120.109 323.714 120.429 323.394 120.429 323C120.429 322.605 120.109 322.286 119.714 322.286C119.32 322.286 119 322.605 119 323C119 323.394 119.32 323.714 119.714 323.714ZM117.571 323C117.571 323.394 117.252 323.714 116.857 323.714C116.463 323.714 116.143 323.394 116.143 323C116.143 322.605 116.463 322.286 116.857 322.286C117.252 322.286 117.571 322.605 117.571 323ZM114 323.714C114.394 323.714 114.714 323.394 114.714 323C114.714 322.605 114.394 322.286 114 322.286C113.605 322.286 113.286 322.605 113.286 323C113.286 323.394 113.605 323.714 114 323.714ZM111.857 323C111.857 323.394 111.537 323.714 111.143 323.714C110.748 323.714 110.428 323.394 110.428 323C110.428 322.605 110.748 322.286 111.143 322.286C111.537 322.286 111.857 322.605 111.857 323ZM112.571 325.142C112.965 325.142 113.285 324.823 113.285 324.428C113.285 324.034 112.965 323.714 112.571 323.714C112.176 323.714 111.857 324.034 111.857 324.428C111.857 324.823 112.176 325.142 112.571 325.142ZM116.142 324.428C116.142 324.823 115.823 325.142 115.428 325.142C115.034 325.142 114.714 324.823 114.714 324.428C114.714 324.034 115.034 323.714 115.428 323.714C115.823 323.714 116.142 324.034 116.142 324.428ZM118.285 325.142C118.68 325.142 119 324.823 119 324.428C119 324.034 118.68 323.714 118.285 323.714C117.891 323.714 117.571 324.034 117.571 324.428C117.571 324.823 117.891 325.142 118.285 325.142ZM120.429 325.857C120.429 326.252 120.109 326.571 119.714 326.571C119.32 326.571 119 326.252 119 325.857C119 325.463 119.32 325.143 119.714 325.143C120.109 325.143 120.429 325.463 120.429 325.857ZM116.857 326.571C117.252 326.571 117.571 326.252 117.571 325.857C117.571 325.463 117.252 325.143 116.857 325.143C116.463 325.143 116.143 325.463 116.143 325.857C116.143 326.252 116.463 326.571 116.857 326.571ZM114.714 325.857C114.714 326.252 114.394 326.571 114 326.571C113.605 326.571 113.286 326.252 113.286 325.857C113.286 325.463 113.605 325.143 114 325.143C114.394 325.143 114.714 325.463 114.714 325.857ZM111.143 326.571C111.537 326.571 111.857 326.252 111.857 325.857C111.857 325.463 111.537 325.143 111.143 325.143C110.748 325.143 110.428 325.463 110.428 325.857C110.428 326.252 110.748 326.571 111.143 326.571Z" fill="url(#paint2_linear_375_7275)"/>
</g>
</g>
</g>
<defs>
<filter id="filter0_d_375_7275" x="110.428" y="319.428" width="10.0005" height="8.32164" filterUnits="userSpaceOnUse" color-interpolation-filters="sRGB">
<feFlood flood-opacity="0" result="BackgroundImageFix"/>
<feColorMatrix in="SourceAlpha" type="matrix" values="0 0 0 0 0 0 0 0 0 0 0 0 0 0 0 0 0 0 127 0" result="hardAlpha"/>
<feOffset dy="1.17857"/>
<feColorMatrix type="matrix" values="0 0 0 0 0 0 0 0 0 0 0 0 0 0 0 0 0 0 0.06 0"/>
<feBlend mode="normal" in2="BackgroundImageFix" result="effect1_dropShadow_375_7275"/>
<feBlend mode="normal" in="SourceGraphic" in2="effect1_dropShadow_375_7275" result="shape"/>
</filter>
<linearGradient id="paint0_linear_375_7275" x1="35" y1="318" x2="35" y2="328.714" gradientUnits="userSpaceOnUse">
<stop stop-color="white"/>
<stop offset="1" stop-color="#F0F0F0"/>
</linearGradient>
<linearGradient id="paint1_linear_375_7275" x1="35" y1="318" x2="35" y2="328" gradientUnits="userSpaceOnUse">
<stop stop-color="#FF2E3B"/>
<stop offset="1" stop-color="#FC0D1B"/>
</linearGradient>
<linearGradient id="paint2_linear_375_7275" x1="110.428" y1="319.428" x2="110.428" y2="326.571" gradientUnits="userSpaceOnUse">
<stop stop-color="white"/>
<stop offset="1" stop-color="#F0F0F0"/>
</linearGradient>
<clipPath id="clip0_375_7275">
<rect x="35" y="318" width="30" height="21.4286" rx="2.35714" fill="white"/>
</clipPath>
<clipPath id="clip1_375_7275">
<rect x="183" y="318" width="30" height="21.8182" rx="1.38311" fill="white"/>
</clipPath>
<clipPath id="clip2_375_7275">
<rect x="257" y="318" width="30" height="21.8182" rx="1.38311" fill="white"/>
</clipPath>
<clipPath id="clip3_375_7275">
<rect x="332" y="319" width="30" height="21" rx="1.52143" fill="white"/>
</clipPath>
<clipPath id="clip4_375_7275">
<rect x="407" y="319" width="30.0001" height="21.4286" rx="2.14286" fill="white"/>
</clipPath>
<clipPath id="clip5_375_7275">
<rect x="109" y="318" width="30" height="21.4286" rx="2.35714" fill="white"/>
</clipPath>
</defs>
</svg>
